STARTFONT 2.1
FONT -FontForge-Sazanami Mincho-Medium-R-Normal--8-80-75-75-P-78-ISO10646-1
SIZE 8 75 75
FONTBOUNDINGBOX 8 8 0 -2
COMMENT "Generated by fontforge, http://fontforge.sourceforge.net"
COMMENT "(C) 1990-2003 Wada Laboratory, Univ. of Tokyo. 2003-04 /efont/. All rights reserved."
STARTPROPERTIES 40
FOUNDRY "FontForge"
FAMILY_NAME "Sazanami Mincho"
WEIGHT_NAME "Medium"
SLANT "R"
SETWIDTH_NAME "Normal"
ADD_STYLE_NAME ""
PIXEL_SIZE 8
POINT_SIZE 80
RESOLUTION_X 75
RESOLUTION_Y 75
SPACING "P"
AVERAGE_WIDTH 78
CHARSET_REGISTRY "ISO10646"
CHARSET_ENCODING "1"
FONTNAME_REGISTRY ""
CHARSET_COLLECTIONS "ASCII ISO8859-2 ISO8859-5 ISO8859-7 ISO8859-9 ISO8859-4 JISX0208.1997 BIG5 ISO10646-1"
FONT_NAME "Sazanami-Mincho-Regular"
FACE_NAME "Sazanami Mincho Regular"
FONT_VERSION "001.000"
FONT_ASCENT 6
FONT_DESCENT 2
UNDERLINE_POSITION -1
UNDERLINE_THICKNESS 1
X_HEIGHT 3
CAP_HEIGHT 5
DEFAULT_CHAR 0
RAW_ASCENT 859
RAW_DESCENT 140
NORM_SPACE 4
RELATIVE_WEIGHT 50
RELATIVE_SETWIDTH 50
SUPERSCRIPT_X 0
SUPERSCRIPT_Y 3
SUPERSCRIPT_SIZE 5
SUBSCRIPT_X 0
SUBSCRIPT_Y 1
SUBSCRIPT_SIZE 5
FIGURE_WIDTH 4
AVG_LOWERCASE_WIDTH 63
AVG_UPPERCASE_WIDTH 64
ENDPROPERTIES
CHARS 7128
STARTCHAR .notdef.dup1
ENCODING 0
SWIDTH 1000 0
DWIDTH 4 0
BBX 4 5 0 0
BITMAP
F0
90
90
90
F0
ENDCHAR
STARTCHAR space
ENCODING 32
SWIDTH 500 0
DWIDTH 4 0
BBX 1 1 3 -2
BITMAP
00
ENDCHAR
STARTCHAR exclam
ENCODING 33
SWIDTH 500 0
DWIDTH 4 0
BBX 1 6 1 0
BITMAP
80
80
80
80
00
80
ENDCHAR
STARTCHAR quotedbl
ENCODING 34
SWIDTH 500 0
DWIDTH 4 0
BBX 3 2 0 4
BITMAP
A0
A0
ENDCHAR
STARTCHAR numbersign
ENCODING 35
SWIDTH 500 0
DWIDTH 4 0
BBX 3 6 0 0
BITMAP
A0
E0
A0
A0
E0
A0
ENDCHAR
STARTCHAR dollar
ENCODING 36
SWIDTH 500 0
DWIDTH 4 0
BBX 3 6 0 0
BITMAP
40
E0
C0
60
E0
40
ENDCHAR
STARTCHAR percent
ENCODING 37
SWIDTH 500 0
DWIDTH 4 0
BBX 3 5 0 0
BITMAP
80
20
40
80
20
ENDCHAR
STARTCHAR ampersand
ENCODING 38
SWIDTH 500 0
DWIDTH 4 0
BBX 3 6 0 0
BITMAP
40
A0
40
60
C0
E0
ENDCHAR
STARTCHAR quotesingle
ENCODING 39
SWIDTH 500 0
DWIDTH 4 0
BBX 2 2 0 4
BITMAP
40
80
ENDCHAR
STARTCHAR parenleft
ENCODING 40
SWIDTH 500 0
DWIDTH 4 0
BBX 2 7 1 -1
BITMAP
40
80
80
80
80
80
40
ENDCHAR
STARTCHAR parenright
ENCODING 41
SWIDTH 500 0
DWIDTH 4 0
BBX 2 7 0 -1
BITMAP
80
40
40
40
40
40
80
ENDCHAR
STARTCHAR asterisk
ENCODING 42
SWIDTH 500 0
DWIDTH 4 0
BBX 3 4 0 2
BITMAP
40
E0
40
A0
ENDCHAR
STARTCHAR plus
ENCODING 43
SWIDTH 500 0
DWIDTH 4 0
BBX 3 5 0 0
BITMAP
40
40
E0
40
40
ENDCHAR
STARTCHAR comma
ENCODING 44
SWIDTH 500 0
DWIDTH 4 0
BBX 2 2 1 -1
BITMAP
40
80
ENDCHAR
STARTCHAR hyphen
ENCODING 45
SWIDTH 500 0
DWIDTH 4 0
BBX 3 1 0 2
BITMAP
E0
ENDCHAR
STARTCHAR period
ENCODING 46
SWIDTH 500 0
DWIDTH 4 0
BBX 1 1 1 0
BITMAP
80
ENDCHAR
STARTCHAR slash
ENCODING 47
SWIDTH 500 0
DWIDTH 4 0
BBX 3 3 0 1
BITMAP
20
40
80
ENDCHAR
STARTCHAR zero
ENCODING 48
SWIDTH 500 0
DWIDTH 4 0
BBX 3 5 0 0
BITMAP
40
A0
E0
A0
40
ENDCHAR
STARTCHAR one
ENCODING 49
SWIDTH 500 0
DWIDTH 4 0
BBX 3 5 0 0
BITMAP
40
C0
40
40
E0
ENDCHAR
STARTCHAR two
ENCODING 50
SWIDTH 500 0
DWIDTH 4 0
BBX 3 5 0 0
BITMAP
C0
20
40
80
E0
ENDCHAR
STARTCHAR three
ENCODING 51
SWIDTH 500 0
DWIDTH 4 0
BBX 3 5 0 0
BITMAP
C0
20
40
20
C0
ENDCHAR
STARTCHAR four
ENCODING 52
SWIDTH 500 0
DWIDTH 4 0
BBX 3 5 0 0
BITMAP
20
60
A0
E0
20
ENDCHAR
STARTCHAR five
ENCODING 53
SWIDTH 500 0
DWIDTH 4 0
BBX 3 5 0 0
BITMAP
E0
80
C0
20
C0
ENDCHAR
STARTCHAR six
ENCODING 54
SWIDTH 500 0
DWIDTH 4 0
BBX 3 5 0 0
BITMAP
60
80
C0
A0
40
ENDCHAR
STARTCHAR seven
ENCODING 55
SWIDTH 500 0
DWIDTH 4 0
BBX 3 5 0 0
BITMAP
E0
20
40
40
40
ENDCHAR
STARTCHAR eight
ENCODING 56
SWIDTH 500 0
DWIDTH 4 0
BBX 3 5 0 0
BITMAP
40
A0
40
A0
40
ENDCHAR
STARTCHAR nine
ENCODING 57
SWIDTH 500 0
DWIDTH 4 0
BBX 3 5 0 0
BITMAP
40
A0
60
20
C0
ENDCHAR
STARTCHAR colon
ENCODING 58
SWIDTH 500 0
DWIDTH 4 0
BBX 1 3 1 1
BITMAP
80
00
80
ENDCHAR
STARTCHAR semicolon
ENCODING 59
SWIDTH 500 0
DWIDTH 4 0
BBX 2 4 0 0
BITMAP
40
00
40
80
ENDCHAR
STARTCHAR less
ENCODING 60
SWIDTH 500 0
DWIDTH 4 0
BBX 3 5 0 0
BITMAP
20
40
80
40
20
ENDCHAR
STARTCHAR equal
ENCODING 61
SWIDTH 500 0
DWIDTH 4 0
BBX 3 3 0 1
BITMAP
E0
00
E0
ENDCHAR
STARTCHAR greater
ENCODING 62
SWIDTH 500 0
DWIDTH 4 0
BBX 3 5 0 0
BITMAP
80
40
20
40
80
ENDCHAR
STARTCHAR question
ENCODING 63
SWIDTH 500 0
DWIDTH 4 0
BBX 3 6 0 0
BITMAP
40
A0
20
40
00
40
ENDCHAR
STARTCHAR at
ENCODING 64
SWIDTH 500 0
DWIDTH 4 0
BBX 3 6 0 0
BITMAP
40
A0
20
60
A0
40
ENDCHAR
STARTCHAR A
ENCODING 65
SWIDTH 500 0
DWIDTH 4 0
BBX 3 6 0 0
BITMAP
40
A0
A0
E0
A0
A0
ENDCHAR
STARTCHAR B
ENCODING 66
SWIDTH 500 0
DWIDTH 4 0
BBX 3 6 0 0
BITMAP
C0
A0
C0
A0
A0
C0
ENDCHAR
STARTCHAR C
ENCODING 67
SWIDTH 500 0
DWIDTH 4 0
BBX 3 6 0 0
BITMAP
60
80
80
80
80
60
ENDCHAR
STARTCHAR D
ENCODING 68
SWIDTH 500 0
DWIDTH 4 0
BBX 3 6 0 0
BITMAP
C0
A0
A0
A0
A0
C0
ENDCHAR
STARTCHAR E
ENCODING 69
SWIDTH 500 0
DWIDTH 4 0
BBX 3 6 0 0
BITMAP
E0
80
C0
80
80
E0
ENDCHAR
STARTCHAR F
ENCODING 70
SWIDTH 500 0
DWIDTH 4 0
BBX 3 6 0 0
BITMAP
E0
80
C0
80
80
80
ENDCHAR
STARTCHAR G
ENCODING 71
SWIDTH 500 0
DWIDTH 4 0
BBX 3 6 0 0
BITMAP
60
80
80
A0
A0
60
ENDCHAR
STARTCHAR H
ENCODING 72
SWIDTH 500 0
DWIDTH 4 0
BBX 3 6 0 0
BITMAP
A0
A0
A0
E0
A0
A0
ENDCHAR
STARTCHAR I
ENCODING 73
SWIDTH 500 0
DWIDTH 4 0
BBX 3 6 0 0
BITMAP
E0
40
40
40
40
E0
ENDCHAR
STARTCHAR J
ENCODING 74
SWIDTH 500 0
DWIDTH 4 0
BBX 3 6 0 0
BITMAP
20
20
20
20
A0
40
ENDCHAR
STARTCHAR K
ENCODING 75
SWIDTH 500 0
DWIDTH 4 0
BBX 3 6 0 0
BITMAP
A0
A0
C0
A0
A0
A0
ENDCHAR
STARTCHAR L
ENCODING 76
SWIDTH 500 0
DWIDTH 4 0
BBX 3 6 0 0
BITMAP
80
80
80
80
80
E0
ENDCHAR
STARTCHAR M
ENCODING 77
SWIDTH 500 0
DWIDTH 4 0
BBX 3 6 0 0
BITMAP
A0
E0
E0
A0
A0
A0
ENDCHAR
STARTCHAR N
ENCODING 78
SWIDTH 500 0
DWIDTH 4 0
BBX 3 6 0 0
BITMAP
C0
A0
A0
A0
A0
A0
ENDCHAR
STARTCHAR O
ENCODING 79
SWIDTH 500 0
DWIDTH 4 0
BBX 3 6 0 0
BITMAP
40
A0
A0
A0
A0
40
ENDCHAR
STARTCHAR P
ENCODING 80
SWIDTH 500 0
DWIDTH 4 0
BBX 3 6 0 0
BITMAP
C0
A0
A0
C0
80
80
ENDCHAR
STARTCHAR Q
ENCODING 81
SWIDTH 500 0
DWIDTH 4 0
BBX 3 7 0 -1
BITMAP
40
A0
A0
A0
A0
40
20
ENDCHAR
STARTCHAR R
ENCODING 82
SWIDTH 500 0
DWIDTH 4 0
BBX 3 6 0 0
BITMAP
C0
A0
A0
C0
A0
A0
ENDCHAR
STARTCHAR S
ENCODING 83
SWIDTH 500 0
DWIDTH 4 0
BBX 3 6 0 0
BITMAP
60
80
40
20
20
C0
ENDCHAR
STARTCHAR T
ENCODING 84
SWIDTH 500 0
DWIDTH 4 0
BBX 3 6 0 0
BITMAP
E0
40
40
40
40
40
ENDCHAR
STARTCHAR U
ENCODING 85
SWIDTH 500 0
DWIDTH 4 0
BBX 3 6 0 0
BITMAP
A0
A0
A0
A0
A0
E0
ENDCHAR
STARTCHAR V
ENCODING 86
SWIDTH 500 0
DWIDTH 4 0
BBX 3 6 0 0
BITMAP
A0
A0
A0
A0
C0
80
ENDCHAR
STARTCHAR W
ENCODING 87
SWIDTH 500 0
DWIDTH 4 0
BBX 3 6 0 0
BITMAP
A0
A0
A0
E0
E0
A0
ENDCHAR
STARTCHAR X
ENCODING 88
SWIDTH 500 0
DWIDTH 4 0
BBX 3 6 0 0
BITMAP
A0
A0
40
40
A0
A0
ENDCHAR
STARTCHAR Y
ENCODING 89
SWIDTH 500 0
DWIDTH 4 0
BBX 3 6 0 0
BITMAP
A0
A0
40
40
40
40
ENDCHAR
STARTCHAR Z
ENCODING 90
SWIDTH 500 0
DWIDTH 4 0
BBX 3 6 0 0
BITMAP
E0
20
40
40
80
E0
ENDCHAR
STARTCHAR bracketleft
ENCODING 91
SWIDTH 500 0
DWIDTH 4 0
BBX 2 7 1 -1
BITMAP
C0
80
80
80
80
80
C0
ENDCHAR
STARTCHAR backslash
ENCODING 92
SWIDTH 500 0
DWIDTH 4 0
BBX 3 3 0 1
BITMAP
80
40
20
ENDCHAR
STARTCHAR bracketright
ENCODING 93
SWIDTH 500 0
DWIDTH 4 0
BBX 2 7 0 -1
BITMAP
C0
40
40
40
40
40
C0
ENDCHAR
STARTCHAR asciicircum
ENCODING 94
SWIDTH 500 0
DWIDTH 4 0
BBX 3 2 0 4
BITMAP
40
A0
ENDCHAR
STARTCHAR underscore
ENCODING 95
SWIDTH 500 0
DWIDTH 4 0
BBX 3 1 0 -1
BITMAP
E0
ENDCHAR
STARTCHAR grave
ENCODING 96
SWIDTH 500 0
DWIDTH 4 0
BBX 2 2 1 4
BITMAP
80
40
ENDCHAR
STARTCHAR a
ENCODING 97
SWIDTH 500 0
DWIDTH 4 0
BBX 3 4 0 0
BITMAP
60
A0
A0
60
ENDCHAR
STARTCHAR b
ENCODING 98
SWIDTH 500 0
DWIDTH 4 0
BBX 3 6 0 0
BITMAP
80
80
C0
A0
A0
C0
ENDCHAR
STARTCHAR c
ENCODING 99
SWIDTH 500 0
DWIDTH 4 0
BBX 3 4 0 0
BITMAP
60
80
80
60
ENDCHAR
STARTCHAR d
ENCODING 100
SWIDTH 500 0
DWIDTH 4 0
BBX 3 6 0 0
BITMAP
20
20
60
A0
A0
60
ENDCHAR
STARTCHAR e
ENCODING 101
SWIDTH 500 0
DWIDTH 4 0
BBX 3 4 0 0
BITMAP
60
E0
80
60
ENDCHAR
STARTCHAR f
ENCODING 102
SWIDTH 500 0
DWIDTH 4 0
BBX 3 6 0 0
BITMAP
60
40
E0
40
40
40
ENDCHAR
STARTCHAR g
ENCODING 103
SWIDTH 500 0
DWIDTH 4 0
BBX 3 5 0 -1
BITMAP
60
A0
60
20
C0
ENDCHAR
STARTCHAR h
ENCODING 104
SWIDTH 500 0
DWIDTH 4 0
BBX 3 6 0 0
BITMAP
80
80
C0
A0
A0
A0
ENDCHAR
STARTCHAR i
ENCODING 105
SWIDTH 500 0
DWIDTH 4 0
BBX 1 6 1 0
BITMAP
80
00
80
80
80
80
ENDCHAR
STARTCHAR j
ENCODING 106
SWIDTH 500 0
DWIDTH 4 0
BBX 2 7 0 -1
BITMAP
40
00
40
40
40
40
80
ENDCHAR
STARTCHAR k
ENCODING 107
SWIDTH 500 0
DWIDTH 4 0
BBX 3 6 0 0
BITMAP
80
80
A0
C0
A0
A0
ENDCHAR
STARTCHAR l
ENCODING 108
SWIDTH 500 0
DWIDTH 4 0
BBX 2 6 0 0
BITMAP
C0
40
40
40
40
40
ENDCHAR
STARTCHAR m
ENCODING 109
SWIDTH 500 0
DWIDTH 4 0
BBX 3 4 0 0
BITMAP
C0
E0
E0
A0
ENDCHAR
STARTCHAR n
ENCODING 110
SWIDTH 500 0
DWIDTH 4 0
BBX 3 4 0 0
BITMAP
C0
A0
A0
A0
ENDCHAR
STARTCHAR o
ENCODING 111
SWIDTH 500 0
DWIDTH 4 0
BBX 3 4 0 0
BITMAP
40
A0
A0
40
ENDCHAR
STARTCHAR p
ENCODING 112
SWIDTH 500 0
DWIDTH 4 0
BBX 3 5 0 -1
BITMAP
C0
A0
A0
C0
80
ENDCHAR
STARTCHAR q
ENCODING 113
SWIDTH 500 0
DWIDTH 4 0
BBX 3 5 0 -1
BITMAP
60
A0
A0
60
20
ENDCHAR
STARTCHAR r
ENCODING 114
SWIDTH 500 0
DWIDTH 4 0
BBX 3 4 0 0
BITMAP
A0
C0
80
80
ENDCHAR
STARTCHAR s
ENCODING 115
SWIDTH 500 0
DWIDTH 4 0
BBX 3 4 0 0
BITMAP
60
C0
60
C0
ENDCHAR
STARTCHAR t
ENCODING 116
SWIDTH 500 0
DWIDTH 4 0
BBX 3 5 0 0
BITMAP
40
E0
40
40
60
ENDCHAR
STARTCHAR u
ENCODING 117
SWIDTH 500 0
DWIDTH 4 0
BBX 3 4 0 0
BITMAP
A0
A0
A0
E0
ENDCHAR
STARTCHAR v
ENCODING 118
SWIDTH 500 0
DWIDTH 4 0
BBX 3 4 0 0
BITMAP
A0
A0
C0
80
ENDCHAR
STARTCHAR w
ENCODING 119
SWIDTH 500 0
DWIDTH 4 0
BBX 3 4 0 0
BITMAP
A0
A0
E0
E0
ENDCHAR
STARTCHAR x
ENCODING 120
SWIDTH 500 0
DWIDTH 4 0
BBX 3 4 0 0
BITMAP
A0
40
40
A0
ENDCHAR
STARTCHAR y
ENCODING 121
SWIDTH 500 0
DWIDTH 4 0
BBX 3 5 0 -1
BITMAP
A0
A0
60
20
C0
ENDCHAR
STARTCHAR z
ENCODING 122
SWIDTH 500 0
DWIDTH 4 0
BBX 3 4 0 0
BITMAP
E0
20
40
E0
ENDCHAR
STARTCHAR braceleft
ENCODING 123
SWIDTH 500 0
DWIDTH 4 0
BBX 3 7 0 -1
BITMAP
20
40
40
80
40
40
20
ENDCHAR
STARTCHAR bar
ENCODING 124
SWIDTH 500 0
DWIDTH 4 0
BBX 1 7 1 -1
BITMAP
80
80
80
80
80
80
80
ENDCHAR
STARTCHAR braceright
ENCODING 125
SWIDTH 500 0
DWIDTH 4 0
BBX 3 7 0 -1
BITMAP
80
40
40
20
40
40
80
ENDCHAR
STARTCHAR asciitilde
ENCODING 126
SWIDTH 500 0
DWIDTH 4 0
BBX 3 2 0 4
BITMAP
C0
60
ENDCHAR
STARTCHAR exclamdown
ENCODING 161
SWIDTH 500 0
DWIDTH 4 0
BBX 1 6 1 -1
BITMAP
80
00
80
80
80
80
ENDCHAR
STARTCHAR cent
ENCODING 162
SWIDTH 500 0
DWIDTH 4 0
BBX 3 5 0 0
BITMAP
40
E0
C0
E0
40
ENDCHAR
STARTCHAR sterling
ENCODING 163
SWIDTH 500 0
DWIDTH 4 0
BBX 3 6 0 0
BITMAP
60
40
E0
40
C0
E0
ENDCHAR
STARTCHAR currency
ENCODING 164
SWIDTH 1000 0
DWIDTH 4 0
BBX 3 6 0 0
BITMAP
A0
40
A0
A0
40
A0
ENDCHAR
STARTCHAR yen
ENCODING 165
SWIDTH 500 0
DWIDTH 4 0
BBX 3 6 0 0
BITMAP
A0
40
E0
40
E0
40
ENDCHAR
STARTCHAR brokenbar
ENCODING 166
SWIDTH 500 0
DWIDTH 4 0
BBX 1 7 1 -1
BITMAP
80
80
80
00
80
80
80
ENDCHAR
STARTCHAR section
ENCODING 167
SWIDTH 1000 0
DWIDTH 4 0
BBX 3 7 0 -1
BITMAP
60
80
40
A0
40
20
C0
ENDCHAR
STARTCHAR dieresis
ENCODING 168
SWIDTH 1000 0
DWIDTH 4 0
BBX 3 1 0 5
BITMAP
A0
ENDCHAR
STARTCHAR copyright
ENCODING 169
SWIDTH 500 0
DWIDTH 4 0
BBX 3 4 0 1
BITMAP
60
80
80
60
ENDCHAR
STARTCHAR ordfeminine
ENCODING 170
SWIDTH 500 0
DWIDTH 4 0
BBX 3 5 0 1
BITMAP
60
A0
60
00
E0
ENDCHAR
STARTCHAR guillemotleft
ENCODING 171
SWIDTH 500 0
DWIDTH 4 0
BBX 3 5 0 0
BITMAP
20
60
C0
60
20
ENDCHAR
STARTCHAR logicalnot
ENCODING 172
SWIDTH 490 0
DWIDTH 4 0
BBX 3 2 0 1
BITMAP
E0
20
ENDCHAR
STARTCHAR uni00AD
ENCODING 173
SWIDTH 500 0
DWIDTH 4 0
BBX 3 1 0 2
BITMAP
E0
ENDCHAR
STARTCHAR registered
ENCODING 174
SWIDTH 500 0
DWIDTH 4 0
BBX 3 4 0 1
BITMAP
C0
A0
C0
A0
ENDCHAR
STARTCHAR macron
ENCODING 175
SWIDTH 500 0
DWIDTH 4 0
BBX 3 1 0 5
BITMAP
E0
ENDCHAR
STARTCHAR degree
ENCODING 176
SWIDTH 1000 0
DWIDTH 4 0
BBX 3 3 0 3
BITMAP
40
A0
40
ENDCHAR
STARTCHAR plusminus
ENCODING 177
SWIDTH 1000 0
DWIDTH 4 0
BBX 3 5 0 0
BITMAP
40
E0
40
00
E0
ENDCHAR
STARTCHAR uni00B2
ENCODING 178
SWIDTH 500 0
DWIDTH 4 0
BBX 3 4 0 2
BITMAP
C0
20
40
E0
ENDCHAR
STARTCHAR uni00B3
ENCODING 179
SWIDTH 500 0
DWIDTH 4 0
BBX 3 4 0 2
BITMAP
C0
60
20
C0
ENDCHAR
STARTCHAR acute
ENCODING 180
SWIDTH 1000 0
DWIDTH 4 0
BBX 2 2 1 4
BITMAP
40
80
ENDCHAR
STARTCHAR uni00B5
ENCODING 181
SWIDTH 500 0
DWIDTH 4 0
BBX 3 5 0 -1
BITMAP
A0
A0
A0
E0
80
ENDCHAR
STARTCHAR paragraph
ENCODING 182
SWIDTH 1000 0
DWIDTH 4 0
BBX 3 6 0 0
BITMAP
60
A0
A0
60
60
60
ENDCHAR
STARTCHAR periodcentered
ENCODING 183
SWIDTH 500 0
DWIDTH 4 0
BBX 1 1 1 2
BITMAP
80
ENDCHAR
STARTCHAR cedilla
ENCODING 184
SWIDTH 500 0
DWIDTH 4 0
BBX 2 2 0 -1
BITMAP
40
C0
ENDCHAR
STARTCHAR uni00B9
ENCODING 185
SWIDTH 500 0
DWIDTH 4 0
BBX 3 4 0 2
BITMAP
40
C0
40
E0
ENDCHAR
STARTCHAR ordmasculine
ENCODING 186
SWIDTH 500 0
DWIDTH 4 0
BBX 3 5 0 1
BITMAP
40
A0
40
00
E0
ENDCHAR
STARTCHAR guillemotright
ENCODING 187
SWIDTH 500 0
DWIDTH 4 0
BBX 3 5 0 0
BITMAP
80
C0
60
C0
80
ENDCHAR
STARTCHAR onequarter
ENCODING 188
SWIDTH 500 0
DWIDTH 4 0
BBX 3 7 0 -1
BITMAP
80
80
80
20
60
E0
20
ENDCHAR
STARTCHAR onehalf
ENCODING 189
SWIDTH 500 0
DWIDTH 4 0
BBX 3 7 0 -1
BITMAP
80
80
00
60
20
40
60
ENDCHAR
STARTCHAR threequarters
ENCODING 190
SWIDTH 500 0
DWIDTH 4 0
BBX 3 7 0 -1
BITMAP
C0
40
C0
20
60
E0
20
ENDCHAR
STARTCHAR questiondown
ENCODING 191
SWIDTH 500 0
DWIDTH 4 0
BBX 3 6 0 -1
BITMAP
40
00
40
80
A0
40
ENDCHAR
STARTCHAR Agrave
ENCODING 192
SWIDTH 500 0
DWIDTH 4 0
BBX 3 7 0 -1
BITMAP
80
40
00
40
A0
E0
A0
ENDCHAR
STARTCHAR Aacute
ENCODING 193
SWIDTH 500 0
DWIDTH 4 0
BBX 3 7 0 -1
BITMAP
20
40
00
40
A0
E0
A0
ENDCHAR
STARTCHAR Acircumflex
ENCODING 194
SWIDTH 500 0
DWIDTH 4 0
BBX 3 7 0 -1
BITMAP
40
A0
00
40
A0
E0
A0
ENDCHAR
STARTCHAR Atilde
ENCODING 195
SWIDTH 500 0
DWIDTH 4 0
BBX 3 7 0 -1
BITMAP
C0
60
00
40
A0
E0
A0
ENDCHAR
STARTCHAR Adieresis
ENCODING 196
SWIDTH 500 0
DWIDTH 4 0
BBX 3 6 0 -1
BITMAP
A0
00
40
A0
E0
A0
ENDCHAR
STARTCHAR Aring
ENCODING 197
SWIDTH 500 0
DWIDTH 4 0
BBX 3 7 0 -1
BITMAP
40
A0
40
40
A0
E0
A0
ENDCHAR
STARTCHAR AE
ENCODING 198
SWIDTH 875 0
DWIDTH 4 0
BBX 3 6 0 0
BITMAP
60
40
E0
C0
C0
E0
ENDCHAR
STARTCHAR Ccedilla
ENCODING 199
SWIDTH 500 0
DWIDTH 4 0
BBX 3 7 0 -1
BITMAP
60
80
80
80
80
60
C0
ENDCHAR
STARTCHAR Egrave
ENCODING 200
SWIDTH 500 0
DWIDTH 4 0
BBX 3 7 0 -1
BITMAP
80
40
00
E0
C0
80
E0
ENDCHAR
STARTCHAR Eacute
ENCODING 201
SWIDTH 500 0
DWIDTH 4 0
BBX 3 7 0 -1
BITMAP
20
40
00
E0
C0
80
E0
ENDCHAR
STARTCHAR Ecircumflex
ENCODING 202
SWIDTH 500 0
DWIDTH 4 0
BBX 3 7 0 -1
BITMAP
40
A0
00
E0
C0
80
E0
ENDCHAR
STARTCHAR Edieresis
ENCODING 203
SWIDTH 500 0
DWIDTH 4 0
BBX 3 6 0 -1
BITMAP
A0
00
E0
C0
80
E0
ENDCHAR
STARTCHAR Igrave
ENCODING 204
SWIDTH 500 0
DWIDTH 4 0
BBX 3 7 0 -1
BITMAP
80
40
00
E0
40
40
E0
ENDCHAR
STARTCHAR Iacute
ENCODING 205
SWIDTH 500 0
DWIDTH 4 0
BBX 3 7 0 -1
BITMAP
20
40
00
E0
40
40
E0
ENDCHAR
STARTCHAR Icircumflex
ENCODING 206
SWIDTH 500 0
DWIDTH 4 0
BBX 3 7 0 -1
BITMAP
40
A0
00
E0
40
40
E0
ENDCHAR
STARTCHAR Idieresis
ENCODING 207
SWIDTH 500 0
DWIDTH 4 0
BBX 3 6 0 -1
BITMAP
A0
00
E0
40
40
E0
ENDCHAR
STARTCHAR Eth
ENCODING 208
SWIDTH 500 0
DWIDTH 4 0
BBX 3 6 0 0
BITMAP
C0
A0
A0
E0
A0
C0
ENDCHAR
STARTCHAR Ntilde
ENCODING 209
SWIDTH 500 0
DWIDTH 4 0
BBX 3 7 0 -1
BITMAP
C0
60
00
C0
A0
A0
A0
ENDCHAR
STARTCHAR Ograve
ENCODING 210
SWIDTH 500 0
DWIDTH 4 0
BBX 3 7 0 -1
BITMAP
80
40
00
40
A0
A0
40
ENDCHAR
STARTCHAR Oacute
ENCODING 211
SWIDTH 500 0
DWIDTH 4 0
BBX 3 7 0 -1
BITMAP
20
40
00
40
A0
A0
40
ENDCHAR
STARTCHAR Ocircumflex
ENCODING 212
SWIDTH 500 0
DWIDTH 4 0
BBX 3 7 0 -1
BITMAP
40
A0
00
40
A0
A0
40
ENDCHAR
STARTCHAR Otilde
ENCODING 213
SWIDTH 500 0
DWIDTH 4 0
BBX 3 7 0 -1
BITMAP
C0
60
00
40
A0
A0
40
ENDCHAR
STARTCHAR Odieresis
ENCODING 214
SWIDTH 500 0
DWIDTH 4 0
BBX 3 6 0 -1
BITMAP
A0
00
40
A0
A0
40
ENDCHAR
STARTCHAR multiply
ENCODING 215
SWIDTH 1000 0
DWIDTH 4 0
BBX 3 3 0 1
BITMAP
A0
40
A0
ENDCHAR
STARTCHAR Oslash
ENCODING 216
SWIDTH 500 0
DWIDTH 4 0
BBX 3 6 0 0
BITMAP
20
C0
A0
A0
60
80
ENDCHAR
STARTCHAR Ugrave
ENCODING 217
SWIDTH 500 0
DWIDTH 4 0
BBX 3 7 0 -1
BITMAP
80
40
00
A0
A0
A0
E0
ENDCHAR
STARTCHAR Uacute
ENCODING 218
SWIDTH 500 0
DWIDTH 4 0
BBX 3 7 0 -1
BITMAP
20
40
00
A0
A0
A0
E0
ENDCHAR
STARTCHAR Ucircumflex
ENCODING 219
SWIDTH 500 0
DWIDTH 4 0
BBX 3 7 0 -1
BITMAP
40
A0
00
A0
A0
A0
E0
ENDCHAR
STARTCHAR Udieresis
ENCODING 220
SWIDTH 500 0
DWIDTH 4 0
BBX 3 6 0 -1
BITMAP
A0
00
A0
A0
A0
E0
ENDCHAR
STARTCHAR Yacute
ENCODING 221
SWIDTH 500 0
DWIDTH 4 0
BBX 3 7 0 -1
BITMAP
20
40
00
A0
A0
40
40
ENDCHAR
STARTCHAR Thorn
ENCODING 222
SWIDTH 500 0
DWIDTH 4 0
BBX 3 5 0 0
BITMAP
80
C0
A0
C0
80
ENDCHAR
STARTCHAR germandbls
ENCODING 223
SWIDTH 500 0
DWIDTH 4 0
BBX 3 6 0 0
BITMAP
40
A0
C0
A0
A0
C0
ENDCHAR
STARTCHAR agrave
ENCODING 224
SWIDTH 500 0
DWIDTH 4 0
BBX 3 6 0 0
BITMAP
80
40
00
60
A0
60
ENDCHAR
STARTCHAR aacute
ENCODING 225
SWIDTH 500 0
DWIDTH 4 0
BBX 3 6 0 0
BITMAP
20
40
00
60
A0
60
ENDCHAR
STARTCHAR acircumflex
ENCODING 226
SWIDTH 500 0
DWIDTH 4 0
BBX 3 6 0 0
BITMAP
40
A0
00
60
A0
60
ENDCHAR
STARTCHAR atilde
ENCODING 227
SWIDTH 500 0
DWIDTH 4 0
BBX 3 6 0 0
BITMAP
C0
60
00
60
A0
60
ENDCHAR
STARTCHAR adieresis
ENCODING 228
SWIDTH 500 0
DWIDTH 4 0
BBX 3 5 0 0
BITMAP
A0
00
60
A0
60
ENDCHAR
STARTCHAR aring
ENCODING 229
SWIDTH 500 0
DWIDTH 4 0
BBX 3 6 0 0
BITMAP
40
A0
40
60
A0
60
ENDCHAR
STARTCHAR ae
ENCODING 230
SWIDTH 812 0
DWIDTH 4 0
BBX 3 4 0 0
BITMAP
60
E0
C0
E0
ENDCHAR
STARTCHAR ccedilla
ENCODING 231
SWIDTH 500 0
DWIDTH 4 0
BBX 3 5 0 -1
BITMAP
60
80
80
60
C0
ENDCHAR
STARTCHAR egrave
ENCODING 232
SWIDTH 500 0
DWIDTH 4 0
BBX 3 6 0 0
BITMAP
80
40
00
60
C0
60
ENDCHAR
STARTCHAR eacute
ENCODING 233
SWIDTH 500 0
DWIDTH 4 0
BBX 3 6 0 0
BITMAP
20
40
00
60
C0
60
ENDCHAR
STARTCHAR ecircumflex
ENCODING 234
SWIDTH 500 0
DWIDTH 4 0
BBX 3 6 0 0
BITMAP
40
A0
00
60
C0
60
ENDCHAR
STARTCHAR edieresis
ENCODING 235
SWIDTH 500 0
DWIDTH 4 0
BBX 3 5 0 0
BITMAP
A0
00
60
C0
60
ENDCHAR
STARTCHAR igrave
ENCODING 236
SWIDTH 500 0
DWIDTH 4 0
BBX 2 6 0 0
BITMAP
80
40
00
40
40
40
ENDCHAR
STARTCHAR iacute
ENCODING 237
SWIDTH 500 0
DWIDTH 4 0
BBX 2 6 1 0
BITMAP
40
80
00
80
80
80
ENDCHAR
STARTCHAR icircumflex
ENCODING 238
SWIDTH 500 0
DWIDTH 4 0
BBX 3 6 0 0
BITMAP
40
A0
00
40
40
40
ENDCHAR
STARTCHAR idieresis
ENCODING 239
SWIDTH 500 0
DWIDTH 4 0
BBX 3 5 0 0
BITMAP
A0
00
40
40
40
ENDCHAR
STARTCHAR eth
ENCODING 240
SWIDTH 500 0
DWIDTH 4 0
BBX 3 6 0 0
BITMAP
A0
40
A0
60
A0
C0
ENDCHAR
STARTCHAR ntilde
ENCODING 241
SWIDTH 500 0
DWIDTH 4 0
BBX 3 6 0 0
BITMAP
C0
60
00
C0
A0
A0
ENDCHAR
STARTCHAR ograve
ENCODING 242
SWIDTH 500 0
DWIDTH 4 0
BBX 3 6 0 0
BITMAP
80
40
00
40
A0
40
ENDCHAR
STARTCHAR oacute
ENCODING 243
SWIDTH 500 0
DWIDTH 4 0
BBX 3 6 0 0
BITMAP
20
40
00
40
A0
40
ENDCHAR
STARTCHAR ocircumflex
ENCODING 244
SWIDTH 500 0
DWIDTH 4 0
BBX 3 6 0 0
BITMAP
40
A0
00
40
A0
40
ENDCHAR
STARTCHAR otilde
ENCODING 245
SWIDTH 500 0
DWIDTH 4 0
BBX 3 6 0 0
BITMAP
C0
60
00
40
A0
40
ENDCHAR
STARTCHAR odieresis
ENCODING 246
SWIDTH 500 0
DWIDTH 4 0
BBX 3 5 0 0
BITMAP
A0
00
40
A0
40
ENDCHAR
STARTCHAR divide
ENCODING 247
SWIDTH 1000 0
DWIDTH 4 0
BBX 3 5 0 0
BITMAP
40
00
E0
00
40
ENDCHAR
STARTCHAR oslash
ENCODING 248
SWIDTH 500 0
DWIDTH 4 0
BBX 3 5 0 0
BITMAP
20
C0
A0
60
80
ENDCHAR
STARTCHAR ugrave
ENCODING 249
SWIDTH 500 0
DWIDTH 4 0
BBX 3 6 0 0
BITMAP
80
40
00
A0
A0
E0
ENDCHAR
STARTCHAR uacute
ENCODING 250
SWIDTH 500 0
DWIDTH 4 0
BBX 3 6 0 0
BITMAP
20
40
00
A0
A0
E0
ENDCHAR
STARTCHAR ucircumflex
ENCODING 251
SWIDTH 500 0
DWIDTH 4 0
BBX 3 6 0 0
BITMAP
40
A0
00
A0
A0
E0
ENDCHAR
STARTCHAR udieresis
ENCODING 252
SWIDTH 500 0
DWIDTH 4 0
BBX 3 5 0 0
BITMAP
A0
00
A0
A0
E0
ENDCHAR
STARTCHAR yacute
ENCODING 253
SWIDTH 500 0
DWIDTH 4 0
BBX 3 7 0 -1
BITMAP
20
40
00
A0
60
20
C0
ENDCHAR
STARTCHAR thorn
ENCODING 254
SWIDTH 500 0
DWIDTH 4 0
BBX 3 7 0 -1
BITMAP
80
80
C0
A0
C0
80
80
ENDCHAR
STARTCHAR ydieresis
ENCODING 255
SWIDTH 500 0
DWIDTH 4 0
BBX 3 6 0 -1
BITMAP
A0
00
A0
60
20
C0
ENDCHAR
STARTCHAR Alpha
ENCODING 913
SWIDTH 1000 0
DWIDTH 8 0
BBX 7 7 0 -1
BITMAP
10
10
28
28
7C
44
EE
ENDCHAR
STARTCHAR Beta
ENCODING 914
SWIDTH 1000 0
DWIDTH 8 0
BBX 6 7 1 -1
BITMAP
F8
44
44
78
44
44
F8
ENDCHAR
STARTCHAR Gamma
ENCODING 915
SWIDTH 1000 0
DWIDTH 8 0
BBX 6 7 1 -1
BITMAP
FC
44
40
40
40
40
E0
ENDCHAR
STARTCHAR Delta
ENCODING 916
SWIDTH 1000 0
DWIDTH 8 0
BBX 7 7 0 -1
BITMAP
10
10
28
28
44
44
FE
ENDCHAR
STARTCHAR Epsilon
ENCODING 917
SWIDTH 1000 0
DWIDTH 8 0
BBX 6 7 1 -1
BITMAP
FC
44
50
70
50
44
FC
ENDCHAR
STARTCHAR Zeta
ENCODING 918
SWIDTH 1000 0
DWIDTH 8 0
BBX 6 7 1 -1
BITMAP
FC
88
10
20
40
84
FC
ENDCHAR
STARTCHAR Eta
ENCODING 919
SWIDTH 1000 0
DWIDTH 8 0
BBX 7 7 0 -1
BITMAP
EE
44
44
7C
44
44
EE
ENDCHAR
STARTCHAR Theta
ENCODING 920
SWIDTH 1000 0
DWIDTH 8 0
BBX 7 7 0 -1
BITMAP
38
44
AA
BA
AA
44
38
ENDCHAR
STARTCHAR Iota
ENCODING 921
SWIDTH 1000 0
DWIDTH 8 0
BBX 3 7 2 -1
BITMAP
E0
40
40
40
40
40
E0
ENDCHAR
STARTCHAR Kappa
ENCODING 922
SWIDTH 1000 0
DWIDTH 8 0
BBX 7 7 0 -1
BITMAP
EC
48
50
70
48
44
EE
ENDCHAR
STARTCHAR Lambda
ENCODING 923
SWIDTH 1000 0
DWIDTH 8 0
BBX 7 7 0 -1
BITMAP
10
10
28
28
44
44
EE
ENDCHAR
STARTCHAR Mu
ENCODING 924
SWIDTH 1000 0
DWIDTH 8 0
BBX 7 7 0 -1
BITMAP
C6
6C
6C
54
54
44
EE
ENDCHAR
STARTCHAR Nu
ENCODING 925
SWIDTH 1000 0
DWIDTH 8 0
BBX 7 7 0 -1
BITMAP
CE
64
54
54
4C
44
E4
ENDCHAR
STARTCHAR Xi
ENCODING 926
SWIDTH 1000 0
DWIDTH 8 0
BBX 6 7 1 -1
BITMAP
FC
84
48
78
48
84
FC
ENDCHAR
STARTCHAR Omicron
ENCODING 927
SWIDTH 1000 0
DWIDTH 8 0
BBX 6 7 1 -1
BITMAP
30
48
84
84
84
48
30
ENDCHAR
STARTCHAR Pi
ENCODING 928
SWIDTH 1000 0
DWIDTH 8 0
BBX 7 7 0 -1
BITMAP
FE
44
44
44
44
44
EE
ENDCHAR
STARTCHAR Rho
ENCODING 929
SWIDTH 1000 0
DWIDTH 8 0
BBX 6 7 1 -1
BITMAP
F8
44
44
78
40
40
E0
ENDCHAR
STARTCHAR Sigma
ENCODING 931
SWIDTH 1000 0
DWIDTH 8 0
BBX 6 7 1 -1
BITMAP
FC
44
20
10
20
44
FC
ENDCHAR
STARTCHAR Tau
ENCODING 932
SWIDTH 1000 0
DWIDTH 8 0
BBX 7 7 0 -1
BITMAP
FE
92
10
10
10
10
38
ENDCHAR
STARTCHAR Upsilon
ENCODING 933
SWIDTH 1000 0
DWIDTH 8 0
BBX 7 7 0 -1
BITMAP
6C
92
10
10
10
10
38
ENDCHAR
STARTCHAR Phi
ENCODING 934
SWIDTH 1000 0
DWIDTH 8 0
BBX 7 7 0 -1
BITMAP
38
10
7C
92
7C
10
38
ENDCHAR
STARTCHAR Chi
ENCODING 935
SWIDTH 1000 0
DWIDTH 8 0
BBX 7 7 0 -1
BITMAP
EE
44
28
10
28
44
EE
ENDCHAR
STARTCHAR Psi
ENCODING 936
SWIDTH 1000 0
DWIDTH 8 0
BBX 7 7 0 -1
BITMAP
BA
54
54
38
10
10
38
ENDCHAR
STARTCHAR Omega
ENCODING 937
SWIDTH 1000 0
DWIDTH 8 0
BBX 7 7 0 -1
BITMAP
38
44
82
82
44
AA
EE
ENDCHAR
STARTCHAR alpha
ENCODING 945
SWIDTH 1000 0
DWIDTH 8 0
BBX 6 5 1 -1
BITMAP
34
4C
88
90
6C
ENDCHAR
STARTCHAR beta
ENCODING 946
SWIDTH 1000 0
DWIDTH 8 0
BBX 6 7 1 -1
BITMAP
18
24
44
58
44
A4
98
ENDCHAR
STARTCHAR gamma
ENCODING 947
SWIDTH 1000 0
DWIDTH 8 0
BBX 6 5 1 -1
BITMAP
64
98
10
20
20
ENDCHAR
STARTCHAR delta
ENCODING 948
SWIDTH 1000 0
DWIDTH 8 0
BBX 6 7 1 -1
BITMAP
18
24
30
48
88
88
70
ENDCHAR
STARTCHAR epsilon
ENCODING 949
SWIDTH 1000 0
DWIDTH 8 0
BBX 5 5 1 -1
BITMAP
38
40
70
80
78
ENDCHAR
STARTCHAR zeta
ENCODING 950
SWIDTH 1000 0
DWIDTH 8 0
BBX 5 7 1 -1
BITMAP
20
38
40
80
70
08
70
ENDCHAR
STARTCHAR eta
ENCODING 951
SWIDTH 1000 0
DWIDTH 8 0
BBX 6 6 1 -1
BITMAP
58
A4
24
48
48
08
ENDCHAR
STARTCHAR theta
ENCODING 952
SWIDTH 1000 0
DWIDTH 8 0
BBX 5 7 1 -1
BITMAP
30
48
48
F8
90
90
60
ENDCHAR
STARTCHAR iota
ENCODING 953
SWIDTH 1000 0
DWIDTH 8 0
BBX 3 5 2 -1
BITMAP
40
40
80
A0
40
ENDCHAR
STARTCHAR kappa
ENCODING 954
SWIDTH 1000 0
DWIDTH 8 0
BBX 5 5 1 -1
BITMAP
48
50
60
A0
98
ENDCHAR
STARTCHAR lambda
ENCODING 955
SWIDTH 1000 0
DWIDTH 8 0
BBX 6 7 1 -1
BITMAP
60
10
10
10
30
50
8C
ENDCHAR
STARTCHAR mu
ENCODING 956
SWIDTH 1000 0
DWIDTH 8 0
BBX 6 5 1 -1
BITMAP
24
24
48
74
80
ENDCHAR
STARTCHAR nu
ENCODING 957
SWIDTH 1000 0
DWIDTH 8 0
BBX 6 5 1 -1
BITMAP
84
44
48
50
60
ENDCHAR
STARTCHAR xi
ENCODING 958
SWIDTH 1000 0
DWIDTH 8 0
BBX 6 7 1 -1
BITMAP
20
3C
40
78
80
7C
0C
ENDCHAR
STARTCHAR omicron
ENCODING 959
SWIDTH 1000 0
DWIDTH 8 0
BBX 5 5 2 -1
BITMAP
30
48
88
90
60
ENDCHAR
STARTCHAR pi
ENCODING 960
SWIDTH 1000 0
DWIDTH 8 0
BBX 6 5 1 -1
BITMAP
7C
A8
28
48
8C
ENDCHAR
STARTCHAR rho
ENCODING 961
SWIDTH 1000 0
DWIDTH 8 0
BBX 6 5 1 -1
BITMAP
38
44
44
B8
80
ENDCHAR
STARTCHAR sigma
ENCODING 963
SWIDTH 1000 0
DWIDTH 8 0
BBX 6 5 1 -1
BITMAP
1C
70
88
88
70
ENDCHAR
STARTCHAR tau
ENCODING 964
SWIDTH 1000 0
DWIDTH 8 0
BBX 6 5 1 -1
BITMAP
7C
90
20
20
10
ENDCHAR
STARTCHAR upsilon
ENCODING 965
SWIDTH 1000 0
DWIDTH 8 0
BBX 6 5 1 -1
BITMAP
64
A4
44
48
30
ENDCHAR
STARTCHAR phi
ENCODING 966
SWIDTH 1000 0
DWIDTH 8 0
BBX 6 7 1 -1
BITMAP
08
08
78
94
94
78
20
ENDCHAR
STARTCHAR chi
ENCODING 967
SWIDTH 1000 0
DWIDTH 8 0
BBX 6 7 1 -1
BITMAP
24
58
10
10
30
50
8C
ENDCHAR
STARTCHAR psi
ENCODING 968
SWIDTH 1000 0
DWIDTH 8 0
BBX 6 7 1 -1
BITMAP
08
08
D0
54
94
78
20
ENDCHAR
STARTCHAR omega
ENCODING 969
SWIDTH 1000 0
DWIDTH 8 0
BBX 6 5 1 -1
BITMAP
44
94
94
B4
48
ENDCHAR
STARTCHAR afii10023
ENCODING 1025
SWIDTH 1000 0
DWIDTH 8 0
BBX 6 7 1 -1
BITMAP
48
FC
54
70
50
44
FC
ENDCHAR
STARTCHAR afii10017
ENCODING 1040
SWIDTH 1000 0
DWIDTH 8 0
BBX 7 7 0 -1
BITMAP
10
10
28
28
7C
44
EE
ENDCHAR
STARTCHAR afii10018
ENCODING 1041
SWIDTH 1000 0
DWIDTH 8 0
BBX 6 7 1 -1
BITMAP
FC
44
40
78
44
44
F8
ENDCHAR
STARTCHAR afii10019
ENCODING 1042
SWIDTH 1000 0
DWIDTH 8 0
BBX 6 7 1 -1
BITMAP
F8
44
44
78
44
44
F8
ENDCHAR
STARTCHAR afii10020
ENCODING 1043
SWIDTH 1000 0
DWIDTH 8 0
BBX 6 7 1 -1
BITMAP
FC
44
40
40
40
40
E0
ENDCHAR
STARTCHAR afii10021
ENCODING 1044
SWIDTH 1000 0
DWIDTH 8 0
BBX 7 7 0 -1
BITMAP
7E
24
24
24
44
7E
82
ENDCHAR
STARTCHAR afii10022
ENCODING 1045
SWIDTH 1000 0
DWIDTH 8 0
BBX 6 7 1 -1
BITMAP
FC
44
50
70
50
44
FC
ENDCHAR
STARTCHAR afii10024
ENCODING 1046
SWIDTH 1000 0
DWIDTH 8 0
BBX 7 7 0 -1
BITMAP
92
54
54
38
54
54
D6
ENDCHAR
STARTCHAR afii10025
ENCODING 1047
SWIDTH 1000 0
DWIDTH 8 0
BBX 6 7 1 -1
BITMAP
78
84
04
38
04
84
78
ENDCHAR
STARTCHAR afii10026
ENCODING 1048
SWIDTH 1000 0
DWIDTH 8 0
BBX 7 7 0 -1
BITMAP
EE
44
4C
54
64
44
EE
ENDCHAR
STARTCHAR afii10027
ENCODING 1049
SWIDTH 1000 0
DWIDTH 8 0
BBX 7 7 0 -1
BITMAP
28
D6
4C
54
64
44
EE
ENDCHAR
STARTCHAR afii10028
ENCODING 1050
SWIDTH 1000 0
DWIDTH 8 0
BBX 7 7 0 -1
BITMAP
E6
48
48
70
48
44
EE
ENDCHAR
STARTCHAR afii10029
ENCODING 1051
SWIDTH 1000 0
DWIDTH 8 0
BBX 7 7 0 -1
BITMAP
7E
24
24
24
24
A4
CE
ENDCHAR
STARTCHAR afii10030
ENCODING 1052
SWIDTH 1000 0
DWIDTH 8 0
BBX 7 7 0 -1
BITMAP
6C
28
28
54
54
44
EE
ENDCHAR
STARTCHAR afii10031
ENCODING 1053
SWIDTH 1000 0
DWIDTH 8 0
BBX 7 7 0 -1
BITMAP
EE
44
44
7C
44
44
EE
ENDCHAR
STARTCHAR afii10032
ENCODING 1054
SWIDTH 1000 0
DWIDTH 8 0
BBX 6 7 1 -1
BITMAP
30
48
84
84
84
48
30
ENDCHAR
STARTCHAR afii10033
ENCODING 1055
SWIDTH 1000 0
DWIDTH 8 0
BBX 7 7 0 -1
BITMAP
FE
44
44
44
44
44
EE
ENDCHAR
STARTCHAR afii10034
ENCODING 1056
SWIDTH 1000 0
DWIDTH 8 0
BBX 6 7 1 -1
BITMAP
F8
44
44
78
40
40
E0
ENDCHAR
STARTCHAR afii10035
ENCODING 1057
SWIDTH 1000 0
DWIDTH 8 0
BBX 6 7 1 -1
BITMAP
34
4C
80
80
80
44
38
ENDCHAR
STARTCHAR afii10036
ENCODING 1058
SWIDTH 1000 0
DWIDTH 8 0
BBX 7 7 0 -1
BITMAP
FE
92
10
10
10
10
38
ENDCHAR
STARTCHAR afii10037
ENCODING 1059
SWIDTH 1000 0
DWIDTH 8 0
BBX 7 7 0 -1
BITMAP
EE
44
24
28
18
90
E0
ENDCHAR
STARTCHAR afii10038
ENCODING 1060
SWIDTH 1000 0
DWIDTH 8 0
BBX 7 7 0 -1
BITMAP
38
10
7C
92
7C
10
38
ENDCHAR
STARTCHAR afii10039
ENCODING 1061
SWIDTH 1000 0
DWIDTH 8 0
BBX 7 7 0 -1
BITMAP
EE
44
28
10
28
44
EE
ENDCHAR
STARTCHAR afii10040
ENCODING 1062
SWIDTH 1000 0
DWIDTH 8 0
BBX 7 7 0 -1
BITMAP
EE
44
44
44
44
FE
02
ENDCHAR
STARTCHAR afii10041
ENCODING 1063
SWIDTH 1000 0
DWIDTH 8 0
BBX 7 7 0 -1
BITMAP
EE
44
44
4C
34
04
0E
ENDCHAR
STARTCHAR afii10042
ENCODING 1064
SWIDTH 1000 0
DWIDTH 8 0
BBX 7 7 0 -1
BITMAP
D6
54
54
54
54
54
FE
ENDCHAR
STARTCHAR afii10043
ENCODING 1065
SWIDTH 1000 0
DWIDTH 8 0
BBX 7 7 0 -1
BITMAP
D6
54
54
54
54
FE
02
ENDCHAR
STARTCHAR afii10044
ENCODING 1066
SWIDTH 1000 0
DWIDTH 8 0
BBX 7 7 0 -1
BITMAP
F0
A0
20
3C
22
22
7C
ENDCHAR
STARTCHAR afii10045
ENCODING 1067
SWIDTH 1000 0
DWIDTH 8 0
BBX 7 7 0 -1
BITMAP
EE
44
44
74
4C
4C
F6
ENDCHAR
STARTCHAR afii10046
ENCODING 1068
SWIDTH 1000 0
DWIDTH 8 0
BBX 6 7 1 -1
BITMAP
E0
40
40
78
44
44
F8
ENDCHAR
STARTCHAR afii10047
ENCODING 1069
SWIDTH 1000 0
DWIDTH 8 0
BBX 6 7 1 -1
BITMAP
70
88
24
5C
04
88
70
ENDCHAR
STARTCHAR afii10048
ENCODING 1070
SWIDTH 1000 0
DWIDTH 8 0
BBX 7 7 0 -1
BITMAP
EC
52
52
72
52
52
EC
ENDCHAR
STARTCHAR afii10049
ENCODING 1071
SWIDTH 1000 0
DWIDTH 8 0
BBX 6 7 1 -1
BITMAP
7C
88
88
78
48
48
9C
ENDCHAR
STARTCHAR afii10065
ENCODING 1072
SWIDTH 1000 0
DWIDTH 8 0
BBX 6 5 1 -1
BITMAP
70
08
78
88
74
ENDCHAR
STARTCHAR afii10066
ENCODING 1073
SWIDTH 1000 0
DWIDTH 8 0
BBX 5 7 1 -1
BITMAP
38
40
F0
88
88
88
70
ENDCHAR
STARTCHAR afii10067
ENCODING 1074
SWIDTH 1000 0
DWIDTH 8 0
BBX 5 5 1 -1
BITMAP
F0
48
70
48
F0
ENDCHAR
STARTCHAR afii10068
ENCODING 1075
SWIDTH 1000 0
DWIDTH 8 0
BBX 5 5 1 -1
BITMAP
F8
48
40
40
E0
ENDCHAR
STARTCHAR afii10069
ENCODING 1076
SWIDTH 1000 0
DWIDTH 8 0
BBX 6 5 1 -1
BITMAP
7C
28
28
7C
84
ENDCHAR
STARTCHAR afii10070
ENCODING 1077
SWIDTH 1000 0
DWIDTH 8 0
BBX 5 5 1 -1
BITMAP
70
88
F8
80
70
ENDCHAR
STARTCHAR afii10072
ENCODING 1078
SWIDTH 1000 0
DWIDTH 8 0
BBX 7 5 0 -1
BITMAP
92
54
38
54
D6
ENDCHAR
STARTCHAR afii10073
ENCODING 1079
SWIDTH 1000 0
DWIDTH 8 0
BBX 5 5 1 -1
BITMAP
70
88
30
88
70
ENDCHAR
STARTCHAR afii10074
ENCODING 1080
SWIDTH 1000 0
DWIDTH 8 0
BBX 6 5 1 -1
BITMAP
DC
48
58
68
DC
ENDCHAR
STARTCHAR afii10075
ENCODING 1081
SWIDTH 1000 0
DWIDTH 8 0
BBX 6 7 1 -1
BITMAP
50
20
DC
48
58
68
DC
ENDCHAR
STARTCHAR afii10076
ENCODING 1082
SWIDTH 1000 0
DWIDTH 8 0
BBX 6 5 1 -1
BITMAP
EC
50
70
48
EC
ENDCHAR
STARTCHAR afii10077
ENCODING 1083
SWIDTH 1000 0
DWIDTH 8 0
BBX 6 5 1 -1
BITMAP
7C
28
28
A8
DC
ENDCHAR
STARTCHAR afii10078
ENCODING 1084
SWIDTH 1000 0
DWIDTH 8 0
BBX 7 5 0 -1
BITMAP
C6
6C
6C
54
D6
ENDCHAR
STARTCHAR afii10079
ENCODING 1085
SWIDTH 1000 0
DWIDTH 8 0
BBX 6 5 1 -1
BITMAP
DC
48
78
48
DC
ENDCHAR
STARTCHAR afii10080
ENCODING 1086
SWIDTH 1000 0
DWIDTH 8 0
BBX 5 5 1 -1
BITMAP
70
88
88
88
70
ENDCHAR
STARTCHAR afii10081
ENCODING 1087
SWIDTH 1000 0
DWIDTH 8 0
BBX 6 5 1 -1
BITMAP
FC
48
48
48
DC
ENDCHAR
STARTCHAR afii10082
ENCODING 1088
SWIDTH 1000 0
DWIDTH 8 0
BBX 5 5 1 -1
BITMAP
F0
48
70
40
E0
ENDCHAR
STARTCHAR afii10083
ENCODING 1089
SWIDTH 1000 0
DWIDTH 8 0
BBX 5 5 1 -1
BITMAP
70
88
80
88
70
ENDCHAR
STARTCHAR afii10084
ENCODING 1090
SWIDTH 1000 0
DWIDTH 8 0
BBX 5 5 1 -1
BITMAP
F8
A8
20
20
70
ENDCHAR
STARTCHAR afii10085
ENCODING 1091
SWIDTH 1000 0
DWIDTH 8 0
BBX 6 5 1 -1
BITMAP
DC
48
30
20
C0
ENDCHAR
STARTCHAR afii10086
ENCODING 1092
SWIDTH 1000 0
DWIDTH 8 0
BBX 5 7 1 -1
BITMAP
60
20
70
A8
70
20
70
ENDCHAR
STARTCHAR afii10087
ENCODING 1093
SWIDTH 1000 0
DWIDTH 8 0
BBX 5 5 1 -1
BITMAP
D8
50
20
50
D8
ENDCHAR
STARTCHAR afii10088
ENCODING 1094
SWIDTH 1000 0
DWIDTH 8 0
BBX 6 5 1 -1
BITMAP
DC
48
48
7C
04
ENDCHAR
STARTCHAR afii10089
ENCODING 1095
SWIDTH 1000 0
DWIDTH 8 0
BBX 6 5 1 -1
BITMAP
DC
48
38
08
1C
ENDCHAR
STARTCHAR afii10090
ENCODING 1096
SWIDTH 1000 0
DWIDTH 8 0
BBX 7 5 0 -1
BITMAP
D6
54
54
54
FE
ENDCHAR
STARTCHAR afii10091
ENCODING 1097
SWIDTH 1000 0
DWIDTH 8 0
BBX 7 5 0 -1
BITMAP
D6
54
54
FE
02
ENDCHAR
STARTCHAR afii10092
ENCODING 1098
SWIDTH 1000 0
DWIDTH 8 0
BBX 6 5 0 -1
BITMAP
E0
A0
38
24
78
ENDCHAR
STARTCHAR afii10093
ENCODING 1099
SWIDTH 1000 0
DWIDTH 8 0
BBX 7 5 0 -1
BITMAP
EE
44
74
4C
F6
ENDCHAR
STARTCHAR afii10094
ENCODING 1100
SWIDTH 1000 0
DWIDTH 8 0
BBX 5 5 1 -1
BITMAP
E0
40
70
48
F0
ENDCHAR
STARTCHAR afii10095
ENCODING 1101
SWIDTH 1000 0
DWIDTH 8 0
BBX 5 5 1 -1
BITMAP
70
88
38
88
70
ENDCHAR
STARTCHAR afii10096
ENCODING 1102
SWIDTH 1000 0
DWIDTH 8 0
BBX 7 5 0 -1
BITMAP
EC
52
72
52
EC
ENDCHAR
STARTCHAR afii10097
ENCODING 1103
SWIDTH 1000 0
DWIDTH 8 0
BBX 5 5 1 -1
BITMAP
78
90
70
50
B8
ENDCHAR
STARTCHAR afii10071
ENCODING 1105
SWIDTH 1000 0
DWIDTH 8 0
BBX 5 7 1 -1
BITMAP
50
00
70
88
F8
80
70
ENDCHAR
STARTCHAR uni2003
ENCODING 8195
SWIDTH 1000 0
DWIDTH 8 0
BBX 1 1 7 -2
BITMAP
00
ENDCHAR
STARTCHAR uni2010
ENCODING 8208
SWIDTH 1000 0
DWIDTH 8 0
BBX 3 1 2 2
BITMAP
E0
ENDCHAR
STARTCHAR afii00208
ENCODING 8213
SWIDTH 1000 0
DWIDTH 8 0
BBX 8 1 0 2
BITMAP
FF
ENDCHAR
STARTCHAR uni2016
ENCODING 8214
SWIDTH 915 0
DWIDTH 8 0
BBX 3 7 2 -1
BITMAP
A0
A0
A0
A0
A0
A0
A0
ENDCHAR
STARTCHAR dagger
ENCODING 8224
SWIDTH 1000 0
DWIDTH 8 0
BBX 3 7 2 -1
BITMAP
40
E0
40
40
40
40
40
ENDCHAR
STARTCHAR daggerdbl
ENCODING 8225
SWIDTH 1000 0
DWIDTH 8 0
BBX 3 7 2 -1
BITMAP
40
E0
40
40
40
E0
40
ENDCHAR
STARTCHAR twodotenleader
ENCODING 8229
SWIDTH 1000 0
DWIDTH 8 0
BBX 5 1 1 2
BITMAP
88
ENDCHAR
STARTCHAR ellipsis
ENCODING 8230
SWIDTH 1000 0
DWIDTH 8 0
BBX 7 1 0 2
BITMAP
92
ENDCHAR
STARTCHAR perthousand
ENCODING 8240
SWIDTH 1000 0
DWIDTH 8 0
BBX 7 7 0 -1
BITMAP
44
A8
50
20
54
AA
14
ENDCHAR
STARTCHAR minute
ENCODING 8242
SWIDTH 1000 0
DWIDTH 8 0
BBX 3 3 0 3
BITMAP
60
C0
80
ENDCHAR
STARTCHAR second
ENCODING 8243
SWIDTH 1000 0
DWIDTH 8 0
BBX 6 3 0 3
BITMAP
6C
D8
90
ENDCHAR
STARTCHAR uni203B
ENCODING 8251
SWIDTH 1000 0
DWIDTH 8 0
BBX 7 7 0 -1
BITMAP
92
44
28
92
28
44
92
ENDCHAR
STARTCHAR uni203E
ENCODING 8254
SWIDTH 500 0
DWIDTH 4 0
BBX 3 1 0 5
BITMAP
E0
ENDCHAR
STARTCHAR uni2103
ENCODING 8451
SWIDTH 1000 0
DWIDTH 8 0
BBX 7 7 0 -1
BITMAP
40
AE
52
10
10
12
0C
ENDCHAR
STARTCHAR uni212B
ENCODING 8491
SWIDTH 1000 0
DWIDTH 8 0
BBX 7 7 0 -1
BITMAP
10
28
10
28
38
44
EE
ENDCHAR
STARTCHAR arrowleft
ENCODING 8592
SWIDTH 1000 0
DWIDTH 8 0
BBX 7 5 0 0
BITMAP
20
40
FE
40
20
ENDCHAR
STARTCHAR arrowup
ENCODING 8593
SWIDTH 1000 0
DWIDTH 8 0
BBX 5 7 1 -1
BITMAP
20
70
A8
20
20
20
20
ENDCHAR
STARTCHAR arrowright
ENCODING 8594
SWIDTH 1000 0
DWIDTH 8 0
BBX 7 5 0 0
BITMAP
08
04
FE
04
08
ENDCHAR
STARTCHAR arrowdown
ENCODING 8595
SWIDTH 1000 0
DWIDTH 8 0
BBX 5 7 1 -1
BITMAP
20
20
20
20
A8
70
20
ENDCHAR
STARTCHAR arrowdblright
ENCODING 8658
SWIDTH 1000 0
DWIDTH 8 0
BBX 7 5 0 0
BITMAP
08
FC
02
FC
08
ENDCHAR
STARTCHAR arrowdblboth
ENCODING 8660
SWIDTH 1000 0
DWIDTH 8 0
BBX 7 5 0 0
BITMAP
28
7C
82
7C
28
ENDCHAR
STARTCHAR universal
ENCODING 8704
SWIDTH 1000 0
DWIDTH 8 0
BBX 7 7 0 -1
BITMAP
82
82
7C
44
28
28
10
ENDCHAR
STARTCHAR partialdiff
ENCODING 8706
SWIDTH 1000 0
DWIDTH 8 0
BBX 5 7 1 -1
BITMAP
30
48
08
78
88
90
60
ENDCHAR
STARTCHAR existential
ENCODING 8707
SWIDTH 1000 0
DWIDTH 8 0
BBX 6 7 1 -1
BITMAP
FC
04
04
FC
04
04
FC
ENDCHAR
STARTCHAR gradient
ENCODING 8711
SWIDTH 1000 0
DWIDTH 8 0
BBX 7 7 0 -1
BITMAP
FE
82
44
44
28
28
10
ENDCHAR
STARTCHAR element
ENCODING 8712
SWIDTH 1000 0
DWIDTH 8 0
BBX 6 5 1 0
BITMAP
7C
80
FC
80
7C
ENDCHAR
STARTCHAR suchthat
ENCODING 8715
SWIDTH 1000 0
DWIDTH 8 0
BBX 6 5 1 0
BITMAP
F8
04
FC
04
F8
ENDCHAR
STARTCHAR minus
ENCODING 8722
SWIDTH 500 0
DWIDTH 8 0
BBX 7 1 0 2
BITMAP
FE
ENDCHAR
STARTCHAR radical
ENCODING 8730
SWIDTH 1000 0
DWIDTH 8 0
BBX 7 7 0 -1
BITMAP
1E
10
20
20
A0
40
40
ENDCHAR
STARTCHAR proportional
ENCODING 8733
SWIDTH 1000 0
DWIDTH 8 0
BBX 7 5 0 0
BITMAP
6C
92
90
92
6C
ENDCHAR
STARTCHAR infinity
ENCODING 8734
SWIDTH 1000 0
DWIDTH 8 0
BBX 7 5 0 0
BITMAP
6C
92
92
92
6C
ENDCHAR
STARTCHAR angle
ENCODING 8736
SWIDTH 1000 0
DWIDTH 8 0
BBX 6 6 1 -1
BITMAP
04
08
10
20
40
FC
ENDCHAR
STARTCHAR logicaland
ENCODING 8743
SWIDTH 1000 0
DWIDTH 8 0
BBX 7 7 0 -1
BITMAP
10
10
28
28
44
44
82
ENDCHAR
STARTCHAR logicalor
ENCODING 8744
SWIDTH 1000 0
DWIDTH 8 0
BBX 7 7 0 -1
BITMAP
82
44
44
28
28
10
10
ENDCHAR
STARTCHAR intersection
ENCODING 8745
SWIDTH 1000 0
DWIDTH 8 0
BBX 6 6 1 -1
BITMAP
78
84
84
84
84
84
ENDCHAR
STARTCHAR union
ENCODING 8746
SWIDTH 1000 0
DWIDTH 8 0
BBX 6 6 1 0
BITMAP
84
84
84
84
84
78
ENDCHAR
STARTCHAR integral
ENCODING 8747
SWIDTH 1000 0
DWIDTH 8 0
BBX 3 7 2 -1
BITMAP
60
80
80
40
20
20
C0
ENDCHAR
STARTCHAR uni222C
ENCODING 8748
SWIDTH 1000 0
DWIDTH 8 0
BBX 6 7 1 -1
BITMAP
6C
90
90
48
24
24
D8
ENDCHAR
STARTCHAR therefore
ENCODING 8756
SWIDTH 1000 0
DWIDTH 8 0
BBX 5 5 1 0
BITMAP
20
00
00
00
88
ENDCHAR
STARTCHAR uni2235
ENCODING 8757
SWIDTH 1000 0
DWIDTH 8 0
BBX 5 5 1 0
BITMAP
88
00
00
00
20
ENDCHAR
STARTCHAR uni223D
ENCODING 8765
SWIDTH 1000 0
DWIDTH 8 0
BBX 7 5 0 0
BITMAP
4C
92
92
92
64
ENDCHAR
STARTCHAR uni2252
ENCODING 8786
SWIDTH 1000 0
DWIDTH 8 0
BBX 7 7 0 -1
BITMAP
40
00
FE
00
FE
00
04
ENDCHAR
STARTCHAR notequal
ENCODING 8800
SWIDTH 1000 0
DWIDTH 8 0
BBX 7 5 0 0
BITMAP
20
FE
10
FE
08
ENDCHAR
STARTCHAR equivalence
ENCODING 8801
SWIDTH 1000 0
DWIDTH 8 0
BBX 6 5 1 0
BITMAP
FC
00
FC
00
FC
ENDCHAR
STARTCHAR uni2266
ENCODING 8806
SWIDTH 1000 0
DWIDTH 8 0
BBX 7 7 0 -1
BITMAP
06
38
C0
38
06
00
FE
ENDCHAR
STARTCHAR uni2267
ENCODING 8807
SWIDTH 1000 0
DWIDTH 8 0
BBX 7 7 0 -1
BITMAP
C0
38
06
38
C0
00
FE
ENDCHAR
STARTCHAR uni226A
ENCODING 8810
SWIDTH 1000 0
DWIDTH 8 0
BBX 6 5 1 0
BITMAP
24
48
90
48
24
ENDCHAR
STARTCHAR uni226B
ENCODING 8811
SWIDTH 1000 0
DWIDTH 8 0
BBX 6 5 1 0
BITMAP
90
48
24
48
90
ENDCHAR
STARTCHAR propersubset
ENCODING 8834
SWIDTH 1000 0
DWIDTH 8 0
BBX 6 5 1 0
BITMAP
7C
80
80
80
7C
ENDCHAR
STARTCHAR propersuperset
ENCODING 8835
SWIDTH 1000 0
DWIDTH 8 0
BBX 6 5 1 0
BITMAP
F8
04
04
04
F8
ENDCHAR
STARTCHAR reflexsubset
ENCODING 8838
SWIDTH 1000 0
DWIDTH 8 0
BBX 6 7 1 -1
BITMAP
7C
80
80
80
7C
00
FC
ENDCHAR
STARTCHAR reflexsuperset
ENCODING 8839
SWIDTH 1000 0
DWIDTH 8 0
BBX 6 7 1 -1
BITMAP
F8
04
04
04
F8
00
FC
ENDCHAR
STARTCHAR perpendicular
ENCODING 8869
SWIDTH 1000 0
DWIDTH 8 0
BBX 7 6 0 -1
BITMAP
10
10
10
10
10
FE
ENDCHAR
STARTCHAR uni2312
ENCODING 8978
SWIDTH 1000 0
DWIDTH 8 0
BBX 6 2 1 4
BITMAP
78
84
ENDCHAR
STARTCHAR SF100000
ENCODING 9472
SWIDTH 1000 0
DWIDTH 8 0
BBX 8 1 0 2
BITMAP
FF
ENDCHAR
STARTCHAR uni2501
ENCODING 9473
SWIDTH 1000 0
DWIDTH 8 0
BBX 8 2 0 1
BITMAP
FF
FF
ENDCHAR
STARTCHAR SF110000
ENCODING 9474
SWIDTH 1000 0
DWIDTH 8 0
BBX 1 8 3 -2
BITMAP
80
80
80
80
80
80
80
80
ENDCHAR
STARTCHAR uni2503
ENCODING 9475
SWIDTH 1000 0
DWIDTH 8 0
BBX 2 8 3 -2
BITMAP
C0
C0
C0
C0
C0
C0
C0
C0
ENDCHAR
STARTCHAR SF010000
ENCODING 9484
SWIDTH 1000 0
DWIDTH 8 0
BBX 5 5 3 -2
BITMAP
F8
80
80
80
80
ENDCHAR
STARTCHAR uni250F
ENCODING 9487
SWIDTH 1000 0
DWIDTH 8 0
BBX 5 5 3 -2
BITMAP
F8
F8
C0
C0
C0
ENDCHAR
STARTCHAR SF030000
ENCODING 9488
SWIDTH 1000 0
DWIDTH 8 0
BBX 4 5 0 -2
BITMAP
F0
10
10
10
10
ENDCHAR
STARTCHAR uni2513
ENCODING 9491
SWIDTH 1000 0
DWIDTH 8 0
BBX 5 5 0 -2
BITMAP
F8
F8
18
18
18
ENDCHAR
STARTCHAR SF020000
ENCODING 9492
SWIDTH 1000 0
DWIDTH 8 0
BBX 5 4 3 2
BITMAP
80
80
80
F8
ENDCHAR
STARTCHAR uni2517
ENCODING 9495
SWIDTH 1000 0
DWIDTH 8 0
BBX 5 5 3 1
BITMAP
C0
C0
C0
F8
F8
ENDCHAR
STARTCHAR SF040000
ENCODING 9496
SWIDTH 1000 0
DWIDTH 8 0
BBX 4 4 0 2
BITMAP
10
10
10
F0
ENDCHAR
STARTCHAR uni251B
ENCODING 9499
SWIDTH 1000 0
DWIDTH 8 0
BBX 5 5 0 1
BITMAP
18
18
18
F8
F8
ENDCHAR
STARTCHAR SF080000
ENCODING 9500
SWIDTH 1000 0
DWIDTH 8 0
BBX 5 8 3 -2
BITMAP
80
80
80
F8
80
80
80
80
ENDCHAR
STARTCHAR uni251D
ENCODING 9501
SWIDTH 1000 0
DWIDTH 8 0
BBX 5 8 3 -2
BITMAP
80
80
80
F8
F8
80
80
80
ENDCHAR
STARTCHAR uni2520
ENCODING 9504
SWIDTH 1000 0
DWIDTH 8 0
BBX 5 8 3 -2
BITMAP
C0
C0
C0
F8
C0
C0
C0
C0
ENDCHAR
STARTCHAR uni2523
ENCODING 9507
SWIDTH 1000 0
DWIDTH 8 0
BBX 5 8 3 -2
BITMAP
C0
C0
C0
F8
F8
C0
C0
C0
ENDCHAR
STARTCHAR SF090000
ENCODING 9508
SWIDTH 1000 0
DWIDTH 8 0
BBX 4 8 0 -2
BITMAP
10
10
10
F0
10
10
10
10
ENDCHAR
STARTCHAR uni2525
ENCODING 9509
SWIDTH 1000 0
DWIDTH 8 0
BBX 4 8 0 -2
BITMAP
10
10
10
F0
F0
10
10
10
ENDCHAR
STARTCHAR uni2528
ENCODING 9512
SWIDTH 1000 0
DWIDTH 8 0
BBX 5 8 0 -2
BITMAP
18
18
18
F8
18
18
18
18
ENDCHAR
STARTCHAR uni252B
ENCODING 9515
SWIDTH 1000 0
DWIDTH 8 0
BBX 5 8 0 -2
BITMAP
18
18
18
F8
F8
18
18
18
ENDCHAR
STARTCHAR SF060000
ENCODING 9516
SWIDTH 1000 0
DWIDTH 8 0
BBX 8 5 0 -2
BITMAP
FF
10
10
10
10
ENDCHAR
STARTCHAR uni252F
ENCODING 9519
SWIDTH 1000 0
DWIDTH 8 0
BBX 8 5 0 -2
BITMAP
FF
FF
10
10
10
ENDCHAR
STARTCHAR uni2530
ENCODING 9520
SWIDTH 1000 0
DWIDTH 8 0
BBX 8 5 0 -2
BITMAP
FF
18
18
18
18
ENDCHAR
STARTCHAR uni2533
ENCODING 9523
SWIDTH 1000 0
DWIDTH 8 0
BBX 8 5 0 -2
BITMAP
FF
FF
18
18
18
ENDCHAR
STARTCHAR SF070000
ENCODING 9524
SWIDTH 1000 0
DWIDTH 8 0
BBX 8 4 0 2
BITMAP
10
10
10
FF
ENDCHAR
STARTCHAR uni2537
ENCODING 9527
SWIDTH 1000 0
DWIDTH 8 0
BBX 8 5 0 1
BITMAP
10
10
10
FF
FF
ENDCHAR
STARTCHAR uni2538
ENCODING 9528
SWIDTH 1000 0
DWIDTH 8 0
BBX 8 4 0 2
BITMAP
18
18
18
FF
ENDCHAR
STARTCHAR uni253B
ENCODING 9531
SWIDTH 1000 0
DWIDTH 8 0
BBX 8 5 0 1
BITMAP
18
18
18
FF
FF
ENDCHAR
STARTCHAR SF050000
ENCODING 9532
SWIDTH 1000 0
DWIDTH 8 0
BBX 8 8 0 -2
BITMAP
10
10
10
FF
10
10
10
10
ENDCHAR
STARTCHAR uni253F
ENCODING 9535
SWIDTH 1000 0
DWIDTH 8 0
BBX 8 8 0 -2
BITMAP
10
10
10
FF
FF
10
10
10
ENDCHAR
STARTCHAR uni2542
ENCODING 9538
SWIDTH 1000 0
DWIDTH 8 0
BBX 8 8 0 -2
BITMAP
18
18
18
FF
18
18
18
18
ENDCHAR
STARTCHAR uni254B
ENCODING 9547
SWIDTH 1000 0
DWIDTH 8 0
BBX 8 8 0 -2
BITMAP
18
18
18
FF
FF
18
18
18
ENDCHAR
STARTCHAR filledbox
ENCODING 9632
SWIDTH 1000 0
DWIDTH 8 0
BBX 7 7 0 -1
BITMAP
FE
FE
FE
FE
FE
FE
FE
ENDCHAR
STARTCHAR H22073
ENCODING 9633
SWIDTH 1000 0
DWIDTH 8 0
BBX 7 7 0 -1
BITMAP
FE
82
82
82
82
82
FE
ENDCHAR
STARTCHAR triagup
ENCODING 9650
SWIDTH 1000 0
DWIDTH 8 0
BBX 7 7 0 -1
BITMAP
10
10
38
38
7C
7C
FE
ENDCHAR
STARTCHAR uni25B3
ENCODING 9651
SWIDTH 1000 0
DWIDTH 8 0
BBX 7 7 0 -1
BITMAP
10
10
28
28
44
44
FE
ENDCHAR
STARTCHAR triagdn
ENCODING 9660
SWIDTH 1000 0
DWIDTH 8 0
BBX 7 7 0 -1
BITMAP
FE
7C
7C
38
38
10
10
ENDCHAR
STARTCHAR uni25BD
ENCODING 9661
SWIDTH 1000 0
DWIDTH 8 0
BBX 7 7 0 -1
BITMAP
FE
44
44
28
28
10
10
ENDCHAR
STARTCHAR uni25C6
ENCODING 9670
SWIDTH 1000 0
DWIDTH 8 0
BBX 7 7 0 -1
BITMAP
10
38
7C
FE
7C
38
10
ENDCHAR
STARTCHAR uni25C7
ENCODING 9671
SWIDTH 1000 0
DWIDTH 8 0
BBX 7 7 0 -1
BITMAP
10
28
44
82
44
28
10
ENDCHAR
STARTCHAR circle
ENCODING 9675
SWIDTH 1000 0
DWIDTH 8 0
BBX 7 7 0 -1
BITMAP
38
44
82
82
82
44
38
ENDCHAR
STARTCHAR uni25CE
ENCODING 9678
SWIDTH 1000 0
DWIDTH 8 0
BBX 7 7 0 -1
BITMAP
38
44
BA
AA
BA
44
38
ENDCHAR
STARTCHAR H18533
ENCODING 9679
SWIDTH 1000 0
DWIDTH 8 0
BBX 7 7 0 -1
BITMAP
38
7C
FE
FE
FE
7C
38
ENDCHAR
STARTCHAR uni25EF
ENCODING 9711
SWIDTH 1000 0
DWIDTH 8 0
BBX 7 7 0 -1
BITMAP
7C
82
82
82
82
82
7C
ENDCHAR
STARTCHAR uni2605
ENCODING 9733
SWIDTH 1000 0
DWIDTH 8 0
BBX 7 7 0 -1
BITMAP
10
10
FE
38
7C
6C
82
ENDCHAR
STARTCHAR uni2606
ENCODING 9734
SWIDTH 1000 0
DWIDTH 8 0
BBX 7 7 0 -1
BITMAP
10
10
EE
28
54
6C
82
ENDCHAR
STARTCHAR female
ENCODING 9792
SWIDTH 1000 0
DWIDTH 8 0
BBX 5 7 1 -1
BITMAP
70
88
88
70
20
F8
20
ENDCHAR
STARTCHAR male
ENCODING 9794
SWIDTH 1000 0
DWIDTH 8 0
BBX 7 7 0 -1
BITMAP
1E
06
0A
72
90
90
60
ENDCHAR
STARTCHAR musicalnote
ENCODING 9834
SWIDTH 1000 0
DWIDTH 8 0
BBX 5 7 1 -1
BITMAP
20
30
28
28
60
E0
C0
ENDCHAR
STARTCHAR uni266D
ENCODING 9837
SWIDTH 1000 0
DWIDTH 8 0
BBX 4 7 2 -1
BITMAP
80
80
A0
D0
90
A0
C0
ENDCHAR
STARTCHAR uni266F
ENCODING 9839
SWIDTH 1000 0
DWIDTH 8 0
BBX 6 7 1 -1
BITMAP
08
4C
78
CC
78
C8
40
ENDCHAR
STARTCHAR uni3001
ENCODING 12289
SWIDTH 1000 0
DWIDTH 8 0
BBX 2 2 0 -1
BITMAP
80
40
ENDCHAR
STARTCHAR uni3002
ENCODING 12290
SWIDTH 1000 0
DWIDTH 8 0
BBX 3 3 0 -1
BITMAP
40
A0
40
ENDCHAR
STARTCHAR uni3003
ENCODING 12291
SWIDTH 1000 0
DWIDTH 8 0
BBX 5 4 1 0
BITMAP
48
48
48
90
ENDCHAR
STARTCHAR uni3005
ENCODING 12293
SWIDTH 1000 0
DWIDTH 8 0
BBX 6 6 1 -1
BITMAP
20
3C
44
A8
10
08
ENDCHAR
STARTCHAR uni3006
ENCODING 12294
SWIDTH 1000 0
DWIDTH 8 0
BBX 7 6 0 -1
BITMAP
02
04
28
50
68
C0
ENDCHAR
STARTCHAR uni3007
ENCODING 12295
SWIDTH 1000 0
DWIDTH 8 0
BBX 7 6 0 -1
BITMAP
38
44
82
82
44
38
ENDCHAR
STARTCHAR uni3008
ENCODING 12296
SWIDTH 1000 0
DWIDTH 8 0
BBX 4 7 3 -1
BITMAP
10
20
40
80
40
20
10
ENDCHAR
STARTCHAR uni3009
ENCODING 12297
SWIDTH 1000 0
DWIDTH 8 0
BBX 4 7 0 -1
BITMAP
80
40
20
10
20
40
80
ENDCHAR
STARTCHAR uni300A
ENCODING 12298
SWIDTH 1000 0
DWIDTH 8 0
BBX 6 7 1 -1
BITMAP
14
28
50
A0
50
28
14
ENDCHAR
STARTCHAR uni300B
ENCODING 12299
SWIDTH 1000 0
DWIDTH 8 0
BBX 6 7 0 -1
BITMAP
A0
50
28
14
28
50
A0
ENDCHAR
STARTCHAR uni300C
ENCODING 12300
SWIDTH 1000 0
DWIDTH 8 0
BBX 4 6 3 0
BITMAP
F0
80
80
80
80
80
ENDCHAR
STARTCHAR uni300D
ENCODING 12301
SWIDTH 1000 0
DWIDTH 8 0
BBX 4 6 0 -1
BITMAP
10
10
10
10
10
F0
ENDCHAR
STARTCHAR uni300E
ENCODING 12302
SWIDTH 1000 0
DWIDTH 8 0
BBX 5 7 2 -1
BITMAP
F8
88
B8
A0
A0
A0
E0
ENDCHAR
STARTCHAR uni300F
ENCODING 12303
SWIDTH 1000 0
DWIDTH 8 0
BBX 5 7 0 -1
BITMAP
38
28
28
28
E8
88
F8
ENDCHAR
STARTCHAR uni3010
ENCODING 12304
SWIDTH 1000 0
DWIDTH 8 0
BBX 3 7 4 -1
BITMAP
E0
C0
80
80
80
C0
E0
ENDCHAR
STARTCHAR uni3011
ENCODING 12305
SWIDTH 1000 0
DWIDTH 8 0
BBX 3 7 0 -1
BITMAP
E0
60
20
20
20
60
E0
ENDCHAR
STARTCHAR uni3012
ENCODING 12306
SWIDTH 1000 0
DWIDTH 8 0
BBX 7 7 0 -1
BITMAP
FE
00
FE
10
10
10
10
ENDCHAR
STARTCHAR uni3013
ENCODING 12307
SWIDTH 1000 0
DWIDTH 8 0
BBX 7 5 0 0
BITMAP
FE
FE
00
FE
FE
ENDCHAR
STARTCHAR uni3014
ENCODING 12308
SWIDTH 1000 0
DWIDTH 8 0
BBX 4 7 3 -1
BITMAP
30
C0
80
80
80
C0
30
ENDCHAR
STARTCHAR uni3015
ENCODING 12309
SWIDTH 1000 0
DWIDTH 8 0
BBX 4 7 0 -1
BITMAP
C0
30
10
10
10
30
C0
ENDCHAR
STARTCHAR uni301C
ENCODING 12316
SWIDTH 1000 0
DWIDTH 8 0
BBX 7 3 0 1
BITMAP
60
92
0C
ENDCHAR
STARTCHAR uni3041
ENCODING 12353
SWIDTH 1000 0
DWIDTH 8 0
BBX 5 6 1 -1
BITMAP
20
30
E8
70
A8
C8
ENDCHAR
STARTCHAR uni3042
ENCODING 12354
SWIDTH 1000 0
DWIDTH 8 0
BBX 6 7 1 -1
BITMAP
20
30
E8
38
74
A4
C8
ENDCHAR
STARTCHAR uni3043
ENCODING 12355
SWIDTH 1000 0
DWIDTH 8 0
BBX 5 5 1 -1
BITMAP
90
88
A8
C0
40
ENDCHAR
STARTCHAR uni3044
ENCODING 12356
SWIDTH 1000 0
DWIDTH 8 0
BBX 7 6 0 -1
BITMAP
88
44
42
52
60
20
ENDCHAR
STARTCHAR uni3045
ENCODING 12357
SWIDTH 1000 0
DWIDTH 8 0
BBX 4 6 2 -1
BITMAP
40
20
D0
10
20
40
ENDCHAR
STARTCHAR uni3046
ENCODING 12358
SWIDTH 1000 0
DWIDTH 8 0
BBX 5 7 1 -1
BITMAP
40
30
70
88
08
10
60
ENDCHAR
STARTCHAR uni3047
ENCODING 12359
SWIDTH 1000 0
DWIDTH 8 0
BBX 5 6 1 -1
BITMAP
40
30
D0
20
50
98
ENDCHAR
STARTCHAR uni3048
ENCODING 12360
SWIDTH 1000 0
DWIDTH 8 0
BBX 6 7 1 -1
BITMAP
40
30
38
D0
30
48
8C
ENDCHAR
STARTCHAR uni3049
ENCODING 12361
SWIDTH 1000 0
DWIDTH 8 0
BBX 5 6 1 -1
BITMAP
40
68
C0
70
C8
50
ENDCHAR
STARTCHAR uni304A
ENCODING 12362
SWIDTH 1000 0
DWIDTH 8 0
BBX 6 7 1 -1
BITMAP
40
68
C4
58
64
C4
58
ENDCHAR
STARTCHAR uni304B
ENCODING 12363
SWIDTH 1000 0
DWIDTH 8 0
BBX 7 7 0 -1
BITMAP
20
20
34
D2
56
50
A0
ENDCHAR
STARTCHAR uni304C
ENCODING 12364
SWIDTH 1000 0
DWIDTH 8 0
BBX 7 7 0 -1
BITMAP
2A
20
34
D2
56
50
A0
ENDCHAR
STARTCHAR uni304D
ENCODING 12365
SWIDTH 1000 0
DWIDTH 8 0
BBX 6 7 1 -1
BITMAP
20
78
10
FC
08
80
78
ENDCHAR
STARTCHAR uni304E
ENCODING 12366
SWIDTH 1000 0
DWIDTH 8 0
BBX 6 7 1 -1
BITMAP
2C
78
10
FC
08
80
78
ENDCHAR
STARTCHAR uni304F
ENCODING 12367
SWIDTH 1000 0
DWIDTH 8 0
BBX 5 7 1 -1
BITMAP
08
10
60
80
60
10
08
ENDCHAR
STARTCHAR uni3050
ENCODING 12368
SWIDTH 1000 0
DWIDTH 8 0
BBX 6 7 1 -1
BITMAP
08
10
6C
80
60
10
08
ENDCHAR
STARTCHAR uni3051
ENCODING 12369
SWIDTH 1000 0
DWIDTH 8 0
BBX 7 7 0 -1
BITMAP
84
46
5C
84
A4
C4
48
ENDCHAR
STARTCHAR uni3052
ENCODING 12370
SWIDTH 1000 0
DWIDTH 8 0
BBX 7 7 0 -1
BITMAP
8A
46
5C
84
A4
C4
48
ENDCHAR
STARTCHAR uni3053
ENCODING 12371
SWIDTH 1000 0
DWIDTH 8 0
BBX 6 6 1 -1
BITMAP
78
10
00
40
80
7C
ENDCHAR
STARTCHAR uni3054
ENCODING 12372
SWIDTH 1000 0
DWIDTH 8 0
BBX 6 7 1 -1
BITMAP
14
78
10
00
40
80
7C
ENDCHAR
STARTCHAR uni3055
ENCODING 12373
SWIDTH 1000 0
DWIDTH 8 0
BBX 6 7 1 -1
BITMAP
10
1C
F0
08
7C
80
78
ENDCHAR
STARTCHAR uni3056
ENCODING 12374
SWIDTH 1000 0
DWIDTH 8 0
BBX 6 7 1 -1
BITMAP
14
1C
F0
08
7C
80
78
ENDCHAR
STARTCHAR uni3057
ENCODING 12375
SWIDTH 1000 0
DWIDTH 8 0
BBX 6 7 1 -1
BITMAP
80
40
40
40
40
44
38
ENDCHAR
STARTCHAR uni3058
ENCODING 12376
SWIDTH 1000 0
DWIDTH 8 0
BBX 6 7 1 -1
BITMAP
94
40
40
40
40
44
38
ENDCHAR
STARTCHAR uni3059
ENCODING 12377
SWIDTH 1000 0
DWIDTH 8 0
BBX 7 7 0 -1
BITMAP
08
0E
F8
28
18
08
10
ENDCHAR
STARTCHAR uni305A
ENCODING 12378
SWIDTH 1000 0
DWIDTH 8 0
BBX 7 7 0 -1
BITMAP
0A
0E
F8
28
18
08
10
ENDCHAR
STARTCHAR uni305B
ENCODING 12379
SWIDTH 1000 0
DWIDTH 8 0
BBX 7 7 0 -1
BITMAP
24
24
2E
F4
2C
20
1E
ENDCHAR
STARTCHAR uni305C
ENCODING 12380
SWIDTH 1000 0
DWIDTH 8 0
BBX 7 7 0 -1
BITMAP
26
24
2E
F4
2C
20
1E
ENDCHAR
STARTCHAR uni305D
ENCODING 12381
SWIDTH 1000 0
DWIDTH 8 0
BBX 7 7 0 -1
BITMAP
1C
68
10
3E
D0
10
0C
ENDCHAR
STARTCHAR uni305E
ENCODING 12382
SWIDTH 1000 0
DWIDTH 8 0
BBX 7 7 0 -1
BITMAP
1C
6A
10
3E
D0
10
0C
ENDCHAR
STARTCHAR uni305F
ENCODING 12383
SWIDTH 1000 0
DWIDTH 8 0
BBX 7 7 0 -1
BITMAP
20
30
EE
24
40
50
8E
ENDCHAR
STARTCHAR uni3060
ENCODING 12384
SWIDTH 1000 0
DWIDTH 8 0
BBX 7 7 0 -1
BITMAP
2A
30
EE
24
40
50
8E
ENDCHAR
STARTCHAR uni3061
ENCODING 12385
SWIDTH 1000 0
DWIDTH 8 0
BBX 7 7 0 -1
BITMAP
10
1C
E0
3C
22
02
1C
ENDCHAR
STARTCHAR uni3062
ENCODING 12386
SWIDTH 1000 0
DWIDTH 8 0
BBX 7 7 0 -1
BITMAP
16
1C
E0
3C
22
02
1C
ENDCHAR
STARTCHAR uni3063
ENCODING 12387
SWIDTH 1000 0
DWIDTH 8 0
BBX 5 4 1 -1
BITMAP
30
C8
08
30
ENDCHAR
STARTCHAR uni3064
ENCODING 12388
SWIDTH 1000 0
DWIDTH 8 0
BBX 7 5 0 0
BITMAP
1C
E2
02
02
1C
ENDCHAR
STARTCHAR uni3065
ENCODING 12389
SWIDTH 1000 0
DWIDTH 8 0
BBX 7 6 0 0
BITMAP
0A
1C
E2
02
02
1C
ENDCHAR
STARTCHAR uni3066
ENCODING 12390
SWIDTH 1000 0
DWIDTH 8 0
BBX 6 7 1 -1
BITMAP
1C
E8
10
20
20
10
0C
ENDCHAR
STARTCHAR uni3067
ENCODING 12391
SWIDTH 1000 0
DWIDTH 8 0
BBX 6 7 1 -1
BITMAP
1C
E8
14
20
20
10
0C
ENDCHAR
STARTCHAR uni3068
ENCODING 12392
SWIDTH 1000 0
DWIDTH 8 0
BBX 6 7 1 -1
BITMAP
40
20
24
38
40
80
7C
ENDCHAR
STARTCHAR uni3069
ENCODING 12393
SWIDTH 1000 0
DWIDTH 8 0
BBX 6 7 1 -1
BITMAP
54
20
24
38
40
80
7C
ENDCHAR
STARTCHAR uni306A
ENCODING 12394
SWIDTH 1000 0
DWIDTH 8 0
BBX 7 7 0 -1
BITMAP
20
34
E2
24
4C
96
08
ENDCHAR
STARTCHAR uni306B
ENCODING 12395
SWIDTH 1000 0
DWIDTH 8 0
BBX 7 7 0 -1
BITMAP
80
56
48
80
A0
D0
4E
ENDCHAR
STARTCHAR uni306C
ENCODING 12396
SWIDTH 1000 0
DWIDTH 8 0
BBX 7 7 0 -1
BITMAP
08
48
7C
52
B2
A6
56
ENDCHAR
STARTCHAR uni306D
ENCODING 12397
SWIDTH 1000 0
DWIDTH 8 0
BBX 7 7 0 -1
BITMAP
20
2C
F2
22
66
AA
24
ENDCHAR
STARTCHAR uni306E
ENCODING 12398
SWIDTH 1000 0
DWIDTH 8 0
BBX 7 6 0 -1
BITMAP
38
54
92
A2
44
18
ENDCHAR
STARTCHAR uni306F
ENCODING 12399
SWIDTH 1000 0
DWIDTH 8 0
BBX 7 7 0 -1
BITMAP
84
44
5E
84
AC
D6
48
ENDCHAR
STARTCHAR uni3070
ENCODING 12400
SWIDTH 1000 0
DWIDTH 8 0
BBX 7 7 0 -1
BITMAP
86
44
5E
84
AC
D6
48
ENDCHAR
STARTCHAR uni3071
ENCODING 12401
SWIDTH 1000 0
DWIDTH 8 0
BBX 7 7 0 -1
BITMAP
8C
4A
5E
84
AC
D6
48
ENDCHAR
STARTCHAR uni3072
ENCODING 12402
SWIDTH 1000 0
DWIDTH 8 0
BBX 7 7 0 -1
BITMAP
28
E4
26
44
44
44
38
ENDCHAR
STARTCHAR uni3073
ENCODING 12403
SWIDTH 1000 0
DWIDTH 8 0
BBX 7 7 0 -1
BITMAP
2A
E4
26
44
44
44
38
ENDCHAR
STARTCHAR uni3074
ENCODING 12404
SWIDTH 1000 0
DWIDTH 8 0
BBX 7 7 0 -1
BITMAP
2C
EA
26
44
44
44
38
ENDCHAR
STARTCHAR uni3075
ENCODING 12405
SWIDTH 1000 0
DWIDTH 8 0
BBX 7 7 0 -1
BITMAP
10
08
10
08
1C
AA
DA
ENDCHAR
STARTCHAR uni3076
ENCODING 12406
SWIDTH 1000 0
DWIDTH 8 0
BBX 7 7 0 -1
BITMAP
16
08
10
08
1C
AA
DA
ENDCHAR
STARTCHAR uni3077
ENCODING 12407
SWIDTH 1000 0
DWIDTH 8 0
BBX 7 7 0 -1
BITMAP
14
0A
16
08
1C
AA
DA
ENDCHAR
STARTCHAR uni3078
ENCODING 12408
SWIDTH 1000 0
DWIDTH 8 0
BBX 7 4 0 1
BITMAP
20
50
C8
06
ENDCHAR
STARTCHAR uni3079
ENCODING 12409
SWIDTH 1000 0
DWIDTH 8 0
BBX 7 5 0 1
BITMAP
0A
20
50
C8
06
ENDCHAR
STARTCHAR uni307A
ENCODING 12410
SWIDTH 1000 0
DWIDTH 8 0
BBX 7 5 0 1
BITMAP
04
2A
56
C8
06
ENDCHAR
STARTCHAR uni307B
ENCODING 12411
SWIDTH 1000 0
DWIDTH 8 0
BBX 7 7 0 -1
BITMAP
80
5E
44
9E
A4
DE
5C
ENDCHAR
STARTCHAR uni307C
ENCODING 12412
SWIDTH 1000 0
DWIDTH 8 0
BBX 7 7 0 -1
BITMAP
8A
5E
44
9E
A4
DE
5C
ENDCHAR
STARTCHAR uni307D
ENCODING 12413
SWIDTH 1000 0
DWIDTH 8 0
BBX 7 7 0 -1
BITMAP
84
5A
44
9E
A4
DE
5C
ENDCHAR
STARTCHAR uni307E
ENCODING 12414
SWIDTH 1000 0
DWIDTH 8 0
BBX 6 7 1 -1
BITMAP
10
FC
10
78
10
F8
F4
ENDCHAR
STARTCHAR uni307F
ENCODING 12415
SWIDTH 1000 0
DWIDTH 8 0
BBX 7 7 0 -1
BITMAP
70
10
24
7C
A6
C4
18
ENDCHAR
STARTCHAR uni3080
ENCODING 12416
SWIDTH 1000 0
DWIDTH 8 0
BBX 7 7 0 -1
BITMAP
20
34
E6
64
A2
62
3C
ENDCHAR
STARTCHAR uni3081
ENCODING 12417
SWIDTH 1000 0
DWIDTH 8 0
BBX 7 7 0 -1
BITMAP
08
48
7C
52
B2
A2
54
ENDCHAR
STARTCHAR uni3082
ENCODING 12418
SWIDTH 1000 0
DWIDTH 8 0
BBX 6 7 1 -1
BITMAP
20
A0
70
C0
74
44
38
ENDCHAR
STARTCHAR uni3083
ENCODING 12419
SWIDTH 1000 0
DWIDTH 8 0
BBX 5 6 1 -1
BITMAP
10
90
68
D8
20
10
ENDCHAR
STARTCHAR uni3084
ENCODING 12420
SWIDTH 1000 0
DWIDTH 8 0
BBX 6 7 1 -1
BITMAP
90
98
64
CC
20
20
10
ENDCHAR
STARTCHAR uni3085
ENCODING 12421
SWIDTH 1000 0
DWIDTH 8 0
BBX 6 6 1 -1
BITMAP
10
B8
D4
54
18
20
ENDCHAR
STARTCHAR uni3086
ENCODING 12422
SWIDTH 1000 0
DWIDTH 8 0
BBX 7 7 0 -1
BITMAP
10
9C
AA
AA
DC
48
10
ENDCHAR
STARTCHAR uni3087
ENCODING 12423
SWIDTH 1000 0
DWIDTH 8 0
BBX 5 6 1 -1
BITMAP
20
10
18
70
90
68
ENDCHAR
STARTCHAR uni3088
ENCODING 12424
SWIDTH 1000 0
DWIDTH 8 0
BBX 6 7 1 -1
BITMAP
20
10
1C
10
70
98
64
ENDCHAR
STARTCHAR uni3089
ENCODING 12425
SWIDTH 1000 0
DWIDTH 8 0
BBX 6 7 1 -1
BITMAP
40
30
80
B8
C4
84
38
ENDCHAR
STARTCHAR uni308A
ENCODING 12426
SWIDTH 1000 0
DWIDTH 8 0
BBX 4 7 2 -1
BITMAP
20
D0
90
90
10
20
C0
ENDCHAR
STARTCHAR uni308B
ENCODING 12427
SWIDTH 1000 0
DWIDTH 8 0
BBX 6 7 1 -1
BITMAP
38
D0
20
78
84
74
78
ENDCHAR
STARTCHAR uni308C
ENCODING 12428
SWIDTH 1000 0
DWIDTH 8 0
BBX 7 7 0 -1
BITMAP
20
2C
F4
24
64
A6
24
ENDCHAR
STARTCHAR uni308D
ENCODING 12429
SWIDTH 1000 0
DWIDTH 8 0
BBX 6 7 1 -1
BITMAP
38
D0
20
78
84
04
38
ENDCHAR
STARTCHAR uni308E
ENCODING 12430
SWIDTH 1000 0
DWIDTH 8 0
BBX 6 6 1 -1
BITMAP
40
58
E4
44
C4
58
ENDCHAR
STARTCHAR uni308F
ENCODING 12431
SWIDTH 1000 0
DWIDTH 8 0
BBX 7 7 0 -1
BITMAP
20
2C
F2
22
62
A2
2C
ENDCHAR
STARTCHAR uni3090
ENCODING 12432
SWIDTH 1000 0
DWIDTH 8 0
BBX 7 7 0 -1
BITMAP
70
10
1C
62
A2
AE
4C
ENDCHAR
STARTCHAR uni3091
ENCODING 12433
SWIDTH 1000 0
DWIDTH 8 0
BBX 7 7 0 -1
BITMAP
38
10
3C
42
1A
6C
92
ENDCHAR
STARTCHAR uni3092
ENCODING 12434
SWIDTH 1000 0
DWIDTH 8 0
BBX 6 7 1 -1
BITMAP
20
38
C0
6C
B0
40
3C
ENDCHAR
STARTCHAR uni3093
ENCODING 12435
SWIDTH 1000 0
DWIDTH 8 0
BBX 7 7 0 -1
BITMAP
10
10
20
30
6A
4A
8C
ENDCHAR
STARTCHAR uni309B
ENCODING 12443
SWIDTH 1000 0
DWIDTH 8 0
BBX 4 2 0 4
BITMAP
A0
50
ENDCHAR
STARTCHAR uni309C
ENCODING 12444
SWIDTH 1000 0
DWIDTH 8 0
BBX 3 3 0 3
BITMAP
40
A0
40
ENDCHAR
STARTCHAR uni309D
ENCODING 12445
SWIDTH 1000 0
DWIDTH 8 0
BBX 4 5 2 0
BITMAP
80
40
20
30
40
ENDCHAR
STARTCHAR uni309E
ENCODING 12446
SWIDTH 1000 0
DWIDTH 8 0
BBX 5 6 2 0
BITMAP
28
80
40
20
30
40
ENDCHAR
STARTCHAR uni30A1
ENCODING 12449
SWIDTH 1000 0
DWIDTH 8 0
BBX 5 5 1 -1
BITMAP
18
E8
30
20
40
ENDCHAR
STARTCHAR uni30A2
ENCODING 12450
SWIDTH 1000 0
DWIDTH 8 0
BBX 6 7 1 -1
BITMAP
1C
E4
08
30
20
20
40
ENDCHAR
STARTCHAR uni30A3
ENCODING 12451
SWIDTH 1000 0
DWIDTH 8 0
BBX 5 5 1 -1
BITMAP
08
10
30
D0
10
ENDCHAR
STARTCHAR uni30A4
ENCODING 12452
SWIDTH 1000 0
DWIDTH 8 0
BBX 6 7 1 -1
BITMAP
04
08
10
30
D0
10
10
ENDCHAR
STARTCHAR uni30A5
ENCODING 12453
SWIDTH 1000 0
DWIDTH 8 0
BBX 5 6 1 -1
BITMAP
20
38
C8
88
10
60
ENDCHAR
STARTCHAR uni30A6
ENCODING 12454
SWIDTH 1000 0
DWIDTH 8 0
BBX 6 7 1 -1
BITMAP
10
1C
E4
84
08
10
60
ENDCHAR
STARTCHAR uni30A7
ENCODING 12455
SWIDTH 1000 0
DWIDTH 8 0
BBX 5 5 1 -1
BITMAP
10
60
20
38
C0
ENDCHAR
STARTCHAR uni30A8
ENCODING 12456
SWIDTH 1000 0
DWIDTH 8 0
BBX 7 6 0 -1
BITMAP
0C
70
10
10
3E
C0
ENDCHAR
STARTCHAR uni30A9
ENCODING 12457
SWIDTH 1000 0
DWIDTH 8 0
BBX 5 6 1 -1
BITMAP
10
18
F0
50
B0
10
ENDCHAR
STARTCHAR uni30AA
ENCODING 12458
SWIDTH 1000 0
DWIDTH 8 0
BBX 7 7 0 -1
BITMAP
08
0E
F8
18
28
D8
08
ENDCHAR
STARTCHAR uni30AB
ENCODING 12459
SWIDTH 1000 0
DWIDTH 8 0
BBX 6 7 1 -1
BITMAP
20
3C
E4
24
44
44
88
ENDCHAR
STARTCHAR uni30AC
ENCODING 12460
SWIDTH 1000 0
DWIDTH 8 0
BBX 6 7 1 -1
BITMAP
24
3C
E4
24
44
44
88
ENDCHAR
STARTCHAR uni30AD
ENCODING 12461
SWIDTH 1000 0
DWIDTH 8 0
BBX 6 7 1 -1
BITMAP
20
38
E0
3C
E0
10
10
ENDCHAR
STARTCHAR uni30AE
ENCODING 12462
SWIDTH 1000 0
DWIDTH 8 0
BBX 6 7 1 -1
BITMAP
2C
38
E0
3C
E0
10
10
ENDCHAR
STARTCHAR uni30AF
ENCODING 12463
SWIDTH 1000 0
DWIDTH 8 0
BBX 6 7 1 -1
BITMAP
20
3C
24
C4
08
10
60
ENDCHAR
STARTCHAR uni30B0
ENCODING 12464
SWIDTH 1000 0
DWIDTH 8 0
BBX 6 7 1 -1
BITMAP
14
3C
24
C4
08
10
60
ENDCHAR
STARTCHAR uni30B1
ENCODING 12465
SWIDTH 1000 0
DWIDTH 8 0
BBX 7 7 0 -1
BITMAP
20
26
38
48
88
08
10
ENDCHAR
STARTCHAR uni30B2
ENCODING 12466
SWIDTH 1000 0
DWIDTH 8 0
BBX 7 7 0 -1
BITMAP
2A
26
38
48
88
08
10
ENDCHAR
STARTCHAR uni30B3
ENCODING 12467
SWIDTH 1000 0
DWIDTH 8 0
BBX 6 6 1 -1
BITMAP
1C
E4
04
04
1C
E0
ENDCHAR
STARTCHAR uni30B4
ENCODING 12468
SWIDTH 1000 0
DWIDTH 8 0
BBX 6 7 1 -1
BITMAP
14
1C
E4
04
04
1C
E0
ENDCHAR
STARTCHAR uni30B5
ENCODING 12469
SWIDTH 1000 0
DWIDTH 8 0
BBX 7 7 0 -1
BITMAP
24
2E
F4
24
24
08
30
ENDCHAR
STARTCHAR uni30B6
ENCODING 12470
SWIDTH 1000 0
DWIDTH 8 0
BBX 7 7 0 -1
BITMAP
2A
2E
F4
24
24
08
30
ENDCHAR
STARTCHAR uni30B7
ENCODING 12471
SWIDTH 1000 0
DWIDTH 8 0
BBX 6 7 1 -1
BITMAP
80
40
80
44
08
30
C0
ENDCHAR
STARTCHAR uni30B8
ENCODING 12472
SWIDTH 1000 0
DWIDTH 8 0
BBX 6 7 1 -1
BITMAP
94
40
80
44
08
30
C0
ENDCHAR
STARTCHAR uni30B9
ENCODING 12473
SWIDTH 1000 0
DWIDTH 8 0
BBX 6 6 1 -1
BITMAP
18
E8
08
10
28
C4
ENDCHAR
STARTCHAR uni30BA
ENCODING 12474
SWIDTH 1000 0
DWIDTH 8 0
BBX 6 7 1 -1
BITMAP
14
18
E8
08
10
28
C4
ENDCHAR
STARTCHAR uni30BB
ENCODING 12475
SWIDTH 1000 0
DWIDTH 8 0
BBX 6 7 1 -1
BITMAP
40
40
5C
E4
48
40
7C
ENDCHAR
STARTCHAR uni30BC
ENCODING 12476
SWIDTH 1000 0
DWIDTH 8 0
BBX 6 7 1 -1
BITMAP
54
40
5C
E4
48
40
7C
ENDCHAR
STARTCHAR uni30BD
ENCODING 12477
SWIDTH 1000 0
DWIDTH 8 0
BBX 6 7 1 -1
BITMAP
04
84
44
48
08
10
60
ENDCHAR
STARTCHAR uni30BE
ENCODING 12478
SWIDTH 1000 0
DWIDTH 8 0
BBX 6 7 1 -1
BITMAP
0C
84
44
48
08
10
60
ENDCHAR
STARTCHAR uni30BF
ENCODING 12479
SWIDTH 1000 0
DWIDTH 8 0
BBX 6 7 1 -1
BITMAP
20
3C
24
D4
08
10
60
ENDCHAR
STARTCHAR uni30C0
ENCODING 12480
SWIDTH 1000 0
DWIDTH 8 0
BBX 6 7 1 -1
BITMAP
14
3C
24
D4
08
10
60
ENDCHAR
STARTCHAR uni30C1
ENCODING 12481
SWIDTH 1000 0
DWIDTH 8 0
BBX 7 7 0 -1
BITMAP
08
70
1E
F0
10
10
20
ENDCHAR
STARTCHAR uni30C2
ENCODING 12482
SWIDTH 1000 0
DWIDTH 8 0
BBX 7 7 0 -1
BITMAP
0A
70
1E
F0
10
10
20
ENDCHAR
STARTCHAR uni30C3
ENCODING 12483
SWIDTH 1000 0
DWIDTH 8 0
BBX 5 4 1 -1
BITMAP
A8
58
10
60
ENDCHAR
STARTCHAR uni30C4
ENCODING 12484
SWIDTH 1000 0
DWIDTH 8 0
BBX 7 6 0 -1
BITMAP
A2
52
52
04
08
30
ENDCHAR
STARTCHAR uni30C5
ENCODING 12485
SWIDTH 1000 0
DWIDTH 8 0
BBX 7 7 0 -1
BITMAP
0A
A0
52
52
04
08
30
ENDCHAR
STARTCHAR uni30C6
ENCODING 12486
SWIDTH 1000 0
DWIDTH 8 0
BBX 7 7 0 -1
BITMAP
0C
70
0E
F0
10
10
20
ENDCHAR
STARTCHAR uni30C7
ENCODING 12487
SWIDTH 1000 0
DWIDTH 8 0
BBX 7 7 0 -1
BITMAP
0A
70
0E
F0
10
10
20
ENDCHAR
STARTCHAR uni30C8
ENCODING 12488
SWIDTH 1000 0
DWIDTH 8 0
BBX 4 7 2 -1
BITMAP
80
40
40
60
50
40
40
ENDCHAR
STARTCHAR uni30C9
ENCODING 12489
SWIDTH 1000 0
DWIDTH 8 0
BBX 5 7 2 -1
BITMAP
A8
40
40
60
50
40
40
ENDCHAR
STARTCHAR uni30CA
ENCODING 12490
SWIDTH 1000 0
DWIDTH 8 0
BBX 6 7 1 -1
BITMAP
10
1C
F0
10
10
20
40
ENDCHAR
STARTCHAR uni30CB
ENCODING 12491
SWIDTH 1000 0
DWIDTH 8 0
BBX 7 5 0 0
BITMAP
0C
70
00
1E
E0
ENDCHAR
STARTCHAR uni30CC
ENCODING 12492
SWIDTH 1000 0
DWIDTH 8 0
BBX 5 7 1 -1
BITMAP
18
E8
08
70
10
28
C0
ENDCHAR
STARTCHAR uni30CD
ENCODING 12493
SWIDTH 1000 0
DWIDTH 8 0
BBX 6 7 1 -1
BITMAP
10
1C
E8
10
38
D4
10
ENDCHAR
STARTCHAR uni30CE
ENCODING 12494
SWIDTH 1000 0
DWIDTH 8 0
BBX 6 6 1 -1
BITMAP
04
04
08
10
20
C0
ENDCHAR
STARTCHAR uni30CF
ENCODING 12495
SWIDTH 1000 0
DWIDTH 8 0
BBX 7 5 0 0
BITMAP
08
24
24
42
82
ENDCHAR
STARTCHAR uni30D0
ENCODING 12496
SWIDTH 1000 0
DWIDTH 8 0
BBX 7 6 0 0
BITMAP
06
08
24
24
42
82
ENDCHAR
STARTCHAR uni30D1
ENCODING 12497
SWIDTH 1000 0
DWIDTH 8 0
BBX 7 6 0 0
BITMAP
04
0A
26
24
42
82
ENDCHAR
STARTCHAR uni30D2
ENCODING 12498
SWIDTH 1000 0
DWIDTH 8 0
BBX 6 7 1 -1
BITMAP
80
40
4C
70
40
40
3C
ENDCHAR
STARTCHAR uni30D3
ENCODING 12499
SWIDTH 1000 0
DWIDTH 8 0
BBX 6 7 1 -1
BITMAP
94
40
4C
70
40
40
3C
ENDCHAR
STARTCHAR uni30D4
ENCODING 12500
SWIDTH 1000 0
DWIDTH 8 0
BBX 6 7 1 -1
BITMAP
88
54
4C
70
40
40
3C
ENDCHAR
STARTCHAR uni30D5
ENCODING 12501
SWIDTH 1000 0
DWIDTH 8 0
BBX 6 6 1 -1
BITMAP
1C
E4
04
08
10
60
ENDCHAR
STARTCHAR uni30D6
ENCODING 12502
SWIDTH 1000 0
DWIDTH 8 0
BBX 6 7 1 -1
BITMAP
14
1C
E4
04
08
10
60
ENDCHAR
STARTCHAR uni30D7
ENCODING 12503
SWIDTH 1000 0
DWIDTH 8 0
BBX 6 7 1 -1
BITMAP
08
14
EC
04
08
10
60
ENDCHAR
STARTCHAR uni30D8
ENCODING 12504
SWIDTH 1000 0
DWIDTH 8 0
BBX 7 5 0 0
BITMAP
20
50
C8
04
02
ENDCHAR
STARTCHAR uni30D9
ENCODING 12505
SWIDTH 1000 0
DWIDTH 8 0
BBX 7 6 0 0
BITMAP
0A
20
50
C8
04
02
ENDCHAR
STARTCHAR uni30DA
ENCODING 12506
SWIDTH 1000 0
DWIDTH 8 0
BBX 7 6 0 0
BITMAP
04
2A
56
C8
04
02
ENDCHAR
STARTCHAR uni30DB
ENCODING 12507
SWIDTH 1000 0
DWIDTH 8 0
BBX 7 7 0 -1
BITMAP
10
10
1E
F0
54
52
B2
ENDCHAR
STARTCHAR uni30DC
ENCODING 12508
SWIDTH 1000 0
DWIDTH 8 0
BBX 7 7 0 -1
BITMAP
1A
10
1E
F0
54
52
B2
ENDCHAR
STARTCHAR uni30DD
ENCODING 12509
SWIDTH 1000 0
DWIDTH 8 0
BBX 7 7 0 -1
BITMAP
14
1A
1E
F0
54
52
B2
ENDCHAR
STARTCHAR uni30DE
ENCODING 12510
SWIDTH 1000 0
DWIDTH 8 0
BBX 6 6 1 -1
BITMAP
1C
E4
08
30
10
08
ENDCHAR
STARTCHAR uni30DF
ENCODING 12511
SWIDTH 1000 0
DWIDTH 8 0
BBX 5 7 1 -1
BITMAP
60
10
60
10
00
E0
18
ENDCHAR
STARTCHAR uni30E0
ENCODING 12512
SWIDTH 1000 0
DWIDTH 8 0
BBX 7 6 0 -1
BITMAP
10
10
20
28
4C
F2
ENDCHAR
STARTCHAR uni30E1
ENCODING 12513
SWIDTH 1000 0
DWIDTH 8 0
BBX 5 7 1 -1
BITMAP
08
08
68
10
18
20
C0
ENDCHAR
STARTCHAR uni30E2
ENCODING 12514
SWIDTH 1000 0
DWIDTH 8 0
BBX 6 6 1 -1
BITMAP
78
20
3C
E0
20
1C
ENDCHAR
STARTCHAR uni30E3
ENCODING 12515
SWIDTH 1000 0
DWIDTH 8 0
BBX 5 6 1 -1
BITMAP
40
58
E8
20
10
10
ENDCHAR
STARTCHAR uni30E4
ENCODING 12516
SWIDTH 1000 0
DWIDTH 8 0
BBX 6 7 1 -1
BITMAP
40
5C
E4
28
20
10
10
ENDCHAR
STARTCHAR uni30E5
ENCODING 12517
SWIDTH 1000 0
DWIDTH 8 0
BBX 5 4 1 -1
BITMAP
70
10
38
C0
ENDCHAR
STARTCHAR uni30E6
ENCODING 12518
SWIDTH 1000 0
DWIDTH 8 0
BBX 7 6 0 -1
BITMAP
18
68
08
08
3E
C0
ENDCHAR
STARTCHAR uni30E7
ENCODING 12519
SWIDTH 1000 0
DWIDTH 8 0
BBX 4 6 2 -1
BITMAP
30
D0
30
50
30
C0
ENDCHAR
STARTCHAR uni30E8
ENCODING 12520
SWIDTH 1000 0
DWIDTH 8 0
BBX 5 7 1 -1
BITMAP
38
C8
18
68
08
38
C0
ENDCHAR
STARTCHAR uni30E9
ENCODING 12521
SWIDTH 1000 0
DWIDTH 8 0
BBX 6 7 1 -1
BITMAP
18
60
1C
E4
08
10
60
ENDCHAR
STARTCHAR uni30EA
ENCODING 12522
SWIDTH 1000 0
DWIDTH 8 0
BBX 4 7 2 -1
BITMAP
20
90
90
90
10
20
C0
ENDCHAR
STARTCHAR uni30EB
ENCODING 12523
SWIDTH 1000 0
DWIDTH 8 0
BBX 7 6 0 -1
BITMAP
08
28
28
2A
4C
88
ENDCHAR
STARTCHAR uni30EC
ENCODING 12524
SWIDTH 1000 0
DWIDTH 8 0
BBX 6 7 1 -1
BITMAP
80
40
40
44
48
50
60
ENDCHAR
STARTCHAR uni30ED
ENCODING 12525
SWIDTH 1000 0
DWIDTH 8 0
BBX 7 6 0 -1
BITMAP
8E
72
42
44
7E
40
ENDCHAR
STARTCHAR uni30EE
ENCODING 12526
SWIDTH 1000 0
DWIDTH 8 0
BBX 5 5 1 -1
BITMAP
18
E8
88
10
60
ENDCHAR
STARTCHAR uni30EF
ENCODING 12527
SWIDTH 1000 0
DWIDTH 8 0
BBX 6 7 1 -1
BITMAP
1C
E4
84
04
08
10
60
ENDCHAR
STARTCHAR uni30F0
ENCODING 12528
SWIDTH 1000 0
DWIDTH 8 0
BBX 7 7 0 -1
BITMAP
08
0C
78
2E
F8
08
08
ENDCHAR
STARTCHAR uni30F1
ENCODING 12529
SWIDTH 1000 0
DWIDTH 8 0
BBX 7 6 0 -1
BITMAP
1C
68
10
10
3E
C0
ENDCHAR
STARTCHAR uni30F2
ENCODING 12530
SWIDTH 1000 0
DWIDTH 8 0
BBX 6 7 1 -1
BITMAP
1C
E4
1C
64
08
10
60
ENDCHAR
STARTCHAR uni30F3
ENCODING 12531
SWIDTH 1000 0
DWIDTH 8 0
BBX 6 6 1 -1
BITMAP
80
40
04
08
30
C0
ENDCHAR
STARTCHAR uni30F4
ENCODING 12532
SWIDTH 1000 0
DWIDTH 8 0
BBX 6 7 1 -1
BITMAP
14
1C
E4
84
08
10
60
ENDCHAR
STARTCHAR uni30F5
ENCODING 12533
SWIDTH 1000 0
DWIDTH 8 0
BBX 5 5 1 -1
BITMAP
20
38
E8
48
98
ENDCHAR
STARTCHAR uni30F6
ENCODING 12534
SWIDTH 1000 0
DWIDTH 8 0
BBX 5 5 1 -1
BITMAP
40
78
50
90
20
ENDCHAR
STARTCHAR uni30FB
ENCODING 12539
SWIDTH 1000 0
DWIDTH 8 0
BBX 2 2 2 1
BITMAP
C0
C0
ENDCHAR
STARTCHAR uni30FC
ENCODING 12540
SWIDTH 1000 0
DWIDTH 8 0
BBX 7 2 0 1
BITMAP
9E
60
ENDCHAR
STARTCHAR uni30FD
ENCODING 12541
SWIDTH 1000 0
DWIDTH 8 0
BBX 3 4 2 0
BITMAP
80
40
20
20
ENDCHAR
STARTCHAR uni30FE
ENCODING 12542
SWIDTH 1000 0
DWIDTH 8 0
BBX 5 6 2 0
BITMAP
28
00
80
40
20
20
ENDCHAR
STARTCHAR uni4E00
ENCODING 19968
SWIDTH 1000 0
DWIDTH 8 0
BBX 7 2 0 2
BITMAP
04
FE
ENDCHAR
STARTCHAR uni4E01
ENCODING 19969
SWIDTH 1000 0
DWIDTH 8 0
BBX 7 7 0 -1
BITMAP
FE
10
10
10
10
10
30
ENDCHAR
STARTCHAR uni4E03
ENCODING 19971
SWIDTH 1000 0
DWIDTH 8 0
BBX 7 7 0 -1
BITMAP
20
20
2E
F0
20
22
1E
ENDCHAR
STARTCHAR uni4E07
ENCODING 19975
SWIDTH 1000 0
DWIDTH 8 0
BBX 7 7 0 -1
BITMAP
FE
20
3C
24
24
44
8C
ENDCHAR
STARTCHAR uni4E08
ENCODING 19976
SWIDTH 1000 0
DWIDTH 8 0
BBX 7 7 0 -1
BITMAP
10
FE
10
50
30
10
EE
ENDCHAR
STARTCHAR uni4E09
ENCODING 19977
SWIDTH 1000 0
DWIDTH 8 0
BBX 7 6 0 -1
BITMAP
7C
00
38
00
00
FE
ENDCHAR
STARTCHAR uni4E0A
ENCODING 19978
SWIDTH 1000 0
DWIDTH 8 0
BBX 7 7 0 -1
BITMAP
10
10
1C
10
10
10
FE
ENDCHAR
STARTCHAR uni4E0B
ENCODING 19979
SWIDTH 1000 0
DWIDTH 8 0
BBX 7 7 0 -1
BITMAP
FE
10
18
14
10
10
10
ENDCHAR
STARTCHAR uni4E0D
ENCODING 19981
SWIDTH 1000 0
DWIDTH 8 0
BBX 7 7 0 -1
BITMAP
FE
10
18
34
D2
10
10
ENDCHAR
STARTCHAR uni4E0E
ENCODING 19982
SWIDTH 1000 0
DWIDTH 8 0
BBX 7 7 0 -1
BITMAP
20
3C
20
38
FE
08
18
ENDCHAR
STARTCHAR uni4E10
ENCODING 19984
SWIDTH 1000 0
DWIDTH 8 0
BBX 7 7 0 -1
BITMAP
FE
10
9C
90
FE
02
06
ENDCHAR
STARTCHAR uni4E11
ENCODING 19985
SWIDTH 1000 0
DWIDTH 8 0
BBX 7 7 0 -1
BITMAP
7C
14
14
FE
24
24
FE
ENDCHAR
STARTCHAR uni4E14
ENCODING 19988
SWIDTH 1000 0
DWIDTH 8 0
BBX 7 7 0 -1
BITMAP
7C
44
7C
44
7C
44
FE
ENDCHAR
STARTCHAR uni4E15
ENCODING 19989
SWIDTH 1000 0
DWIDTH 8 0
BBX 7 7 0 -1
BITMAP
FE
18
34
D2
10
10
FE
ENDCHAR
STARTCHAR uni4E16
ENCODING 19990
SWIDTH 1000 0
DWIDTH 8 0
BBX 7 7 0 -1
BITMAP
54
54
FE
54
5C
40
7E
ENDCHAR
STARTCHAR uni4E17
ENCODING 19991
SWIDTH 1000 0
DWIDTH 8 0
BBX 7 7 0 -1
BITMAP
54
54
FE
54
54
54
7C
ENDCHAR
STARTCHAR uni4E18
ENCODING 19992
SWIDTH 1000 0
DWIDTH 8 0
BBX 7 7 0 -1
BITMAP
0C
70
40
7C
48
48
FE
ENDCHAR
STARTCHAR uni4E19
ENCODING 19993
SWIDTH 1000 0
DWIDTH 8 0
BBX 7 7 0 -1
BITMAP
FE
10
FE
92
EE
82
86
ENDCHAR
STARTCHAR uni4E1E
ENCODING 19998
SWIDTH 1000 0
DWIDTH 8 0
BBX 7 7 0 -1
BITMAP
7C
08
D2
54
92
30
FE
ENDCHAR
STARTCHAR uni4E21
ENCODING 20001
SWIDTH 1000 0
DWIDTH 8 0
BBX 7 7 0 -1
BITMAP
FE
10
FE
92
D6
FE
82
ENDCHAR
STARTCHAR uni4E26
ENCODING 20006
SWIDTH 1000 0
DWIDTH 8 0
BBX 7 7 0 -1
BITMAP
24
FE
28
6A
6C
28
FE
ENDCHAR
STARTCHAR uni4E2A
ENCODING 20010
SWIDTH 1000 0
DWIDTH 8 0
BBX 7 7 0 -1
BITMAP
18
24
D2
10
10
10
10
ENDCHAR
STARTCHAR uni4E2D
ENCODING 20013
SWIDTH 1000 0
DWIDTH 8 0
BBX 7 7 0 -1
BITMAP
10
FE
92
92
FE
10
10
ENDCHAR
STARTCHAR uni4E31
ENCODING 20017
SWIDTH 1000 0
DWIDTH 8 0
BBX 7 7 0 -1
BITMAP
28
AA
AA
AA
EE
28
48
ENDCHAR
STARTCHAR uni4E32
ENCODING 20018
SWIDTH 1000 0
DWIDTH 8 0
BBX 7 7 0 -1
BITMAP
10
7C
7C
10
FE
FE
10
ENDCHAR
STARTCHAR uni4E36
ENCODING 20022
SWIDTH 1000 0
DWIDTH 8 0
BBX 3 4 2 1
BITMAP
80
40
20
20
ENDCHAR
STARTCHAR uni4E38
ENCODING 20024
SWIDTH 1000 0
DWIDTH 8 0
BBX 7 7 0 -1
BITMAP
20
F8
28
68
38
4A
8E
ENDCHAR
STARTCHAR uni4E39
ENCODING 20025
SWIDTH 1000 0
DWIDTH 8 0
BBX 7 7 0 -1
BITMAP
7C
44
54
44
FE
44
8C
ENDCHAR
STARTCHAR uni4E3B
ENCODING 20027
SWIDTH 1000 0
DWIDTH 8 0
BBX 7 7 0 -1
BITMAP
20
10
FE
10
7C
10
FE
ENDCHAR
STARTCHAR uni4E3C
ENCODING 20028
SWIDTH 1000 0
DWIDTH 8 0
BBX 7 7 0 -1
BITMAP
24
FE
34
24
FE
24
44
ENDCHAR
STARTCHAR uni4E3F
ENCODING 20031
SWIDTH 1000 0
DWIDTH 8 0
BBX 4 7 1 -1
BITMAP
10
10
10
10
10
20
C0
ENDCHAR
STARTCHAR uni4E42
ENCODING 20034
SWIDTH 1000 0
DWIDTH 8 0
BBX 7 7 0 -1
BITMAP
44
44
28
28
10
28
C6
ENDCHAR
STARTCHAR uni4E43
ENCODING 20035
SWIDTH 1000 0
DWIDTH 8 0
BBX 7 7 0 -1
BITMAP
F8
28
2E
22
42
42
86
ENDCHAR
STARTCHAR uni4E45
ENCODING 20037
SWIDTH 1000 0
DWIDTH 8 0
BBX 7 7 0 -1
BITMAP
3C
24
44
08
10
28
C6
ENDCHAR
STARTCHAR uni4E4B
ENCODING 20043
SWIDTH 1000 0
DWIDTH 8 0
BBX 7 7 0 -1
BITMAP
10
7C
04
08
50
60
9E
ENDCHAR
STARTCHAR uni4E4D
ENCODING 20045
SWIDTH 1000 0
DWIDTH 8 0
BBX 7 7 0 -1
BITMAP
40
7E
50
9E
10
1E
10
ENDCHAR
STARTCHAR uni4E4E
ENCODING 20046
SWIDTH 1000 0
DWIDTH 8 0
BBX 7 7 0 -1
BITMAP
0E
F0
54
10
FE
10
30
ENDCHAR
STARTCHAR uni4E4F
ENCODING 20047
SWIDTH 1000 0
DWIDTH 8 0
BBX 7 7 0 -1
BITMAP
7C
10
FC
08
50
60
9E
ENDCHAR
STARTCHAR uni4E55
ENCODING 20053
SWIDTH 1000 0
DWIDTH 8 0
BBX 7 7 0 -1
BITMAP
06
78
7E
7E
48
7E
AA
ENDCHAR
STARTCHAR uni4E56
ENCODING 20054
SWIDTH 1000 0
DWIDTH 8 0
BBX 7 7 0 -1
BITMAP
0C
70
FE
D6
54
D6
10
ENDCHAR
STARTCHAR uni4E57
ENCODING 20055
SWIDTH 1000 0
DWIDTH 8 0
BBX 7 7 0 -1
BITMAP
38
FE
54
FE
54
38
D6
ENDCHAR
STARTCHAR uni4E58
ENCODING 20056
SWIDTH 1000 0
DWIDTH 8 0
BBX 7 7 0 -1
BITMAP
0C
70
FE
54
D6
38
D6
ENDCHAR
STARTCHAR uni4E59
ENCODING 20057
SWIDTH 1000 0
DWIDTH 8 0
BBX 7 7 0 -1
BITMAP
F8
10
20
40
80
82
7E
ENDCHAR
STARTCHAR uni4E5D
ENCODING 20061
SWIDTH 1000 0
DWIDTH 8 0
BBX 7 7 0 -1
BITMAP
20
F8
28
28
48
4A
8E
ENDCHAR
STARTCHAR uni4E5E
ENCODING 20062
SWIDTH 1000 0
DWIDTH 8 0
BBX 7 7 0 -1
BITMAP
40
7E
40
B8
10
22
1E
ENDCHAR
STARTCHAR uni4E5F
ENCODING 20063
SWIDTH 1000 0
DWIDTH 8 0
BBX 7 7 0 -1
BITMAP
08
28
3E
EA
28
22
1E
ENDCHAR
STARTCHAR uni4E62
ENCODING 20066
SWIDTH 1000 0
DWIDTH 8 0
BBX 7 7 0 -1
BITMAP
28
28
28
A8
A8
FA
0E
ENDCHAR
STARTCHAR uni4E71
ENCODING 20081
SWIDTH 1000 0
DWIDTH 8 0
BBX 7 7 0 -1
BITMAP
18
68
F8
28
78
5A
7E
ENDCHAR
STARTCHAR uni4E73
ENCODING 20083
SWIDTH 1000 0
DWIDTH 8 0
BBX 7 7 0 -1
BITMAP
3C
D4
04
74
14
FC
36
ENDCHAR
STARTCHAR uni4E7E
ENCODING 20094
SWIDTH 1000 0
DWIDTH 8 0
BBX 7 7 0 -1
BITMAP
E8
4E
F0
EE
44
E8
46
ENDCHAR
STARTCHAR uni4E80
ENCODING 20096
SWIDTH 1000 0
DWIDTH 8 0
BBX 7 7 0 -1
BITMAP
38
C8
7C
FC
94
FC
0E
ENDCHAR
STARTCHAR uni4E82
ENCODING 20098
SWIDTH 1000 0
DWIDTH 8 0
BBX 7 7 0 -1
BITMAP
74
AC
74
14
F4
B4
D6
ENDCHAR
STARTCHAR uni4E85
ENCODING 20101
SWIDTH 1000 0
DWIDTH 8 0
BBX 2 7 2 -1
BITMAP
40
40
40
40
40
40
C0
ENDCHAR
STARTCHAR uni4E86
ENCODING 20102
SWIDTH 1000 0
DWIDTH 8 0
BBX 7 7 0 -1
BITMAP
FE
04
08
10
10
10
30
ENDCHAR
STARTCHAR uni4E88
ENCODING 20104
SWIDTH 1000 0
DWIDTH 8 0
BBX 7 7 0 -1
BITMAP
7C
14
08
FE
12
10
30
ENDCHAR
STARTCHAR uni4E89
ENCODING 20105
SWIDTH 1000 0
DWIDTH 8 0
BBX 7 7 0 -1
BITMAP
38
C8
7C
FE
14
7C
30
ENDCHAR
STARTCHAR uni4E8A
ENCODING 20106
SWIDTH 1000 0
DWIDTH 8 0
BBX 7 7 0 -1
BITMAP
10
FE
54
38
FE
7C
30
ENDCHAR
STARTCHAR uni4E8B
ENCODING 20107
SWIDTH 1000 0
DWIDTH 8 0
BBX 7 7 0 -1
BITMAP
10
FE
54
FC
16
FC
30
ENDCHAR
STARTCHAR uni4E8C
ENCODING 20108
SWIDTH 1000 0
DWIDTH 8 0
BBX 7 5 0 0
BITMAP
7C
00
00
00
FE
ENDCHAR
STARTCHAR uni4E8E
ENCODING 20110
SWIDTH 1000 0
DWIDTH 8 0
BBX 7 7 0 -1
BITMAP
7C
10
10
FE
10
10
30
ENDCHAR
STARTCHAR uni4E91
ENCODING 20113
SWIDTH 1000 0
DWIDTH 8 0
BBX 7 7 0 -1
BITMAP
7C
00
FE
10
10
24
FA
ENDCHAR
STARTCHAR uni4E92
ENCODING 20114
SWIDTH 1000 0
DWIDTH 8 0
BBX 7 7 0 -1
BITMAP
FE
20
3C
24
78
08
FE
ENDCHAR
STARTCHAR uni4E94
ENCODING 20116
SWIDTH 1000 0
DWIDTH 8 0
BBX 7 7 0 -1
BITMAP
7C
10
10
7C
24
24
FE
ENDCHAR
STARTCHAR uni4E95
ENCODING 20117
SWIDTH 1000 0
DWIDTH 8 0
BBX 7 7 0 -1
BITMAP
24
FE
24
24
FE
24
44
ENDCHAR
STARTCHAR uni4E98
ENCODING 20120
SWIDTH 1000 0
DWIDTH 8 0
BBX 7 7 0 -1
BITMAP
FE
7C
44
7C
44
7C
FE
ENDCHAR
STARTCHAR uni4E99
ENCODING 20121
SWIDTH 1000 0
DWIDTH 8 0
BBX 7 7 0 -1
BITMAP
FE
20
3C
2C
54
08
FE
ENDCHAR
STARTCHAR uni4E9B
ENCODING 20123
SWIDTH 1000 0
DWIDTH 8 0
BBX 7 7 0 -1
BITMAP
24
B6
A4
F6
7C
00
FE
ENDCHAR
STARTCHAR uni4E9C
ENCODING 20124
SWIDTH 1000 0
DWIDTH 8 0
BBX 7 7 0 -1
BITMAP
FE
28
FE
AA
FE
28
FE
ENDCHAR
STARTCHAR uni4E9E
ENCODING 20126
SWIDTH 1000 0
DWIDTH 8 0
BBX 7 7 0 -1
BITMAP
FE
28
EE
82
EE
28
FE
ENDCHAR
STARTCHAR uni4E9F
ENCODING 20127
SWIDTH 1000 0
DWIDTH 8 0
BBX 7 7 0 -1
BITMAP
FE
20
3E
DA
D4
3A
FE
ENDCHAR
STARTCHAR uni4EA0
ENCODING 20128
SWIDTH 1000 0
DWIDTH 8 0
BBX 7 3 0 2
BITMAP
10
10
FE
ENDCHAR
STARTCHAR uni4EA1
ENCODING 20129
SWIDTH 1000 0
DWIDTH 8 0
BBX 7 7 0 -1
BITMAP
10
FE
40
40
40
40
3E
ENDCHAR
STARTCHAR uni4EA2
ENCODING 20130
SWIDTH 1000 0
DWIDTH 8 0
BBX 7 7 0 -1
BITMAP
10
FE
00
38
28
2A
CE
ENDCHAR
STARTCHAR uni4EA4
ENCODING 20132
SWIDTH 1000 0
DWIDTH 8 0
BBX 7 7 0 -1
BITMAP
10
FE
28
C6
28
10
EE
ENDCHAR
STARTCHAR uni4EA5
ENCODING 20133
SWIDTH 1000 0
DWIDTH 8 0
BBX 7 7 0 -1
BITMAP
10
FE
20
6A
34
0C
F2
ENDCHAR
STARTCHAR uni4EA6
ENCODING 20134
SWIDTH 1000 0
DWIDTH 8 0
BBX 7 7 0 -1
BITMAP
10
FE
28
6C
6A
AA
58
ENDCHAR
STARTCHAR uni4EA8
ENCODING 20136
SWIDTH 1000 0
DWIDTH 8 0
BBX 7 7 0 -1
BITMAP
10
FE
24
7C
08
10
30
ENDCHAR
STARTCHAR uni4EAB
ENCODING 20139
SWIDTH 1000 0
DWIDTH 8 0
BBX 7 7 0 -1
BITMAP
10
FE
24
7C
08
FE
30
ENDCHAR
STARTCHAR uni4EAC
ENCODING 20140
SWIDTH 1000 0
DWIDTH 8 0
BBX 7 7 0 -1
BITMAP
10
FE
44
7C
10
54
B2
ENDCHAR
STARTCHAR uni4EAD
ENCODING 20141
SWIDTH 1000 0
DWIDTH 8 0
BBX 7 7 0 -1
BITMAP
10
FE
24
FE
BA
10
30
ENDCHAR
STARTCHAR uni4EAE
ENCODING 20142
SWIDTH 1000 0
DWIDTH 8 0
BBX 7 7 0 -1
BITMAP
10
FE
24
FE
82
28
CE
ENDCHAR
STARTCHAR uni4EB0
ENCODING 20144
SWIDTH 1000 0
DWIDTH 8 0
BBX 7 7 0 -1
BITMAP
10
FE
44
7C
7C
10
B2
ENDCHAR
STARTCHAR uni4EB3
ENCODING 20147
SWIDTH 1000 0
DWIDTH 8 0
BBX 7 7 0 -1
BITMAP
10
FE
24
FE
9A
70
1E
ENDCHAR
STARTCHAR uni4EB6
ENCODING 20150
SWIDTH 1000 0
DWIDTH 8 0
BBX 7 7 0 -1
BITMAP
10
FE
44
7C
38
28
FE
ENDCHAR
STARTCHAR uni4EBA
ENCODING 20154
SWIDTH 1000 0
DWIDTH 8 0
BBX 7 7 0 -1
BITMAP
10
10
10
10
10
28
C6
ENDCHAR
STARTCHAR uni4EC0
ENCODING 20160
SWIDTH 1000 0
DWIDTH 8 0
BBX 7 7 0 -1
BITMAP
24
44
DE
44
44
44
44
ENDCHAR
STARTCHAR uni4EC1
ENCODING 20161
SWIDTH 1000 0
DWIDTH 8 0
BBX 7 7 0 -1
BITMAP
20
5C
C0
40
40
7E
40
ENDCHAR
STARTCHAR uni4EC2
ENCODING 20162
SWIDTH 1000 0
DWIDTH 8 0
BBX 7 7 0 -1
BITMAP
28
5E
CA
4A
4A
4A
56
ENDCHAR
STARTCHAR uni4EC4
ENCODING 20164
SWIDTH 1000 0
DWIDTH 8 0
BBX 7 7 0 -1
BITMAP
7E
48
48
48
48
54
A2
ENDCHAR
STARTCHAR uni4EC6
ENCODING 20166
SWIDTH 1000 0
DWIDTH 8 0
BBX 7 7 0 -1
BITMAP
28
48
C8
4C
4A
48
48
ENDCHAR
STARTCHAR uni4EC7
ENCODING 20167
SWIDTH 1000 0
DWIDTH 8 0
BBX 7 7 0 -1
BITMAP
50
7C
D4
D4
54
54
66
ENDCHAR
STARTCHAR uni4ECA
ENCODING 20170
SWIDTH 1000 0
DWIDTH 8 0
BBX 7 7 0 -1
BITMAP
18
24
DA
00
7E
04
18
ENDCHAR
STARTCHAR uni4ECB
ENCODING 20171
SWIDTH 1000 0
DWIDTH 8 0
BBX 7 7 0 -1
BITMAP
18
24
C2
24
24
24
44
ENDCHAR
STARTCHAR uni4ECD
ENCODING 20173
SWIDTH 1000 0
DWIDTH 8 0
BBX 7 7 0 -1
BITMAP
3C
54
D6
52
52
52
66
ENDCHAR
STARTCHAR uni4ECE
ENCODING 20174
SWIDTH 1000 0
DWIDTH 8 0
BBX 7 7 0 -1
BITMAP
24
24
24
24
54
4A
92
ENDCHAR
STARTCHAR uni4ECF
ENCODING 20175
SWIDTH 1000 0
DWIDTH 8 0
BBX 7 7 0 -1
BITMAP
28
48
C8
48
50
54
7A
ENDCHAR
STARTCHAR uni4ED4
ENCODING 20180
SWIDTH 1000 0
DWIDTH 8 0
BBX 7 7 0 -1
BITMAP
2E
42
C4
5E
44
44
4C
ENDCHAR
STARTCHAR uni4ED5
ENCODING 20181
SWIDTH 1000 0
DWIDTH 8 0
BBX 7 7 0 -1
BITMAP
28
48
FE
48
48
48
5C
ENDCHAR
STARTCHAR uni4ED6
ENCODING 20182
SWIDTH 1000 0
DWIDTH 8 0
BBX 7 7 0 -1
BITMAP
24
54
DE
76
54
52
5E
ENDCHAR
STARTCHAR uni4ED7
ENCODING 20183
SWIDTH 1000 0
DWIDTH 8 0
BBX 7 7 0 -1
BITMAP
24
5E
C4
44
4C
44
5A
ENDCHAR
STARTCHAR uni4ED8
ENCODING 20184
SWIDTH 1000 0
DWIDTH 8 0
BBX 7 7 0 -1
BITMAP
22
5E
C2
52
4A
42
46
ENDCHAR
STARTCHAR uni4ED9
ENCODING 20185
SWIDTH 1000 0
DWIDTH 8 0
BBX 7 7 0 -1
BITMAP
28
48
EA
6A
6A
6A
7E
ENDCHAR
STARTCHAR uni4EDD
ENCODING 20189
SWIDTH 1000 0
DWIDTH 8 0
BBX 7 7 0 -1
BITMAP
18
24
C2
7C
10
10
FE
ENDCHAR
STARTCHAR uni4EDE
ENCODING 20190
SWIDTH 1000 0
DWIDTH 8 0
BBX 7 7 0 -1
BITMAP
3E
4A
DA
5A
6A
4A
56
ENDCHAR
STARTCHAR uni4EDF
ENCODING 20191
SWIDTH 1000 0
DWIDTH 8 0
BBX 7 7 0 -1
BITMAP
24
58
C8
7E
48
48
48
ENDCHAR
STARTCHAR uni4EE3
ENCODING 20195
SWIDTH 1000 0
DWIDTH 8 0
BBX 7 7 0 -1
BITMAP
2A
48
FE
48
44
44
42
ENDCHAR
STARTCHAR uni4EE4
ENCODING 20196
SWIDTH 1000 0
DWIDTH 8 0
BBX 7 7 0 -1
BITMAP
18
24
DA
00
7E
12
10
ENDCHAR
STARTCHAR uni4EE5
ENCODING 20197
SWIDTH 1000 0
DWIDTH 8 0
BBX 7 7 0 -1
BITMAP
44
54
4C
44
64
8C
32
ENDCHAR
STARTCHAR uni4EED
ENCODING 20205
SWIDTH 1000 0
DWIDTH 8 0
BBX 7 7 0 -1
BITMAP
3E
4A
DA
4A
4E
4A
56
ENDCHAR
STARTCHAR uni4EEE
ENCODING 20206
SWIDTH 1000 0
DWIDTH 8 0
BBX 7 7 0 -1
BITMAP
3E
50
DE
5A
5A
54
6A
ENDCHAR
STARTCHAR uni4EF0
ENCODING 20208
SWIDTH 1000 0
DWIDTH 8 0
BBX 7 7 0 -1
BITMAP
50
6E
EA
EA
7A
68
48
ENDCHAR
STARTCHAR uni4EF2
ENCODING 20210
SWIDTH 1000 0
DWIDTH 8 0
BBX 7 7 0 -1
BITMAP
28
7E
EA
6A
7E
48
48
ENDCHAR
STARTCHAR uni4EF6
ENCODING 20214
SWIDTH 1000 0
DWIDTH 8 0
BBX 7 7 0 -1
BITMAP
2C
4E
D4
44
5E
44
44
ENDCHAR
STARTCHAR uni4EF7
ENCODING 20215
SWIDTH 1000 0
DWIDTH 8 0
BBX 7 7 0 -1
BITMAP
28
54
E2
54
54
54
64
ENDCHAR
STARTCHAR uni4EFB
ENCODING 20219
SWIDTH 1000 0
DWIDTH 8 0
BBX 7 7 0 -1
BITMAP
26
58
C8
7E
48
48
5E
ENDCHAR
STARTCHAR uni4F01
ENCODING 20225
SWIDTH 1000 0
DWIDTH 8 0
BBX 7 7 0 -1
BITMAP
18
24
D2
10
5C
50
FE
ENDCHAR
STARTCHAR uni4F09
ENCODING 20233
SWIDTH 1000 0
DWIDTH 8 0
BBX 7 7 0 -1
BITMAP
28
7E
C0
5C
54
54
66
ENDCHAR
STARTCHAR uni4F0A
ENCODING 20234
SWIDTH 1000 0
DWIDTH 8 0
BBX 7 7 0 -1
BITMAP
3E
4A
FE
4A
5E
48
50
ENDCHAR
STARTCHAR uni4F0D
ENCODING 20237
SWIDTH 1000 0
DWIDTH 8 0
BBX 7 7 0 -1
BITMAP
3C
48
C8
7C
54
54
7E
ENDCHAR
STARTCHAR uni4F0E
ENCODING 20238
SWIDTH 1000 0
DWIDTH 8 0
BBX 7 7 0 -1
BITMAP
28
7E
C8
7C
54
48
76
ENDCHAR
STARTCHAR uni4F0F
ENCODING 20239
SWIDTH 1000 0
DWIDTH 8 0
BBX 7 7 0 -1
BITMAP
2A
48
FE
48
48
54
62
ENDCHAR
STARTCHAR uni4F10
ENCODING 20240
SWIDTH 1000 0
DWIDTH 8 0
BBX 7 7 0 -1
BITMAP
2A
48
DE
48
4A
44
5A
ENDCHAR
STARTCHAR uni4F11
ENCODING 20241
SWIDTH 1000 0
DWIDTH 8 0
BBX 7 7 0 -1
BITMAP
28
7E
C8
5C
5C
6A
48
ENDCHAR
STARTCHAR uni4F1A
ENCODING 20250
SWIDTH 1000 0
DWIDTH 8 0
BBX 7 7 0 -1
BITMAP
18
24
DA
00
FE
24
FA
ENDCHAR
STARTCHAR uni4F1C
ENCODING 20252
SWIDTH 1000 0
DWIDTH 8 0
BBX 7 7 0 -1
BITMAP
28
7C
D4
66
48
7E
48
ENDCHAR
STARTCHAR uni4F1D
ENCODING 20253
SWIDTH 1000 0
DWIDTH 8 0
BBX 7 7 0 -1
BITMAP
2E
40
DE
44
44
4A
5E
ENDCHAR
STARTCHAR uni4F2F
ENCODING 20271
SWIDTH 1000 0
DWIDTH 8 0
BBX 7 7 0 -1
BITMAP
28
5E
D2
5E
52
52
5E
ENDCHAR
STARTCHAR uni4F30
ENCODING 20272
SWIDTH 1000 0
DWIDTH 8 0
BBX 7 7 0 -1
BITMAP
28
48
FE
48
5E
52
5E
ENDCHAR
STARTCHAR uni4F34
ENCODING 20276
SWIDTH 1000 0
DWIDTH 8 0
BBX 7 7 0 -1
BITMAP
24
56
C4
5E
44
5E
44
ENDCHAR
STARTCHAR uni4F36
ENCODING 20278
SWIDTH 1000 0
DWIDTH 8 0
BBX 7 7 0 -1
BITMAP
28
54
EE
40
7E
4A
48
ENDCHAR
STARTCHAR uni4F38
ENCODING 20280
SWIDTH 1000 0
DWIDTH 8 0
BBX 7 7 0 -1
BITMAP
28
7E
EA
7E
6A
7E
48
ENDCHAR
STARTCHAR uni4F3A
ENCODING 20282
SWIDTH 1000 0
DWIDTH 8 0
BBX 7 7 0 -1
BITMAP
3E
42
DA
42
5A
5A
46
ENDCHAR
STARTCHAR uni4F3C
ENCODING 20284
SWIDTH 1000 0
DWIDTH 8 0
BBX 7 7 0 -1
BITMAP
32
56
D2
5A
52
64
4A
ENDCHAR
STARTCHAR uni4F3D
ENCODING 20285
SWIDTH 1000 0
DWIDTH 8 0
BBX 7 7 0 -1
BITMAP
50
7E
DA
DA
5A
6A
6E
ENDCHAR
STARTCHAR uni4F43
ENCODING 20291
SWIDTH 1000 0
DWIDTH 8 0
BBX 7 7 0 -1
BITMAP
3E
6A
EA
7E
6A
6A
7E
ENDCHAR
STARTCHAR uni4F46
ENCODING 20294
SWIDTH 1000 0
DWIDTH 8 0
BBX 7 7 0 -1
BITMAP
3E
52
DE
52
5E
40
5E
ENDCHAR
STARTCHAR uni4F47
ENCODING 20295
SWIDTH 1000 0
DWIDTH 8 0
BBX 7 7 0 -1
BITMAP
24
5E
D2
4E
44
44
4C
ENDCHAR
STARTCHAR uni4F4D
ENCODING 20301
SWIDTH 1000 0
DWIDTH 8 0
BBX 7 7 0 -1
BITMAP
24
5E
CA
4A
4A
4C
5E
ENDCHAR
STARTCHAR uni4F4E
ENCODING 20302
SWIDTH 1000 0
DWIDTH 8 0
BBX 7 7 0 -1
BITMAP
22
5C
D4
5E
54
52
7E
ENDCHAR
STARTCHAR uni4F4F
ENCODING 20303
SWIDTH 1000 0
DWIDTH 8 0
BBX 7 7 0 -1
BITMAP
28
44
DE
44
4E
44
5E
ENDCHAR
STARTCHAR uni4F50
ENCODING 20304
SWIDTH 1000 0
DWIDTH 8 0
BBX 7 7 0 -1
BITMAP
50
7E
D0
DE
54
64
5E
ENDCHAR
STARTCHAR uni4F51
ENCODING 20305
SWIDTH 1000 0
DWIDTH 8 0
BBX 7 7 0 -1
BITMAP
50
7E
D0
DE
72
52
5E
ENDCHAR
STARTCHAR uni4F53
ENCODING 20307
SWIDTH 1000 0
DWIDTH 8 0
BBX 7 7 0 -1
BITMAP
28
7E
C8
5C
6A
5C
48
ENDCHAR
STARTCHAR uni4F55
ENCODING 20309
SWIDTH 1000 0
DWIDTH 8 0
BBX 7 7 0 -1
BITMAP
3E
42
DE
56
5E
42
46
ENDCHAR
STARTCHAR uni4F57
ENCODING 20311
SWIDTH 1000 0
DWIDTH 8 0
BBX 7 7 0 -1
BITMAP
28
7E
E2
54
58
52
5E
ENDCHAR
STARTCHAR uni4F59
ENCODING 20313
SWIDTH 1000 0
DWIDTH 8 0
BBX 7 7 0 -1
BITMAP
18
24
FA
10
FE
10
92
ENDCHAR
STARTCHAR uni4F5A
ENCODING 20314
SWIDTH 1000 0
DWIDTH 8 0
BBX 7 7 0 -1
BITMAP
2C
4E
D4
5E
44
44
5A
ENDCHAR
STARTCHAR uni4F5B
ENCODING 20315
SWIDTH 1000 0
DWIDTH 8 0
BBX 7 7 0 -1
BITMAP
54
7E
DE
F4
7E
56
64
ENDCHAR
STARTCHAR uni4F5C
ENCODING 20316
SWIDTH 1000 0
DWIDTH 8 0
BBX 7 7 0 -1
BITMAP
28
4E
D8
4E
48
4E
48
ENDCHAR
STARTCHAR uni4F5D
ENCODING 20317
SWIDTH 1000 0
DWIDTH 8 0
BBX 7 7 0 -1
BITMAP
28
4E
D2
4E
4E
42
46
ENDCHAR
STARTCHAR uni4F5E
ENCODING 20318
SWIDTH 1000 0
DWIDTH 8 0
BBX 7 7 0 -1
BITMAP
2C
40
DE
48
5E
4C
5A
ENDCHAR
STARTCHAR uni4F69
ENCODING 20329
SWIDTH 1000 0
DWIDTH 8 0
BBX 7 7 0 -1
BITMAP
3E
62
FE
6A
7E
7E
6A
ENDCHAR
STARTCHAR uni4F6F
ENCODING 20335
SWIDTH 1000 0
DWIDTH 8 0
BBX 7 7 0 -1
BITMAP
54
7E
C8
DC
48
7E
48
ENDCHAR
STARTCHAR uni4F70
ENCODING 20336
SWIDTH 1000 0
DWIDTH 8 0
BBX 7 7 0 -1
BITMAP
3E
48
DE
52
5E
52
5E
ENDCHAR
STARTCHAR uni4F73
ENCODING 20339
SWIDTH 1000 0
DWIDTH 8 0
BBX 7 7 0 -1
BITMAP
28
5C
C8
7E
5C
48
7E
ENDCHAR
STARTCHAR uni4F75
ENCODING 20341
SWIDTH 1000 0
DWIDTH 8 0
BBX 7 7 0 -1
BITMAP
34
40
FE
54
7E
54
64
ENDCHAR
STARTCHAR uni4F76
ENCODING 20342
SWIDTH 1000 0
DWIDTH 8 0
BBX 7 7 0 -1
BITMAP
28
5E
C8
5E
40
5E
5E
ENDCHAR
STARTCHAR uni4F7B
ENCODING 20347
SWIDTH 1000 0
DWIDTH 8 0
BBX 7 7 0 -1
BITMAP
54
76
D4
F6
54
54
66
ENDCHAR
STARTCHAR uni4F7C
ENCODING 20348
SWIDTH 1000 0
DWIDTH 8 0
BBX 7 7 0 -1
BITMAP
28
7E
D4
62
54
48
76
ENDCHAR
STARTCHAR uni4F7F
ENCODING 20351
SWIDTH 1000 0
DWIDTH 8 0
BBX 7 7 0 -1
BITMAP
28
7E
DA
5E
78
48
76
ENDCHAR
STARTCHAR uni4F83
ENCODING 20355
SWIDTH 1000 0
DWIDTH 8 0
BBX 7 7 0 -1
BITMAP
3E
52
DE
40
5A
5A
6A
ENDCHAR
STARTCHAR uni4F86
ENCODING 20358
SWIDTH 1000 0
DWIDTH 8 0
BBX 7 7 0 -1
BITMAP
10
FE
54
54
BA
38
D6
ENDCHAR
STARTCHAR uni4F88
ENCODING 20360
SWIDTH 1000 0
DWIDTH 8 0
BBX 7 7 0 -1
BITMAP
2C
54
C8
76
4A
44
58
ENDCHAR
STARTCHAR uni4F8B
ENCODING 20363
SWIDTH 1000 0
DWIDTH 8 0
BBX 7 7 0 -1
BITMAP
3A
56
DE
6E
5A
52
66
ENDCHAR
STARTCHAR uni4F8D
ENCODING 20365
SWIDTH 1000 0
DWIDTH 8 0
BBX 7 7 0 -1
BITMAP
28
5C
C8
7E
44
7E
54
ENDCHAR
STARTCHAR uni4F8F
ENCODING 20367
SWIDTH 1000 0
DWIDTH 8 0
BBX 7 7 0 -1
BITMAP
38
5E
E8
5E
48
5C
6A
ENDCHAR
STARTCHAR uni4F91
ENCODING 20369
SWIDTH 1000 0
DWIDTH 8 0
BBX 7 7 0 -1
BITMAP
28
5E
C8
4E
5A
4E
4A
ENDCHAR
STARTCHAR uni4F96
ENCODING 20374
SWIDTH 1000 0
DWIDTH 8 0
BBX 7 7 0 -1
BITMAP
18
24
DA
00
7E
7E
56
ENDCHAR
STARTCHAR uni4F98
ENCODING 20376
SWIDTH 1000 0
DWIDTH 8 0
BBX 7 7 0 -1
BITMAP
28
7E
E6
58
7E
48
4E
ENDCHAR
STARTCHAR uni4F9B
ENCODING 20379
SWIDTH 1000 0
DWIDTH 8 0
BBX 7 7 0 -1
BITMAP
54
7E
D4
D4
7E
40
62
ENDCHAR
STARTCHAR uni4F9D
ENCODING 20381
SWIDTH 1000 0
DWIDTH 8 0
BBX 7 7 0 -1
BITMAP
28
7E
C8
50
7A
54
5A
ENDCHAR
STARTCHAR uni4FA0
ENCODING 20384
SWIDTH 1000 0
DWIDTH 8 0
BBX 7 7 0 -1
BITMAP
28
7E
C8
6A
7E
48
76
ENDCHAR
STARTCHAR uni4FA1
ENCODING 20385
SWIDTH 1000 0
DWIDTH 8 0
BBX 7 7 0 -1
BITMAP
3E
48
DE
5A
5A
5A
5E
ENDCHAR
STARTCHAR uni4FAB
ENCODING 20395
SWIDTH 1000 0
DWIDTH 8 0
BBX 7 7 0 -1
BITMAP
24
5E
C8
4E
5E
4C
5A
ENDCHAR
STARTCHAR uni4FAD
ENCODING 20397
SWIDTH 1000 0
DWIDTH 8 0
BBX 7 7 0 -1
BITMAP
3E
52
DE
54
6A
40
4C
ENDCHAR
STARTCHAR uni4FAE
ENCODING 20398
SWIDTH 1000 0
DWIDTH 8 0
BBX 7 7 0 -1
BITMAP
30
5E
EC
4C
76
5C
44
ENDCHAR
STARTCHAR uni4FAF
ENCODING 20399
SWIDTH 1000 0
DWIDTH 8 0
BBX 7 7 0 -1
BITMAP
2C
44
DE
48
5E
44
5A
ENDCHAR
STARTCHAR uni4FB5
ENCODING 20405
SWIDTH 1000 0
DWIDTH 8 0
BBX 7 7 0 -1
BITMAP
3C
44
DC
7E
54
48
76
ENDCHAR
STARTCHAR uni4FB6
ENCODING 20406
SWIDTH 1000 0
DWIDTH 8 0
BBX 7 7 0 -1
BITMAP
3E
52
DE
48
5E
52
5E
ENDCHAR
STARTCHAR uni4FBF
ENCODING 20415
SWIDTH 1000 0
DWIDTH 8 0
BBX 7 7 0 -1
BITMAP
3E
5C
DC
48
58
48
76
ENDCHAR
STARTCHAR uni4FC2
ENCODING 20418
SWIDTH 1000 0
DWIDTH 8 0
BBX 7 7 0 -1
BITMAP
3E
48
D0
4A
7E
48
6A
ENDCHAR
STARTCHAR uni4FC3
ENCODING 20419
SWIDTH 1000 0
DWIDTH 8 0
BBX 7 7 0 -1
BITMAP
3E
52
DE
44
56
54
6E
ENDCHAR
STARTCHAR uni4FC4
ENCODING 20420
SWIDTH 1000 0
DWIDTH 8 0
BBX 7 7 0 -1
BITMAP
4E
74
FE
D4
56
7C
52
ENDCHAR
STARTCHAR uni4FCA
ENCODING 20426
SWIDTH 1000 0
DWIDTH 8 0
BBX 7 7 0 -1
BITMAP
32
7E
D4
66
4C
54
6A
ENDCHAR
STARTCHAR uni4FCE
ENCODING 20430
SWIDTH 1000 0
DWIDTH 8 0
BBX 7 7 0 -1
BITMAP
5C
54
BC
14
5C
54
BE
ENDCHAR
STARTCHAR uni4FD0
ENCODING 20432
SWIDTH 1000 0
DWIDTH 8 0
BBX 7 7 0 -1
BITMAP
3A
56
FE
56
7A
72
56
ENDCHAR
STARTCHAR uni4FD1
ENCODING 20433
SWIDTH 1000 0
DWIDTH 8 0
BBX 7 7 0 -1
BITMAP
3E
44
FE
6A
7E
6A
6A
ENDCHAR
STARTCHAR uni4FD4
ENCODING 20436
SWIDTH 1000 0
DWIDTH 8 0
BBX 7 7 0 -1
BITMAP
3E
52
DE
52
5E
4C
56
ENDCHAR
STARTCHAR uni4FD7
ENCODING 20439
SWIDTH 1000 0
DWIDTH 8 0
BBX 7 7 0 -1
BITMAP
54
62
C8
D4
62
5C
5C
ENDCHAR
STARTCHAR uni4FD8
ENCODING 20440
SWIDTH 1000 0
DWIDTH 8 0
BBX 7 7 0 -1
BITMAP
3C
6A
C0
5C
44
7E
4C
ENDCHAR
STARTCHAR uni4FDA
ENCODING 20442
SWIDTH 1000 0
DWIDTH 8 0
BBX 7 7 0 -1
BITMAP
3E
6A
FE
6A
7E
48
7E
ENDCHAR
STARTCHAR uni4FDB
ENCODING 20443
SWIDTH 1000 0
DWIDTH 8 0
BBX 7 7 0 -1
BITMAP
2C
54
FE
6A
7E
54
66
ENDCHAR
STARTCHAR uni4FDD
ENCODING 20445
SWIDTH 1000 0
DWIDTH 8 0
BBX 7 7 0 -1
BITMAP
3C
54
DC
48
7E
5C
6A
ENDCHAR
STARTCHAR uni4FDF
ENCODING 20447
SWIDTH 1000 0
DWIDTH 8 0
BBX 7 7 0 -1
BITMAP
28
52
DE
48
5E
44
5A
ENDCHAR
STARTCHAR uni4FE1
ENCODING 20449
SWIDTH 1000 0
DWIDTH 8 0
BBX 7 7 0 -1
BITMAP
2C
5E
C0
4C
40
5E
5E
ENDCHAR
STARTCHAR uni4FE3
ENCODING 20451
SWIDTH 1000 0
DWIDTH 8 0
BBX 7 7 0 -1
BITMAP
3C
54
FE
48
5C
48
76
ENDCHAR
STARTCHAR uni4FE4
ENCODING 20452
SWIDTH 1000 0
DWIDTH 8 0
BBX 7 7 0 -1
BITMAP
54
7E
CA
FE
68
5E
6A
ENDCHAR
STARTCHAR uni4FE5
ENCODING 20453
SWIDTH 1000 0
DWIDTH 8 0
BBX 7 7 0 -1
BITMAP
28
7E
DC
5C
5C
7E
48
ENDCHAR
STARTCHAR uni4FEE
ENCODING 20462
SWIDTH 1000 0
DWIDTH 8 0
BBX 7 7 0 -1
BITMAP
28
6E
F4
6A
64
62
4C
ENDCHAR
STARTCHAR uni4FEF
ENCODING 20463
SWIDTH 1000 0
DWIDTH 8 0
BBX 7 7 0 -1
BITMAP
28
7E
E0
6A
76
72
56
ENDCHAR
STARTCHAR uni4FF3
ENCODING 20467
SWIDTH 1000 0
DWIDTH 8 0
BBX 7 7 0 -1
BITMAP
54
76
D4
F6
54
76
54
ENDCHAR
STARTCHAR uni4FF5
ENCODING 20469
SWIDTH 1000 0
DWIDTH 8 0
BBX 7 7 0 -1
BITMAP
28
7E
C8
7C
5A
74
5A
ENDCHAR
STARTCHAR uni4FF6
ENCODING 20470
SWIDTH 1000 0
DWIDTH 8 0
BBX 7 7 0 -1
BITMAP
36
5A
D2
7A
54
74
5A
ENDCHAR
STARTCHAR uni4FF8
ENCODING 20472
SWIDTH 1000 0
DWIDTH 8 0
BBX 7 7 0 -1
BITMAP
28
5C
FE
54
6A
5C
48
ENDCHAR
STARTCHAR uni4FFA
ENCODING 20474
SWIDTH 1000 0
DWIDTH 8 0
BBX 7 7 0 -1
BITMAP
28
7E
D4
6A
5C
5C
46
ENDCHAR
STARTCHAR uni4FFE
ENCODING 20478
SWIDTH 1000 0
DWIDTH 8 0
BBX 7 7 0 -1
BITMAP
28
7E
EA
7E
54
7E
44
ENDCHAR
STARTCHAR uni5005
ENCODING 20485
SWIDTH 1000 0
DWIDTH 8 0
BBX 7 7 0 -1
BITMAP
28
7E
D4
54
6A
7E
48
ENDCHAR
STARTCHAR uni5006
ENCODING 20486
SWIDTH 1000 0
DWIDTH 8 0
BBX 7 7 0 -1
BITMAP
3E
48
FE
6A
7E
7E
6A
ENDCHAR
STARTCHAR uni5009
ENCODING 20489
SWIDTH 1000 0
DWIDTH 8 0
BBX 7 7 0 -1
BITMAP
18
34
FA
38
20
5C
9C
ENDCHAR
STARTCHAR uni500B
ENCODING 20491
SWIDTH 1000 0
DWIDTH 8 0
BBX 7 7 0 -1
BITMAP
3E
6A
FE
6A
76
7E
7E
ENDCHAR
STARTCHAR uni500D
ENCODING 20493
SWIDTH 1000 0
DWIDTH 8 0
BBX 7 7 0 -1
BITMAP
28
7E
D4
7E
40
5C
5C
ENDCHAR
STARTCHAR uni500F
ENCODING 20495
SWIDTH 1000 0
DWIDTH 8 0
BBX 7 7 0 -1
BITMAP
2C
74
E8
74
7E
48
76
ENDCHAR
STARTCHAR uni5011
ENCODING 20497
SWIDTH 1000 0
DWIDTH 8 0
BBX 7 7 0 -1
BITMAP
36
76
F6
62
62
62
66
ENDCHAR
STARTCHAR uni5012
ENCODING 20498
SWIDTH 1000 0
DWIDTH 8 0
BBX 7 7 0 -1
BITMAP
3A
56
E6
7E
52
7A
46
ENDCHAR
STARTCHAR uni5014
ENCODING 20500
SWIDTH 1000 0
DWIDTH 8 0
BBX 7 7 0 -1
BITMAP
3E
5E
D4
56
5E
54
6E
ENDCHAR
STARTCHAR uni5016
ENCODING 20502
SWIDTH 1000 0
DWIDTH 8 0
BBX 7 7 0 -1
BITMAP
28
5C
FE
54
7E
5C
48
ENDCHAR
STARTCHAR uni5019
ENCODING 20505
SWIDTH 1000 0
DWIDTH 8 0
BBX 7 7 0 -1
BITMAP
2C
64
FE
68
7E
64
5A
ENDCHAR
STARTCHAR uni501A
ENCODING 20506
SWIDTH 1000 0
DWIDTH 8 0
BBX 7 7 0 -1
BITMAP
28
7E
C8
54
7E
44
54
ENDCHAR
STARTCHAR uni501F
ENCODING 20511
SWIDTH 1000 0
DWIDTH 8 0
BBX 7 7 0 -1
BITMAP
54
7E
D4
FE
5C
54
5C
ENDCHAR
STARTCHAR uni5021
ENCODING 20513
SWIDTH 1000 0
DWIDTH 8 0
BBX 7 7 0 -1
BITMAP
5C
54
FE
E2
7E
62
7E
ENDCHAR
STARTCHAR uni5023
ENCODING 20515
SWIDTH 1000 0
DWIDTH 8 0
BBX 7 7 0 -1
BITMAP
54
7E
D6
DE
5E
6C
6A
ENDCHAR
STARTCHAR uni5024
ENCODING 20516
SWIDTH 1000 0
DWIDTH 8 0
BBX 7 7 0 -1
BITMAP
28
7E
C8
6C
6C
60
7E
ENDCHAR
STARTCHAR uni5025
ENCODING 20517
SWIDTH 1000 0
DWIDTH 8 0
BBX 7 7 0 -1
BITMAP
28
7E
F6
40
5C
48
7E
ENDCHAR
STARTCHAR uni5026
ENCODING 20518
SWIDTH 1000 0
DWIDTH 8 0
BBX 7 7 0 -1
BITMAP
2A
5C
FE
54
6A
50
5C
ENDCHAR
STARTCHAR uni5028
ENCODING 20520
SWIDTH 1000 0
DWIDTH 8 0
BBX 7 7 0 -1
BITMAP
3E
5E
D4
5E
54
5A
6E
ENDCHAR
STARTCHAR uni5029
ENCODING 20521
SWIDTH 1000 0
DWIDTH 8 0
BBX 7 7 0 -1
BITMAP
24
5E
C4
7E
56
5E
52
ENDCHAR
STARTCHAR uni502A
ENCODING 20522
SWIDTH 1000 0
DWIDTH 8 0
BBX 7 7 0 -1
BITMAP
36
62
F6
62
7E
54
66
ENDCHAR
STARTCHAR uni502B
ENCODING 20523
SWIDTH 1000 0
DWIDTH 8 0
BBX 7 7 0 -1
BITMAP
28
54
EE
40
7E
7E
6A
ENDCHAR
STARTCHAR uni502C
ENCODING 20524
SWIDTH 1000 0
DWIDTH 8 0
BBX 7 7 0 -1
BITMAP
28
4E
DC
54
5C
7E
48
ENDCHAR
STARTCHAR uni502D
ENCODING 20525
SWIDTH 1000 0
DWIDTH 8 0
BBX 7 7 0 -1
BITMAP
5C
7E
DC
EA
7E
54
7A
ENDCHAR
STARTCHAR uni5036
ENCODING 20534
SWIDTH 1000 0
DWIDTH 8 0
BBX 7 7 0 -1
BITMAP
3C
54
DC
54
7E
40
62
ENDCHAR
STARTCHAR uni5039
ENCODING 20537
SWIDTH 1000 0
DWIDTH 8 0
BBX 7 7 0 -1
BITMAP
28
54
FE
6A
7E
48
76
ENDCHAR
STARTCHAR uni5043
ENCODING 20547
SWIDTH 1000 0
DWIDTH 8 0
BBX 7 7 0 -1
BITMAP
3E
6C
EC
7A
64
6A
7E
ENDCHAR
STARTCHAR uni5047
ENCODING 20551
SWIDTH 1000 0
DWIDTH 8 0
BBX 7 7 0 -1
BITMAP
36
72
E6
7E
6A
74
6A
ENDCHAR
STARTCHAR uni5048
ENCODING 20552
SWIDTH 1000 0
DWIDTH 8 0
BBX 7 7 0 -1
BITMAP
3C
54
DC
5E
72
5A
46
ENDCHAR
STARTCHAR uni5049
ENCODING 20553
SWIDTH 1000 0
DWIDTH 8 0
BBX 7 7 0 -1
BITMAP
28
5E
CA
7E
54
7E
44
ENDCHAR
STARTCHAR uni504F
ENCODING 20559
SWIDTH 1000 0
DWIDTH 8 0
BBX 7 7 0 -1
BITMAP
3E
54
DC
50
5E
6E
4A
ENDCHAR
STARTCHAR uni5050
ENCODING 20560
SWIDTH 1000 0
DWIDTH 8 0
BBX 7 7 0 -1
BITMAP
28
7E
D4
7E
68
62
4C
ENDCHAR
STARTCHAR uni5055
ENCODING 20565
SWIDTH 1000 0
DWIDTH 8 0
BBX 7 7 0 -1
BITMAP
24
76
E4
76
48
5E
5E
ENDCHAR
STARTCHAR uni5056
ENCODING 20566
SWIDTH 1000 0
DWIDTH 8 0
BBX 7 7 0 -1
BITMAP
2A
5C
C8
7E
50
6E
4E
ENDCHAR
STARTCHAR uni505A
ENCODING 20570
SWIDTH 1000 0
DWIDTH 8 0
BBX 7 7 0 -1
BITMAP
54
7E
D6
FE
6E
7C
4A
ENDCHAR
STARTCHAR uni505C
ENCODING 20572
SWIDTH 1000 0
DWIDTH 8 0
BBX 7 7 0 -1
BITMAP
28
7E
D4
7E
5E
48
58
ENDCHAR
STARTCHAR uni5065
ENCODING 20581
SWIDTH 1000 0
DWIDTH 8 0
BBX 7 7 0 -1
BITMAP
34
5E
EE
54
7E
54
6E
ENDCHAR
STARTCHAR uni506C
ENCODING 20588
SWIDTH 1000 0
DWIDTH 8 0
BBX 7 7 0 -1
BITMAP
30
5E
EA
56
40
72
6E
ENDCHAR
STARTCHAR uni5072
ENCODING 20594
SWIDTH 1000 0
DWIDTH 8 0
BBX 7 7 0 -1
BITMAP
3E
6A
FE
7E
40
72
6E
ENDCHAR
STARTCHAR uni5074
ENCODING 20596
SWIDTH 1000 0
DWIDTH 8 0
BBX 7 7 0 -1
BITMAP
3A
6E
FE
6E
7A
42
6A
ENDCHAR
STARTCHAR uni5075
ENCODING 20597
SWIDTH 1000 0
DWIDTH 8 0
BBX 7 7 0 -1
BITMAP
28
4E
DC
54
5C
5C
62
ENDCHAR
STARTCHAR uni5076
ENCODING 20598
SWIDTH 1000 0
DWIDTH 8 0
BBX 7 7 0 -1
BITMAP
3C
5C
C8
7E
6A
6E
7A
ENDCHAR
STARTCHAR uni5078
ENCODING 20600
SWIDTH 1000 0
DWIDTH 8 0
BBX 7 7 0 -1
BITMAP
28
54
EE
40
5A
5C
5A
ENDCHAR
STARTCHAR uni507D
ENCODING 20605
SWIDTH 1000 0
DWIDTH 8 0
BBX 7 7 0 -1
BITMAP
54
7C
CC
D4
7E
42
6A
ENDCHAR
STARTCHAR uni5080
ENCODING 20608
SWIDTH 1000 0
DWIDTH 8 0
BBX 7 7 0 -1
BITMAP
28
7E
EA
7E
6A
5C
6E
ENDCHAR
STARTCHAR uni5085
ENCODING 20613
SWIDTH 1000 0
DWIDTH 8 0
BBX 7 7 0 -1
BITMAP
2A
7E
DC
54
7E
54
4C
ENDCHAR
STARTCHAR uni508D
ENCODING 20621
SWIDTH 1000 0
DWIDTH 8 0
BBX 7 7 0 -1
BITMAP
28
7E
D4
7E
6A
4C
54
ENDCHAR
STARTCHAR uni5091
ENCODING 20625
SWIDTH 1000 0
DWIDTH 8 0
BBX 7 7 0 -1
BITMAP
5A
6E
D6
EA
7E
5C
6A
ENDCHAR
STARTCHAR uni5098
ENCODING 20632
SWIDTH 1000 0
DWIDTH 8 0
BBX 7 7 0 -1
BITMAP
18
24
DA
2C
5A
FE
08
ENDCHAR
STARTCHAR uni5099
ENCODING 20633
SWIDTH 1000 0
DWIDTH 8 0
BBX 7 7 0 -1
BITMAP
54
7E
D4
FE
60
6E
4A
ENDCHAR
STARTCHAR uni509A
ENCODING 20634
SWIDTH 1000 0
DWIDTH 8 0
BBX 7 7 0 -1
BITMAP
54
7E
EE
C6
6E
54
6A
ENDCHAR
STARTCHAR uni50AC
ENCODING 20652
SWIDTH 1000 0
DWIDTH 8 0
BBX 7 7 0 -1
BITMAP
2A
7E
D4
5E
74
54
5E
ENDCHAR
STARTCHAR uni50AD
ENCODING 20653
SWIDTH 1000 0
DWIDTH 8 0
BBX 7 7 0 -1
BITMAP
24
7E
EC
7E
76
7E
56
ENDCHAR
STARTCHAR uni50B2
ENCODING 20658
SWIDTH 1000 0
DWIDTH 8 0
BBX 7 7 0 -1
BITMAP
54
7E
D6
FE
56
5C
6A
ENDCHAR
STARTCHAR uni50B3
ENCODING 20659
SWIDTH 1000 0
DWIDTH 8 0
BBX 7 7 0 -1
BITMAP
28
7E
DC
5A
7E
54
4C
ENDCHAR
STARTCHAR uni50B4
ENCODING 20660
SWIDTH 1000 0
DWIDTH 8 0
BBX 7 7 0 -1
BITMAP
3E
6C
EC
60
76
76
7E
ENDCHAR
STARTCHAR uni50B5
ENCODING 20661
SWIDTH 1000 0
DWIDTH 8 0
BBX 7 7 0 -1
BITMAP
28
7E
C8
7E
5C
5C
62
ENDCHAR
STARTCHAR uni50B7
ENCODING 20663
SWIDTH 1000 0
DWIDTH 8 0
BBX 7 7 0 -1
BITMAP
30
5E
F4
5C
5E
6A
56
ENDCHAR
STARTCHAR uni50BE
ENCODING 20670
SWIDTH 1000 0
DWIDTH 8 0
BBX 7 7 0 -1
BITMAP
2E
64
FE
6A
6E
70
4A
ENDCHAR
STARTCHAR uni50C2
ENCODING 20674
SWIDTH 1000 0
DWIDTH 8 0
BBX 7 7 0 -1
BITMAP
28
5C
F6
5C
7E
54
7A
ENDCHAR
STARTCHAR uni50C5
ENCODING 20677
SWIDTH 1000 0
DWIDTH 8 0
BBX 7 7 0 -1
BITMAP
54
7E
D4
FE
7E
48
7E
ENDCHAR
STARTCHAR uni50C9
ENCODING 20681
SWIDTH 1000 0
DWIDTH 8 0
BBX 7 7 0 -1
BITMAP
18
24
FE
5A
7E
44
AA
ENDCHAR
STARTCHAR uni50CA
ENCODING 20682
SWIDTH 1000 0
DWIDTH 8 0
BBX 7 7 0 -1
BITMAP
3E
5C
FE
54
6A
50
5C
ENDCHAR
STARTCHAR uni50CD
ENCODING 20685
SWIDTH 1000 0
DWIDTH 8 0
BBX 7 7 0 -1
BITMAP
34
5E
F6
76
56
7A
4A
ENDCHAR
STARTCHAR uni50CF
ENCODING 20687
SWIDTH 1000 0
DWIDTH 8 0
BBX 7 7 0 -1
BITMAP
2C
74
DC
5C
5A
6C
5A
ENDCHAR
STARTCHAR uni50D1
ENCODING 20689
SWIDTH 1000 0
DWIDTH 8 0
BBX 7 7 0 -1
BITMAP
5C
7E
D4
EA
7E
62
6A
ENDCHAR
STARTCHAR uni50D5
ENCODING 20693
SWIDTH 1000 0
DWIDTH 8 0
BBX 7 7 0 -1
BITMAP
2A
7E
D4
7E
5C
48
76
ENDCHAR
STARTCHAR uni50D6
ENCODING 20694
SWIDTH 1000 0
DWIDTH 8 0
BBX 7 7 0 -1
BITMAP
28
7E
DC
54
7E
54
5C
ENDCHAR
STARTCHAR uni50DA
ENCODING 20698
SWIDTH 1000 0
DWIDTH 8 0
BBX 7 7 0 -1
BITMAP
28
7E
D4
7E
54
48
6A
ENDCHAR
STARTCHAR uni50DE
ENCODING 20702
SWIDTH 1000 0
DWIDTH 8 0
BBX 7 7 0 -1
BITMAP
3C
6A
DC
54
7E
42
6A
ENDCHAR
STARTCHAR uni50E3
ENCODING 20707
SWIDTH 1000 0
DWIDTH 8 0
BBX 7 7 0 -1
BITMAP
54
7E
D4
EA
5C
54
5C
ENDCHAR
STARTCHAR uni50E5
ENCODING 20709
SWIDTH 1000 0
DWIDTH 8 0
BBX 7 7 0 -1
BITMAP
28
5C
FE
76
7E
54
66
ENDCHAR
STARTCHAR uni50E7
ENCODING 20711
SWIDTH 1000 0
DWIDTH 8 0
BBX 7 7 0 -1
BITMAP
54
7E
EA
FE
5C
54
5C
ENDCHAR
STARTCHAR uni50ED
ENCODING 20717
SWIDTH 1000 0
DWIDTH 8 0
BBX 7 7 0 -1
BITMAP
54
5E
FE
D4
6A
5C
5C
ENDCHAR
STARTCHAR uni50EE
ENCODING 20718
SWIDTH 1000 0
DWIDTH 8 0
BBX 7 7 0 -1
BITMAP
28
7E
D4
7E
5C
48
7E
ENDCHAR
STARTCHAR uni50F5
ENCODING 20725
SWIDTH 1000 0
DWIDTH 8 0
BBX 7 7 0 -1
BITMAP
3E
4C
CC
5E
4C
4C
5E
ENDCHAR
STARTCHAR uni50F9
ENCODING 20729
SWIDTH 1000 0
DWIDTH 8 0
BBX 7 7 0 -1
BITMAP
3E
54
FE
7E
5C
5C
62
ENDCHAR
STARTCHAR uni50FB
ENCODING 20731
SWIDTH 1000 0
DWIDTH 8 0
BBX 7 7 0 -1
BITMAP
24
7E
FA
6E
74
7E
44
ENDCHAR
STARTCHAR uni5100
ENCODING 20736
SWIDTH 1000 0
DWIDTH 8 0
BBX 7 7 0 -1
BITMAP
54
7E
C8
FE
56
7C
52
ENDCHAR
STARTCHAR uni5101
ENCODING 20737
SWIDTH 1000 0
DWIDTH 8 0
BBX 7 7 0 -1
BITMAP
54
5E
F4
DE
76
6A
62
ENDCHAR
STARTCHAR uni5102
ENCODING 20738
SWIDTH 1000 0
DWIDTH 8 0
BBX 7 7 0 -1
BITMAP
54
7E
FE
C0
7E
74
5A
ENDCHAR
STARTCHAR uni5104
ENCODING 20740
SWIDTH 1000 0
DWIDTH 8 0
BBX 7 7 0 -1
BITMAP
28
7E
D4
7E
5C
72
6E
ENDCHAR
STARTCHAR uni5109
ENCODING 20745
SWIDTH 1000 0
DWIDTH 8 0
BBX 7 7 0 -1
BITMAP
28
54
FE
6A
7E
54
6A
ENDCHAR
STARTCHAR uni5112
ENCODING 20754
SWIDTH 1000 0
DWIDTH 8 0
BBX 7 7 0 -1
BITMAP
5C
7E
EA
DC
7E
6A
6A
ENDCHAR
STARTCHAR uni5114
ENCODING 20756
SWIDTH 1000 0
DWIDTH 8 0
BBX 7 7 0 -1
BITMAP
28
5C
FE
48
7E
74
4C
ENDCHAR
STARTCHAR uni5115
ENCODING 20757
SWIDTH 1000 0
DWIDTH 8 0
BBX 7 7 0 -1
BITMAP
28
7E
D4
6A
54
5C
64
ENDCHAR
STARTCHAR uni5116
ENCODING 20758
SWIDTH 1000 0
DWIDTH 8 0
BBX 7 7 0 -1
BITMAP
34
66
E0
76
40
5C
7E
ENDCHAR
STARTCHAR uni5118
ENCODING 20760
SWIDTH 1000 0
DWIDTH 8 0
BBX 7 7 0 -1
BITMAP
28
5C
CE
5C
6A
5C
7E
ENDCHAR
STARTCHAR uni511A
ENCODING 20762
SWIDTH 1000 0
DWIDTH 8 0
BBX 7 7 0 -1
BITMAP
54
7E
DC
FE
6E
44
58
ENDCHAR
STARTCHAR uni511F
ENCODING 20767
SWIDTH 1000 0
DWIDTH 8 0
BBX 7 7 0 -1
BITMAP
2A
5C
F6
5C
5C
5C
62
ENDCHAR
STARTCHAR uni5121
ENCODING 20769
SWIDTH 1000 0
DWIDTH 8 0
BBX 7 7 0 -1
BITMAP
3C
5C
DC
40
76
76
76
ENDCHAR
STARTCHAR uni512A
ENCODING 20778
SWIDTH 1000 0
DWIDTH 8 0
BBX 7 7 0 -1
BITMAP
3E
5C
DC
7E
76
48
76
ENDCHAR
STARTCHAR uni5132
ENCODING 20786
SWIDTH 1000 0
DWIDTH 8 0
BBX 7 7 0 -1
BITMAP
34
4E
F4
4E
78
76
46
ENDCHAR
STARTCHAR uni5137
ENCODING 20791
SWIDTH 1000 0
DWIDTH 8 0
BBX 7 7 0 -1
BITMAP
36
6A
FE
6C
7E
64
76
ENDCHAR
STARTCHAR uni513A
ENCODING 20794
SWIDTH 1000 0
DWIDTH 8 0
BBX 7 7 0 -1
BITMAP
2A
7C
D6
7C
7E
54
6E
ENDCHAR
STARTCHAR uni513B
ENCODING 20795
SWIDTH 1000 0
DWIDTH 8 0
BBX 7 7 0 -1
BITMAP
2A
7E
EA
5C
7E
40
6A
ENDCHAR
STARTCHAR uni513C
ENCODING 20796
SWIDTH 1000 0
DWIDTH 8 0
BBX 7 7 0 -1
BITMAP
36
7E
F4
7E
7A
7C
6A
ENDCHAR
STARTCHAR uni513F
ENCODING 20799
SWIDTH 1000 0
DWIDTH 8 0
BBX 7 7 0 -1
BITMAP
28
28
28
28
28
4A
8E
ENDCHAR
STARTCHAR uni5140
ENCODING 20800
SWIDTH 1000 0
DWIDTH 8 0
BBX 7 7 0 -1
BITMAP
FE
28
28
28
28
4A
8E
ENDCHAR
STARTCHAR uni5141
ENCODING 20801
SWIDTH 1000 0
DWIDTH 8 0
BBX 7 7 0 -1
BITMAP
10
24
FA
28
28
4A
8E
ENDCHAR
STARTCHAR uni5143
ENCODING 20803
SWIDTH 1000 0
DWIDTH 8 0
BBX 7 7 0 -1
BITMAP
7C
00
FE
28
28
4A
8E
ENDCHAR
STARTCHAR uni5144
ENCODING 20804
SWIDTH 1000 0
DWIDTH 8 0
BBX 7 7 0 -1
BITMAP
7C
44
44
7C
28
2A
CE
ENDCHAR
STARTCHAR uni5145
ENCODING 20805
SWIDTH 1000 0
DWIDTH 8 0
BBX 7 7 0 -1
BITMAP
10
FE
24
7A
28
2A
CE
ENDCHAR
STARTCHAR uni5146
ENCODING 20806
SWIDTH 1000 0
DWIDTH 8 0
BBX 7 7 0 -1
BITMAP
28
AA
6C
2C
EA
28
CE
ENDCHAR
STARTCHAR uni5147
ENCODING 20807
SWIDTH 1000 0
DWIDTH 8 0
BBX 7 7 0 -1
BITMAP
6A
52
6A
42
7E
28
CE
ENDCHAR
STARTCHAR uni5148
ENCODING 20808
SWIDTH 1000 0
DWIDTH 8 0
BBX 7 7 0 -1
BITMAP
50
7C
90
FE
28
2A
CE
ENDCHAR
STARTCHAR uni5149
ENCODING 20809
SWIDTH 1000 0
DWIDTH 8 0
BBX 7 7 0 -1
BITMAP
10
52
34
FE
28
2A
CE
ENDCHAR
STARTCHAR uni514B
ENCODING 20811
SWIDTH 1000 0
DWIDTH 8 0
BBX 7 7 0 -1
BITMAP
10
FE
7C
44
7C
2A
CE
ENDCHAR
STARTCHAR uni514C
ENCODING 20812
SWIDTH 1000 0
DWIDTH 8 0
BBX 7 7 0 -1
BITMAP
28
44
FE
44
7C
2A
CE
ENDCHAR
STARTCHAR uni514D
ENCODING 20813
SWIDTH 1000 0
DWIDTH 8 0
BBX 7 7 0 -1
BITMAP
38
C8
7C
54
7C
2A
CE
ENDCHAR
STARTCHAR uni514E
ENCODING 20814
SWIDTH 1000 0
DWIDTH 8 0
BBX 7 7 0 -1
BITMAP
0C
F0
7C
54
7C
2A
CE
ENDCHAR
STARTCHAR uni5150
ENCODING 20816
SWIDTH 1000 0
DWIDTH 8 0
BBX 7 7 0 -1
BITMAP
5E
52
5E
52
5E
28
CE
ENDCHAR
STARTCHAR uni5152
ENCODING 20818
SWIDTH 1000 0
DWIDTH 8 0
BBX 7 7 0 -1
BITMAP
2E
42
6E
42
7E
28
CE
ENDCHAR
STARTCHAR uni5154
ENCODING 20820
SWIDTH 1000 0
DWIDTH 8 0
BBX 7 7 0 -1
BITMAP
38
C8
7E
52
7E
34
DE
ENDCHAR
STARTCHAR uni515A
ENCODING 20826
SWIDTH 1000 0
DWIDTH 8 0
BBX 7 7 0 -1
BITMAP
54
FE
BE
24
3C
1A
EE
ENDCHAR
STARTCHAR uni515C
ENCODING 20828
SWIDTH 1000 0
DWIDTH 8 0
BBX 7 7 0 -1
BITMAP
56
AA
BA
AA
FE
28
CE
ENDCHAR
STARTCHAR uni5162
ENCODING 20834
SWIDTH 1000 0
DWIDTH 8 0
BBX 7 7 0 -1
BITMAP
24
FE
24
5A
7E
6C
B6
ENDCHAR
STARTCHAR uni5165
ENCODING 20837
SWIDTH 1000 0
DWIDTH 8 0
BBX 7 7 0 -1
BITMAP
70
10
10
10
10
28
C6
ENDCHAR
STARTCHAR uni5168
ENCODING 20840
SWIDTH 1000 0
DWIDTH 8 0
BBX 7 7 0 -1
BITMAP
18
24
FA
10
7C
10
FE
ENDCHAR
STARTCHAR uni5169
ENCODING 20841
SWIDTH 1000 0
DWIDTH 8 0
BBX 7 7 0 -1
BITMAP
FE
10
FE
DA
DA
B6
92
ENDCHAR
STARTCHAR uni516A
ENCODING 20842
SWIDTH 1000 0
DWIDTH 8 0
BBX 7 7 0 -1
BITMAP
18
24
DA
00
6A
74
6A
ENDCHAR
STARTCHAR uni516B
ENCODING 20843
SWIDTH 1000 0
DWIDTH 8 0
BBX 7 7 0 -1
BITMAP
28
28
28
28
44
44
82
ENDCHAR
STARTCHAR uni516C
ENCODING 20844
SWIDTH 1000 0
DWIDTH 8 0
BBX 7 7 0 -1
BITMAP
28
28
44
92
10
24
FA
ENDCHAR
STARTCHAR uni516D
ENCODING 20845
SWIDTH 1000 0
DWIDTH 8 0
BBX 7 7 0 -1
BITMAP
10
FE
00
28
28
44
82
ENDCHAR
STARTCHAR uni516E
ENCODING 20846
SWIDTH 1000 0
DWIDTH 8 0
BBX 7 7 0 -1
BITMAP
28
44
FA
20
3C
04
0C
ENDCHAR
STARTCHAR uni5171
ENCODING 20849
SWIDTH 1000 0
DWIDTH 8 0
BBX 7 7 0 -1
BITMAP
24
FE
24
24
FE
00
C6
ENDCHAR
STARTCHAR uni5175
ENCODING 20853
SWIDTH 1000 0
DWIDTH 8 0
BBX 7 7 0 -1
BITMAP
0C
70
7C
48
FE
00
C6
ENDCHAR
STARTCHAR uni5176
ENCODING 20854
SWIDTH 1000 0
DWIDTH 8 0
BBX 7 7 0 -1
BITMAP
24
FE
24
3C
FE
00
C6
ENDCHAR
STARTCHAR uni5177
ENCODING 20855
SWIDTH 1000 0
DWIDTH 8 0
BBX 7 7 0 -1
BITMAP
7C
44
7C
44
FE
00
C6
ENDCHAR
STARTCHAR uni5178
ENCODING 20856
SWIDTH 1000 0
DWIDTH 8 0
BBX 7 7 0 -1
BITMAP
28
7E
6A
7E
FE
00
C6
ENDCHAR
STARTCHAR uni517C
ENCODING 20860
SWIDTH 1000 0
DWIDTH 8 0
BBX 7 7 0 -1
BITMAP
24
FE
7C
2C
78
6C
AA
ENDCHAR
STARTCHAR uni5180
ENCODING 20864
SWIDTH 1000 0
DWIDTH 8 0
BBX 7 7 0 -1
BITMAP
28
EE
28
FE
38
FE
44
ENDCHAR
STARTCHAR uni5182
ENCODING 20866
SWIDTH 1000 0
DWIDTH 8 0
BBX 7 7 0 -1
BITMAP
FE
82
82
82
82
82
86
ENDCHAR
STARTCHAR uni5185
ENCODING 20869
SWIDTH 1000 0
DWIDTH 8 0
BBX 7 7 0 -1
BITMAP
10
FE
92
AA
C6
82
86
ENDCHAR
STARTCHAR uni5186
ENCODING 20870
SWIDTH 1000 0
DWIDTH 8 0
BBX 7 7 0 -1
BITMAP
FE
92
92
FE
82
82
86
ENDCHAR
STARTCHAR uni5189
ENCODING 20873
SWIDTH 1000 0
DWIDTH 8 0
BBX 7 7 0 -1
BITMAP
10
7C
54
7C
54
FE
44
ENDCHAR
STARTCHAR uni518A
ENCODING 20874
SWIDTH 1000 0
DWIDTH 8 0
BBX 7 7 0 -1
BITMAP
7E
6A
6A
FE
6A
6A
42
ENDCHAR
STARTCHAR uni518C
ENCODING 20876
SWIDTH 1000 0
DWIDTH 8 0
BBX 7 7 0 -1
BITMAP
7E
5A
5A
FE
5A
5A
B6
ENDCHAR
STARTCHAR uni518D
ENCODING 20877
SWIDTH 1000 0
DWIDTH 8 0
BBX 7 7 0 -1
BITMAP
FE
54
7C
54
FE
44
4C
ENDCHAR
STARTCHAR uni518F
ENCODING 20879
SWIDTH 1000 0
DWIDTH 8 0
BBX 7 7 0 -1
BITMAP
FE
AA
CE
BA
AA
BA
86
ENDCHAR
STARTCHAR uni5190
ENCODING 20880
SWIDTH 1000 0
DWIDTH 8 0
BBX 7 7 0 -1
BITMAP
FE
82
BA
7C
44
7C
44
ENDCHAR
STARTCHAR uni5191
ENCODING 20881
SWIDTH 1000 0
DWIDTH 8 0
BBX 7 7 0 -1
BITMAP
10
FE
92
FE
44
5C
44
ENDCHAR
STARTCHAR uni5192
ENCODING 20882
SWIDTH 1000 0
DWIDTH 8 0
BBX 7 7 0 -1
BITMAP
FE
82
FE
44
7C
44
7C
ENDCHAR
STARTCHAR uni5193
ENCODING 20883
SWIDTH 1000 0
DWIDTH 8 0
BBX 7 7 0 -1
BITMAP
28
FE
28
FE
54
FE
44
ENDCHAR
STARTCHAR uni5195
ENCODING 20885
SWIDTH 1000 0
DWIDTH 8 0
BBX 7 7 0 -1
BITMAP
7C
44
3C
D4
7C
2A
CE
ENDCHAR
STARTCHAR uni5196
ENCODING 20886
SWIDTH 1000 0
DWIDTH 8 0
BBX 7 2 0 2
BITMAP
FE
82
ENDCHAR
STARTCHAR uni5197
ENCODING 20887
SWIDTH 1000 0
DWIDTH 8 0
BBX 7 7 0 -1
BITMAP
FE
82
38
28
28
4A
8E
ENDCHAR
STARTCHAR uni5199
ENCODING 20889
SWIDTH 1000 0
DWIDTH 8 0
BBX 7 7 0 -1
BITMAP
FE
A2
38
20
FE
08
18
ENDCHAR
STARTCHAR uni51A0
ENCODING 20896
SWIDTH 1000 0
DWIDTH 8 0
BBX 7 7 0 -1
BITMAP
FE
86
6E
04
F4
6C
BE
ENDCHAR
STARTCHAR uni51A2
ENCODING 20898
SWIDTH 1000 0
DWIDTH 8 0
BBX 7 7 0 -1
BITMAP
FE
BA
30
DA
2C
DC
32
ENDCHAR
STARTCHAR uni51A4
ENCODING 20900
SWIDTH 1000 0
DWIDTH 8 0
BBX 7 7 0 -1
BITMAP
FE
BA
7C
D4
7C
2A
CE
ENDCHAR
STARTCHAR uni51A5
ENCODING 20901
SWIDTH 1000 0
DWIDTH 8 0
BBX 7 7 0 -1
BITMAP
FE
BA
28
38
FE
00
C6
ENDCHAR
STARTCHAR uni51A6
ENCODING 20902
SWIDTH 1000 0
DWIDTH 8 0
BBX 7 7 0 -1
BITMAP
FE
86
6C
0A
E4
6A
BE
ENDCHAR
STARTCHAR uni51A8
ENCODING 20904
SWIDTH 1000 0
DWIDTH 8 0
BBX 7 7 0 -1
BITMAP
FE
BA
28
38
7C
54
7C
ENDCHAR
STARTCHAR uni51A9
ENCODING 20905
SWIDTH 1000 0
DWIDTH 8 0
BBX 7 7 0 -1
BITMAP
FE
AA
48
78
7E
82
56
ENDCHAR
STARTCHAR uni51AA
ENCODING 20906
SWIDTH 1000 0
DWIDTH 8 0
BBX 7 7 0 -1
BITMAP
FE
AA
7C
38
FE
7E
B4
ENDCHAR
STARTCHAR uni51AB
ENCODING 20907
SWIDTH 1000 0
DWIDTH 8 0
BBX 3 7 2 -1
BITMAP
80
40
00
20
40
80
80
ENDCHAR
STARTCHAR uni51AC
ENCODING 20908
SWIDTH 1000 0
DWIDTH 8 0
BBX 7 7 0 -1
BITMAP
1C
64
18
E6
18
30
0C
ENDCHAR
STARTCHAR uni51B0
ENCODING 20912
SWIDTH 1000 0
DWIDTH 8 0
BBX 7 7 0 -1
BITMAP
88
0A
3C
18
AC
8A
98
ENDCHAR
STARTCHAR uni51B1
ENCODING 20913
SWIDTH 1000 0
DWIDTH 8 0
BBX 7 7 0 -1
BITMAP
BE
48
0E
0A
5C
84
BE
ENDCHAR
STARTCHAR uni51B2
ENCODING 20914
SWIDTH 1000 0
DWIDTH 8 0
BBX 7 7 0 -1
BITMAP
88
3E
2A
2A
BE
88
88
ENDCHAR
STARTCHAR uni51B3
ENCODING 20915
SWIDTH 1000 0
DWIDTH 8 0
BBX 7 7 0 -1
BITMAP
88
3C
0C
7E
88
88
B6
ENDCHAR
STARTCHAR uni51B4
ENCODING 20916
SWIDTH 1000 0
DWIDTH 8 0
BBX 7 7 0 -1
BITMAP
9E
14
14
3E
8C
B4
8C
ENDCHAR
STARTCHAR uni51B5
ENCODING 20917
SWIDTH 1000 0
DWIDTH 8 0
BBX 7 7 0 -1
BITMAP
BE
22
22
3E
94
94
A6
ENDCHAR
STARTCHAR uni51B6
ENCODING 20918
SWIDTH 1000 0
DWIDTH 8 0
BBX 7 7 0 -1
BITMAP
88
48
12
1E
40
9E
9E
ENDCHAR
STARTCHAR uni51B7
ENCODING 20919
SWIDTH 1000 0
DWIDTH 8 0
BBX 7 7 0 -1
BITMAP
88
14
2E
00
BE
8A
88
ENDCHAR
STARTCHAR uni51BD
ENCODING 20925
SWIDTH 1000 0
DWIDTH 8 0
BBX 7 7 0 -1
BITMAP
BA
16
1E
2E
9A
92
A6
ENDCHAR
STARTCHAR uni51C4
ENCODING 20932
SWIDTH 1000 0
DWIDTH 8 0
BBX 7 7 0 -1
BITMAP
88
3E
0C
1C
BE
94
BA
ENDCHAR
STARTCHAR uni51C5
ENCODING 20933
SWIDTH 1000 0
DWIDTH 8 0
BBX 7 7 0 -1
BITMAP
BE
2A
3E
2A
B6
BE
BE
ENDCHAR
STARTCHAR uni51C6
ENCODING 20934
SWIDTH 1000 0
DWIDTH 8 0
BBX 7 7 0 -1
BITMAP
94
1E
34
1E
54
94
9E
ENDCHAR
STARTCHAR uni51C9
ENCODING 20937
SWIDTH 1000 0
DWIDTH 8 0
BBX 7 7 0 -1
BITMAP
88
3E
14
1C
88
AA
98
ENDCHAR
STARTCHAR uni51CB
ENCODING 20939
SWIDTH 1000 0
DWIDTH 8 0
BBX 7 7 0 -1
BITMAP
BE
2A
3E
2A
B6
BE
A2
ENDCHAR
STARTCHAR uni51CC
ENCODING 20940
SWIDTH 1000 0
DWIDTH 8 0
BBX 7 7 0 -1
BITMAP
84
5E
04
1E
4A
94
AA
ENDCHAR
STARTCHAR uni51CD
ENCODING 20941
SWIDTH 1000 0
DWIDTH 8 0
BBX 7 7 0 -1
BITMAP
88
3E
1C
1C
48
9C
AA
ENDCHAR
STARTCHAR uni51D6
ENCODING 20950
SWIDTH 1000 0
DWIDTH 8 0
BBX 7 7 0 -1
BITMAP
94
1E
34
9E
10
FE
10
ENDCHAR
STARTCHAR uni51DB
ENCODING 20955
SWIDTH 1000 0
DWIDTH 8 0
BBX 7 7 0 -1
BITMAP
88
3E
14
1C
BE
88
AA
ENDCHAR
STARTCHAR uni51DC
ENCODING 20956
SWIDTH 1000 0
DWIDTH 8 0
BBX 7 7 0 -1
BITMAP
88
3E
14
1C
BE
9C
AA
ENDCHAR
STARTCHAR uni51DD
ENCODING 20957
SWIDTH 1000 0
DWIDTH 8 0
BBX 7 7 0 -1
BITMAP
A6
3A
26
1C
BE
94
AA
ENDCHAR
STARTCHAR uni51E0
ENCODING 20960
SWIDTH 1000 0
DWIDTH 8 0
BBX 7 7 0 -1
BITMAP
78
48
48
48
48
4A
8E
ENDCHAR
STARTCHAR uni51E1
ENCODING 20961
SWIDTH 1000 0
DWIDTH 8 0
BBX 7 7 0 -1
BITMAP
7C
44
64
54
54
44
86
ENDCHAR
STARTCHAR uni51E6
ENCODING 20966
SWIDTH 1000 0
DWIDTH 8 0
BBX 7 7 0 -1
BITMAP
70
5E
5A
AA
2A
50
8E
ENDCHAR
STARTCHAR uni51E7
ENCODING 20967
SWIDTH 1000 0
DWIDTH 8 0
BBX 7 7 0 -1
BITMAP
7C
44
54
7C
7C
54
96
ENDCHAR
STARTCHAR uni51E9
ENCODING 20969
SWIDTH 1000 0
DWIDTH 8 0
BBX 7 7 0 -1
BITMAP
7C
44
54
7C
54
7C
96
ENDCHAR
STARTCHAR uni51EA
ENCODING 20970
SWIDTH 1000 0
DWIDTH 8 0
BBX 7 7 0 -1
BITMAP
7C
44
54
5C
74
7C
86
ENDCHAR
STARTCHAR uni51ED
ENCODING 20973
SWIDTH 1000 0
DWIDTH 8 0
BBX 7 7 0 -1
BITMAP
2E
44
DE
44
3E
28
CE
ENDCHAR
STARTCHAR uni51F0
ENCODING 20976
SWIDTH 1000 0
DWIDTH 8 0
BBX 7 7 0 -1
BITMAP
7C
54
7C
6C
7C
54
BE
ENDCHAR
STARTCHAR uni51F1
ENCODING 20977
SWIDTH 1000 0
DWIDTH 8 0
BBX 7 7 0 -1
BITMAP
AE
FA
0A
FA
9A
6A
F2
ENDCHAR
STARTCHAR uni51F5
ENCODING 20981
SWIDTH 1000 0
DWIDTH 8 0
BBX 7 7 0 -1
BITMAP
82
82
82
82
82
82
FE
ENDCHAR
STARTCHAR uni51F6
ENCODING 20982
SWIDTH 1000 0
DWIDTH 8 0
BBX 7 7 0 -1
BITMAP
82
8A
AA
92
AA
C2
FE
ENDCHAR
STARTCHAR uni51F8
ENCODING 20984
SWIDTH 1000 0
DWIDTH 8 0
BBX 7 7 0 -1
BITMAP
38
28
28
EE
82
82
FE
ENDCHAR
STARTCHAR uni51F9
ENCODING 20985
SWIDTH 1000 0
DWIDTH 8 0
BBX 7 7 0 -1
BITMAP
EE
AA
AA
BA
82
82
FE
ENDCHAR
STARTCHAR uni51FA
ENCODING 20986
SWIDTH 1000 0
DWIDTH 8 0
BBX 7 7 0 -1
BITMAP
10
54
54
7C
92
92
FE
ENDCHAR
STARTCHAR uni51FD
ENCODING 20989
SWIDTH 1000 0
DWIDTH 8 0
BBX 7 7 0 -1
BITMAP
FE
20
B2
D6
BA
D6
FE
ENDCHAR
STARTCHAR uni51FE
ENCODING 20990
SWIDTH 1000 0
DWIDTH 8 0
BBX 7 7 0 -1
BITMAP
7C
08
9A
F6
DA
F6
FE
ENDCHAR
STARTCHAR uni5200
ENCODING 20992
SWIDTH 1000 0
DWIDTH 8 0
BBX 7 7 0 -1
BITMAP
FE
12
12
22
22
42
86
ENDCHAR
STARTCHAR uni5203
ENCODING 20995
SWIDTH 1000 0
DWIDTH 8 0
BBX 7 7 0 -1
BITMAP
FE
12
12
72
1A
22
C6
ENDCHAR
STARTCHAR uni5204
ENCODING 20996
SWIDTH 1000 0
DWIDTH 8 0
BBX 7 7 0 -1
BITMAP
FC
24
64
34
2C
46
8C
ENDCHAR
STARTCHAR uni5206
ENCODING 20998
SWIDTH 1000 0
DWIDTH 8 0
BBX 7 7 0 -1
BITMAP
28
28
44
BE
14
24
CC
ENDCHAR
STARTCHAR uni5207
ENCODING 20999
SWIDTH 1000 0
DWIDTH 8 0
BBX 7 7 0 -1
BITMAP
5E
4A
EA
4A
4A
6A
16
ENDCHAR
STARTCHAR uni5208
ENCODING 21000
SWIDTH 1000 0
DWIDTH 8 0
BBX 7 7 0 -1
BITMAP
12
1A
5A
2A
22
52
86
ENDCHAR
STARTCHAR uni520A
ENCODING 21002
SWIDTH 1000 0
DWIDTH 8 0
BBX 7 7 0 -1
BITMAP
72
2A
2A
FA
22
22
26
ENDCHAR
STARTCHAR uni520B
ENCODING 21003
SWIDTH 1000 0
DWIDTH 8 0
BBX 7 7 0 -1
BITMAP
12
EA
2A
FA
22
22
46
ENDCHAR
STARTCHAR uni520E
ENCODING 21006
SWIDTH 1000 0
DWIDTH 8 0
BBX 7 7 0 -1
BITMAP
42
7A
BA
5A
B2
52
B6
ENDCHAR
STARTCHAR uni5211
ENCODING 21009
SWIDTH 1000 0
DWIDTH 8 0
BBX 7 7 0 -1
BITMAP
F2
5A
5A
FA
52
52
96
ENDCHAR
STARTCHAR uni5214
ENCODING 21012
SWIDTH 1000 0
DWIDTH 8 0
BBX 7 7 0 -1
BITMAP
22
7A
3A
FA
22
52
86
ENDCHAR
STARTCHAR uni5217
ENCODING 21015
SWIDTH 1000 0
DWIDTH 8 0
BBX 7 7 0 -1
BITMAP
F2
4A
6A
AA
62
42
86
ENDCHAR
STARTCHAR uni521D
ENCODING 21021
SWIDTH 1000 0
DWIDTH 8 0
BBX 7 7 0 -1
BITMAP
5E
EA
2A
4A
EA
6A
56
ENDCHAR
STARTCHAR uni5224
ENCODING 21028
SWIDTH 1000 0
DWIDTH 8 0
BBX 7 7 0 -1
BITMAP
22
AA
22
FA
22
FA
26
ENDCHAR
STARTCHAR uni5225
ENCODING 21029
SWIDTH 1000 0
DWIDTH 8 0
BBX 7 7 0 -1
BITMAP
F2
9A
FA
4A
72
52
B6
ENDCHAR
STARTCHAR uni5227
ENCODING 21031
SWIDTH 1000 0
DWIDTH 8 0
BBX 7 7 0 -1
BITMAP
5E
EA
4A
EA
4A
AA
D6
ENDCHAR
STARTCHAR uni5229
ENCODING 21033
SWIDTH 1000 0
DWIDTH 8 0
BBX 7 7 0 -1
BITMAP
72
2A
FA
2A
72
A2
26
ENDCHAR
STARTCHAR uni522A
ENCODING 21034
SWIDTH 1000 0
DWIDTH 8 0
BBX 7 7 0 -1
BITMAP
7A
6E
6E
FE
6A
6A
4A
ENDCHAR
STARTCHAR uni522E
ENCODING 21038
SWIDTH 1000 0
DWIDTH 8 0
BBX 7 7 0 -1
BITMAP
12
6A
FA
2A
72
52
76
ENDCHAR
STARTCHAR uni5230
ENCODING 21040
SWIDTH 1000 0
DWIDTH 8 0
BBX 7 7 0 -1
BITMAP
F2
2A
5A
FA
62
32
C6
ENDCHAR
STARTCHAR uni5233
ENCODING 21043
SWIDTH 1000 0
DWIDTH 8 0
BBX 7 7 0 -1
BITMAP
22
FE
56
AE
72
7A
0A
ENDCHAR
STARTCHAR uni5236
ENCODING 21046
SWIDTH 1000 0
DWIDTH 8 0
BBX 7 7 0 -1
BITMAP
62
7A
AA
7A
22
FA
AA
ENDCHAR
STARTCHAR uni5237
ENCODING 21047
SWIDTH 1000 0
DWIDTH 8 0
BBX 7 7 0 -1
BITMAP
F2
9A
FA
AA
F2
F2
A6
ENDCHAR
STARTCHAR uni5238
ENCODING 21048
SWIDTH 1000 0
DWIDTH 8 0
BBX 7 7 0 -1
BITMAP
54
38
FE
44
BE
14
6C
ENDCHAR
STARTCHAR uni5239
ENCODING 21049
SWIDTH 1000 0
DWIDTH 8 0
BBX 7 7 0 -1
BITMAP
52
2A
DA
2A
FA
72
AA
ENDCHAR
STARTCHAR uni523A
ENCODING 21050
SWIDTH 1000 0
DWIDTH 8 0
BBX 7 7 0 -1
BITMAP
22
FA
22
FA
AA
72
AA
ENDCHAR
STARTCHAR uni523B
ENCODING 21051
SWIDTH 1000 0
DWIDTH 8 0
BBX 7 7 0 -1
BITMAP
22
FA
4A
AA
52
22
D6
ENDCHAR
STARTCHAR uni5243
ENCODING 21059
SWIDTH 1000 0
DWIDTH 8 0
BBX 7 7 0 -1
BITMAP
52
FA
2A
FA
A2
7A
AA
ENDCHAR
STARTCHAR uni5244
ENCODING 21060
SWIDTH 1000 0
DWIDTH 8 0
BBX 7 7 0 -1
BITMAP
FA
56
A6
56
FA
22
FA
ENDCHAR
STARTCHAR uni5247
ENCODING 21063
SWIDTH 1000 0
DWIDTH 8 0
BBX 7 7 0 -1
BITMAP
E2
AA
EA
AA
E2
02
A6
ENDCHAR
STARTCHAR uni524A
ENCODING 21066
SWIDTH 1000 0
DWIDTH 8 0
BBX 7 7 0 -1
BITMAP
B2
2A
FA
9A
F2
92
B6
ENDCHAR
STARTCHAR uni524B
ENCODING 21067
SWIDTH 1000 0
DWIDTH 8 0
BBX 7 7 0 -1
BITMAP
42
EA
4A
AA
E2
46
BE
ENDCHAR
STARTCHAR uni524C
ENCODING 21068
SWIDTH 1000 0
DWIDTH 8 0
BBX 7 7 0 -1
BITMAP
22
FA
6A
7A
22
72
AA
ENDCHAR
STARTCHAR uni524D
ENCODING 21069
SWIDTH 1000 0
DWIDTH 8 0
BBX 7 7 0 -1
BITMAP
24
FE
00
EA
AA
E2
A6
ENDCHAR
STARTCHAR uni524F
ENCODING 21071
SWIDTH 1000 0
DWIDTH 8 0
BBX 7 7 0 -1
BITMAP
BE
4A
FA
6A
EE
6A
B6
ENDCHAR
STARTCHAR uni5254
ENCODING 21076
SWIDTH 1000 0
DWIDTH 8 0
BBX 7 7 0 -1
BITMAP
F2
9A
FA
4A
72
B2
56
ENDCHAR
STARTCHAR uni5256
ENCODING 21078
SWIDTH 1000 0
DWIDTH 8 0
BBX 7 7 0 -1
BITMAP
22
FA
5A
FA
02
72
76
ENDCHAR
STARTCHAR uni525B
ENCODING 21083
SWIDTH 1000 0
DWIDTH 8 0
BBX 7 7 0 -1
BITMAP
FA
8E
DE
AE
DA
FA
8A
ENDCHAR
STARTCHAR uni525E
ENCODING 21086
SWIDTH 1000 0
DWIDTH 8 0
BBX 7 7 0 -1
BITMAP
22
FA
2A
5A
FA
12
56
ENDCHAR
STARTCHAR uni5263
ENCODING 21091
SWIDTH 1000 0
DWIDTH 8 0
BBX 7 7 0 -1
BITMAP
22
56
FE
AE
FA
22
DA
ENDCHAR
STARTCHAR uni5264
ENCODING 21092
SWIDTH 1000 0
DWIDTH 8 0
BBX 7 7 0 -1
BITMAP
22
FA
5A
2A
D2
72
96
ENDCHAR
STARTCHAR uni5265
ENCODING 21093
SWIDTH 1000 0
DWIDTH 8 0
BBX 7 7 0 -1
BITMAP
62
2A
FA
2A
AA
72
AA
ENDCHAR
STARTCHAR uni5269
ENCODING 21097
SWIDTH 1000 0
DWIDTH 8 0
BBX 7 7 0 -1
BITMAP
72
FA
52
DA
22
72
AA
ENDCHAR
STARTCHAR uni526A
ENCODING 21098
SWIDTH 1000 0
DWIDTH 8 0
BBX 7 7 0 -1
BITMAP
24
FE
74
54
FE
22
C6
ENDCHAR
STARTCHAR uni526F
ENCODING 21103
SWIDTH 1000 0
DWIDTH 8 0
BBX 7 7 0 -1
BITMAP
F2
6A
6A
0A
F2
B2
F6
ENDCHAR
STARTCHAR uni5270
ENCODING 21104
SWIDTH 1000 0
DWIDTH 8 0
BBX 7 7 0 -1
BITMAP
72
FA
AA
FA
AA
72
AA
ENDCHAR
STARTCHAR uni5271
ENCODING 21105
SWIDTH 1000 0
DWIDTH 8 0
BBX 7 7 0 -1
BITMAP
2E
56
FE
B6
F6
2A
DA
ENDCHAR
STARTCHAR uni5272
ENCODING 21106
SWIDTH 1000 0
DWIDTH 8 0
BBX 7 7 0 -1
BITMAP
22
FA
AA
7A
22
FA
76
ENDCHAR
STARTCHAR uni5273
ENCODING 21107
SWIDTH 1000 0
DWIDTH 8 0
BBX 7 7 0 -1
BITMAP
52
FA
2A
5A
FA
52
76
ENDCHAR
STARTCHAR uni5274
ENCODING 21108
SWIDTH 1000 0
DWIDTH 8 0
BBX 7 7 0 -1
BITMAP
AA
FA
0A
FA
92
62
F6
ENDCHAR
STARTCHAR uni5275
ENCODING 21109
SWIDTH 1000 0
DWIDTH 8 0
BBX 7 7 0 -1
BITMAP
22
5A
EA
6A
42
72
B6
ENDCHAR
STARTCHAR uni527D
ENCODING 21117
SWIDTH 1000 0
DWIDTH 8 0
BBX 7 7 0 -1
BITMAP
FA
52
FA
FA
72
22
AA
ENDCHAR
STARTCHAR uni527F
ENCODING 21119
SWIDTH 1000 0
DWIDTH 8 0
BBX 7 7 0 -1
BITMAP
52
AA
7A
7A
FA
72
AA
ENDCHAR
STARTCHAR uni5283
ENCODING 21123
SWIDTH 1000 0
DWIDTH 8 0
BBX 7 7 0 -1
BITMAP
42
EA
7A
EA
62
72
C6
ENDCHAR
STARTCHAR uni5287
ENCODING 21127
SWIDTH 1000 0
DWIDTH 8 0
BBX 7 7 0 -1
BITMAP
22
3A
EA
DA
B2
DA
B6
ENDCHAR
STARTCHAR uni5288
ENCODING 21128
SWIDTH 1000 0
DWIDTH 8 0
BBX 7 7 0 -1
BITMAP
64
6E
4A
E4
7E
22
C6
ENDCHAR
STARTCHAR uni5289
ENCODING 21129
SWIDTH 1000 0
DWIDTH 8 0
BBX 7 7 0 -1
BITMAP
5A
9A
EA
52
AA
72
FA
ENDCHAR
STARTCHAR uni528D
ENCODING 21133
SWIDTH 1000 0
DWIDTH 8 0
BBX 7 7 0 -1
BITMAP
22
5A
FA
AA
FA
52
AA
ENDCHAR
STARTCHAR uni5291
ENCODING 21137
SWIDTH 1000 0
DWIDTH 8 0
BBX 7 7 0 -1
BITMAP
22
FA
52
AA
52
72
96
ENDCHAR
STARTCHAR uni5292
ENCODING 21138
SWIDTH 1000 0
DWIDTH 8 0
BBX 7 7 0 -1
BITMAP
2E
56
F6
BE
F6
5A
AA
ENDCHAR
STARTCHAR uni5294
ENCODING 21140
SWIDTH 1000 0
DWIDTH 8 0
BBX 7 7 0 -1
BITMAP
2E
56
FE
B6
F6
5A
AA
ENDCHAR
STARTCHAR uni529B
ENCODING 21147
SWIDTH 1000 0
DWIDTH 8 0
BBX 7 7 0 -1
BITMAP
20
FE
22
22
42
42
86
ENDCHAR
STARTCHAR uni529F
ENCODING 21151
SWIDTH 1000 0
DWIDTH 8 0
BBX 7 7 0 -1
BITMAP
08
FE
4A
4A
6A
CA
16
ENDCHAR
STARTCHAR uni52A0
ENCODING 21152
SWIDTH 1000 0
DWIDTH 8 0
BBX 7 7 0 -1
BITMAP
40
FE
5A
5A
5A
5A
BE
ENDCHAR
STARTCHAR uni52A3
ENCODING 21155
SWIDTH 1000 0
DWIDTH 8 0
BBX 7 7 0 -1
BITMAP
10
54
9A
30
FE
22
C6
ENDCHAR
STARTCHAR uni52A9
ENCODING 21161
SWIDTH 1000 0
DWIDTH 8 0
BBX 7 7 0 -1
BITMAP
74
5E
76
56
76
5A
EA
ENDCHAR
STARTCHAR uni52AA
ENCODING 21162
SWIDTH 1000 0
DWIDTH 8 0
BBX 7 7 0 -1
BITMAP
2E
FA
54
EA
7E
22
C6
ENDCHAR
STARTCHAR uni52AB
ENCODING 21163
SWIDTH 1000 0
DWIDTH 8 0
BBX 7 7 0 -1
BITMAP
24
7E
26
F6
26
5A
EA
ENDCHAR
STARTCHAR uni52AC
ENCODING 21164
SWIDTH 1000 0
DWIDTH 8 0
BBX 7 7 0 -1
BITMAP
44
7E
96
76
76
1A
3A
ENDCHAR
STARTCHAR uni52AD
ENCODING 21165
SWIDTH 1000 0
DWIDTH 8 0
BBX 7 7 0 -1
BITMAP
E8
7E
AA
0A
EA
AA
F6
ENDCHAR
STARTCHAR uni52B1
ENCODING 21169
SWIDTH 1000 0
DWIDTH 8 0
BBX 7 7 0 -1
BITMAP
F4
8E
F6
A6
B6
DA
DA
ENDCHAR
STARTCHAR uni52B4
ENCODING 21172
SWIDTH 1000 0
DWIDTH 8 0
BBX 7 7 0 -1
BITMAP
54
FE
92
7C
14
24
CC
ENDCHAR
STARTCHAR uni52B5
ENCODING 21173
SWIDTH 1000 0
DWIDTH 8 0
BBX 7 7 0 -1
BITMAP
54
92
7C
28
DE
14
6C
ENDCHAR
STARTCHAR uni52B9
ENCODING 21177
SWIDTH 1000 0
DWIDTH 8 0
BBX 7 7 0 -1
BITMAP
28
FE
5A
8A
5A
2A
D6
ENDCHAR
STARTCHAR uni52BC
ENCODING 21180
SWIDTH 1000 0
DWIDTH 8 0
BBX 7 7 0 -1
BITMAP
48
FE
4A
EA
0A
EA
F6
ENDCHAR
STARTCHAR uni52BE
ENCODING 21182
SWIDTH 1000 0
DWIDTH 8 0
BBX 7 7 0 -1
BITMAP
28
FE
4A
AA
5A
2A
D6
ENDCHAR
STARTCHAR uni52C1
ENCODING 21185
SWIDTH 1000 0
DWIDTH 8 0
BBX 7 7 0 -1
BITMAP
F4
5E
A6
56
F6
2A
FA
ENDCHAR
STARTCHAR uni52C3
ENCODING 21187
SWIDTH 1000 0
DWIDTH 8 0
BBX 7 7 0 -1
BITMAP
24
6E
F6
96
26
FA
6A
ENDCHAR
STARTCHAR uni52C5
ENCODING 21189
SWIDTH 1000 0
DWIDTH 8 0
BBX 7 7 0 -1
BITMAP
24
FE
6E
7E
26
7A
AA
ENDCHAR
STARTCHAR uni52C7
ENCODING 21191
SWIDTH 1000 0
DWIDTH 8 0
BBX 7 7 0 -1
BITMAP
7C
08
7C
54
FE
22
C6
ENDCHAR
STARTCHAR uni52C9
ENCODING 21193
SWIDTH 1000 0
DWIDTH 8 0
BBX 7 7 0 -1
BITMAP
64
AE
F6
B6
FA
6A
BE
ENDCHAR
STARTCHAR uni52CD
ENCODING 21197
SWIDTH 1000 0
DWIDTH 8 0
BBX 7 7 0 -1
BITMAP
24
FE
56
76
26
AA
6A
ENDCHAR
STARTCHAR uni52D2
ENCODING 21202
SWIDTH 1000 0
DWIDTH 8 0
BBX 7 7 0 -1
BITMAP
A8
FE
EA
4A
EA
EA
56
ENDCHAR
STARTCHAR uni52D5
ENCODING 21205
SWIDTH 1000 0
DWIDTH 8 0
BBX 7 7 0 -1
BITMAP
E8
5E
EA
EA
EA
4A
F6
ENDCHAR
STARTCHAR uni52D7
ENCODING 21207
SWIDTH 1000 0
DWIDTH 8 0
BBX 7 7 0 -1
BITMAP
7C
7C
74
5E
76
5A
EA
ENDCHAR
STARTCHAR uni52D8
ENCODING 21208
SWIDTH 1000 0
DWIDTH 8 0
BBX 7 7 0 -1
BITMAP
54
FE
56
56
F6
AA
FA
ENDCHAR
STARTCHAR uni52D9
ENCODING 21209
SWIDTH 1000 0
DWIDTH 8 0
BBX 7 7 0 -1
BITMAP
E8
2E
54
EA
7E
AA
76
ENDCHAR
STARTCHAR uni52DD
ENCODING 21213
SWIDTH 1000 0
DWIDTH 8 0
BBX 7 7 0 -1
BITMAP
F6
A4
FE
AC
FE
AA
B6
ENDCHAR
STARTCHAR uni52DE
ENCODING 21214
SWIDTH 1000 0
DWIDTH 8 0
BBX 7 7 0 -1
BITMAP
AA
44
FE
92
7C
24
CC
ENDCHAR
STARTCHAR uni52DF
ENCODING 21215
SWIDTH 1000 0
DWIDTH 8 0
BBX 7 7 0 -1
BITMAP
28
FE
38
FC
52
BC
14
ENDCHAR
STARTCHAR uni52E0
ENCODING 21216
SWIDTH 1000 0
DWIDTH 8 0
BBX 7 7 0 -1
BITMAP
F4
5E
26
56
A6
1A
6A
ENDCHAR
STARTCHAR uni52E2
ENCODING 21218
SWIDTH 1000 0
DWIDTH 8 0
BBX 7 7 0 -1
BITMAP
28
7C
EC
76
FC
24
CC
ENDCHAR
STARTCHAR uni52E3
ENCODING 21219
SWIDTH 1000 0
DWIDTH 8 0
BBX 7 7 0 -1
BITMAP
28
FE
2A
FA
6A
6A
96
ENDCHAR
STARTCHAR uni52E4
ENCODING 21220
SWIDTH 1000 0
DWIDTH 8 0
BBX 7 7 0 -1
BITMAP
54
FE
56
F6
F6
2A
FA
ENDCHAR
STARTCHAR uni52E6
ENCODING 21222
SWIDTH 1000 0
DWIDTH 8 0
BBX 7 7 0 -1
BITMAP
54
AE
76
76
F6
7A
AA
ENDCHAR
STARTCHAR uni52E7
ENCODING 21223
SWIDTH 1000 0
DWIDTH 8 0
BBX 7 7 0 -1
BITMAP
44
7E
A6
76
E6
6A
7A
ENDCHAR
STARTCHAR uni52F2
ENCODING 21234
SWIDTH 1000 0
DWIDTH 8 0
BBX 7 7 0 -1
BITMAP
64
FE
66
6A
FA
00
AA
ENDCHAR
STARTCHAR uni52F3
ENCODING 21235
SWIDTH 1000 0
DWIDTH 8 0
BBX 7 7 0 -1
BITMAP
64
FE
66
66
F6
0A
AA
ENDCHAR
STARTCHAR uni52F5
ENCODING 21237
SWIDTH 1000 0
DWIDTH 8 0
BBX 7 7 0 -1
BITMAP
F4
AE
F6
F6
A6
FA
DA
ENDCHAR
STARTCHAR uni52F8
ENCODING 21240
SWIDTH 1000 0
DWIDTH 8 0
BBX 7 7 0 -1
BITMAP
54
FE
DE
66
76
EA
7A
ENDCHAR
STARTCHAR uni52F9
ENCODING 21241
SWIDTH 1000 0
DWIDTH 8 0
BBX 7 7 0 -1
BITMAP
40
7E
42
82
02
02
06
ENDCHAR
STARTCHAR uni52FA
ENCODING 21242
SWIDTH 1000 0
DWIDTH 8 0
BBX 7 7 0 -1
BITMAP
40
7E
42
A2
12
02
06
ENDCHAR
STARTCHAR uni52FE
ENCODING 21246
SWIDTH 1000 0
DWIDTH 8 0
BBX 7 7 0 -1
BITMAP
40
7E
52
92
2A
76
02
ENDCHAR
STARTCHAR uni52FF
ENCODING 21247
SWIDTH 1000 0
DWIDTH 8 0
BBX 7 7 0 -1
BITMAP
40
7E
AA
2A
4A
92
26
ENDCHAR
STARTCHAR uni5301
ENCODING 21249
SWIDTH 1000 0
DWIDTH 8 0
BBX 7 7 0 -1
BITMAP
40
7E
92
32
1E
22
C6
ENDCHAR
STARTCHAR uni5302
ENCODING 21250
SWIDTH 1000 0
DWIDTH 8 0
BBX 7 7 0 -1
BITMAP
40
7E
A2
3A
22
3A
06
ENDCHAR
STARTCHAR uni5305
ENCODING 21253
SWIDTH 1000 0
DWIDTH 8 0
BBX 7 7 0 -1
BITMAP
40
7E
BA
0A
3A
20
3E
ENDCHAR
STARTCHAR uni5306
ENCODING 21254
SWIDTH 1000 0
DWIDTH 8 0
BBX 7 7 0 -1
BITMAP
40
7E
AA
3A
4E
92
26
ENDCHAR
STARTCHAR uni5308
ENCODING 21256
SWIDTH 1000 0
DWIDTH 8 0
BBX 7 7 0 -1
BITMAP
40
7E
AA
52
6A
7A
06
ENDCHAR
STARTCHAR uni530D
ENCODING 21261
SWIDTH 1000 0
DWIDTH 8 0
BBX 7 7 0 -1
BITMAP
40
7E
92
7A
12
7A
5A
ENDCHAR
STARTCHAR uni530F
ENCODING 21263
SWIDTH 1000 0
DWIDTH 8 0
BBX 7 7 0 -1
BITMAP
24
F6
6A
96
66
74
16
ENDCHAR
STARTCHAR uni5310
ENCODING 21264
SWIDTH 1000 0
DWIDTH 8 0
BBX 7 7 0 -1
BITMAP
40
7E
82
7A
32
7A
7A
ENDCHAR
STARTCHAR uni5315
ENCODING 21269
SWIDTH 1000 0
DWIDTH 8 0
BBX 7 7 0 -1
BITMAP
40
48
50
60
C0
42
3E
ENDCHAR
STARTCHAR uni5316
ENCODING 21270
SWIDTH 1000 0
DWIDTH 8 0
BBX 7 7 0 -1
BITMAP
30
50
D2
5C
50
52
5E
ENDCHAR
STARTCHAR uni5317
ENCODING 21271
SWIDTH 1000 0
DWIDTH 8 0
BBX 7 7 0 -1
BITMAP
28
28
EA
2C
68
AA
2E
ENDCHAR
STARTCHAR uni5319
ENCODING 21273
SWIDTH 1000 0
DWIDTH 8 0
BBX 7 7 0 -1
BITMAP
68
6A
FC
28
7A
6E
9E
ENDCHAR
STARTCHAR uni531A
ENCODING 21274
SWIDTH 1000 0
DWIDTH 8 0
BBX 7 7 0 -1
BITMAP
FE
80
80
80
80
80
FE
ENDCHAR
STARTCHAR uni531D
ENCODING 21277
SWIDTH 1000 0
DWIDTH 8 0
BBX 7 7 0 -1
BITMAP
FE
88
BE
AA
AA
88
FE
ENDCHAR
STARTCHAR uni5320
ENCODING 21280
SWIDTH 1000 0
DWIDTH 8 0
BBX 7 7 0 -1
BITMAP
FE
8C
B0
BE
A8
C8
FE
ENDCHAR
STARTCHAR uni5321
ENCODING 21281
SWIDTH 1000 0
DWIDTH 8 0
BBX 7 7 0 -1
BITMAP
FE
BC
88
9C
88
BC
FE
ENDCHAR
STARTCHAR uni5323
ENCODING 21283
SWIDTH 1000 0
DWIDTH 8 0
BBX 7 7 0 -1
BITMAP
FE
BE
AA
BE
BE
88
FE
ENDCHAR
STARTCHAR uni532A
ENCODING 21290
SWIDTH 1000 0
DWIDTH 8 0
BBX 7 7 0 -1
BITMAP
FE
94
F6
94
F6
A4
FE
ENDCHAR
STARTCHAR uni532F
ENCODING 21295
SWIDTH 1000 0
DWIDTH 8 0
BBX 7 7 0 -1
BITMAP
FE
D4
BE
D4
9E
D4
FE
ENDCHAR
STARTCHAR uni5331
ENCODING 21297
SWIDTH 1000 0
DWIDTH 8 0
BBX 7 7 0 -1
BITMAP
FE
98
BC
98
98
A4
FE
ENDCHAR
STARTCHAR uni5333
ENCODING 21299
SWIDTH 1000 0
DWIDTH 8 0
BBX 7 7 0 -1
BITMAP
FE
88
9C
BE
94
AA
FE
ENDCHAR
STARTCHAR uni5338
ENCODING 21304
SWIDTH 1000 0
DWIDTH 8 0
BBX 7 7 0 -1
BITMAP
FE
40
40
40
40
40
3E
ENDCHAR
STARTCHAR uni5339
ENCODING 21305
SWIDTH 1000 0
DWIDTH 8 0
BBX 7 7 0 -1
BITMAP
FE
A8
A8
AA
CE
80
FE
ENDCHAR
STARTCHAR uni533A
ENCODING 21306
SWIDTH 1000 0
DWIDTH 8 0
BBX 7 7 0 -1
BITMAP
FE
84
B4
88
94
A0
FE
ENDCHAR
STARTCHAR uni533B
ENCODING 21307
SWIDTH 1000 0
DWIDTH 8 0
BBX 7 7 0 -1
BITMAP
FE
A0
BC
FE
88
B6
FE
ENDCHAR
STARTCHAR uni533F
ENCODING 21311
SWIDTH 1000 0
DWIDTH 8 0
BBX 7 7 0 -1
BITMAP
FE
A8
FE
B0
DC
94
FE
ENDCHAR
STARTCHAR uni5340
ENCODING 21312
SWIDTH 1000 0
DWIDTH 8 0
BBX 7 7 0 -1
BITMAP
FE
54
5C
40
76
76
7E
ENDCHAR
STARTCHAR uni5341
ENCODING 21313
SWIDTH 1000 0
DWIDTH 8 0
BBX 7 7 0 -1
BITMAP
10
10
FE
10
10
10
10
ENDCHAR
STARTCHAR uni5343
ENCODING 21315
SWIDTH 1000 0
DWIDTH 8 0
BBX 7 7 0 -1
BITMAP
0C
70
10
FE
10
10
10
ENDCHAR
STARTCHAR uni5345
ENCODING 21317
SWIDTH 1000 0
DWIDTH 8 0
BBX 7 7 0 -1
BITMAP
54
54
54
FE
54
54
94
ENDCHAR
STARTCHAR uni5346
ENCODING 21318
SWIDTH 1000 0
DWIDTH 8 0
BBX 7 7 0 -1
BITMAP
10
F8
2A
CE
10
FE
10
ENDCHAR
STARTCHAR uni5347
ENCODING 21319
SWIDTH 1000 0
DWIDTH 8 0
BBX 7 7 0 -1
BITMAP
14
E4
24
FE
24
24
44
ENDCHAR
STARTCHAR uni5348
ENCODING 21320
SWIDTH 1000 0
DWIDTH 8 0
BBX 7 7 0 -1
BITMAP
40
7C
90
10
FE
10
10
ENDCHAR
STARTCHAR uni5349
ENCODING 21321
SWIDTH 1000 0
DWIDTH 8 0
BBX 7 7 0 -1
BITMAP
10
7E
10
24
FE
24
44
ENDCHAR
STARTCHAR uni534A
ENCODING 21322
SWIDTH 1000 0
DWIDTH 8 0
BBX 7 7 0 -1
BITMAP
10
54
10
7C
10
FE
10
ENDCHAR
STARTCHAR uni534D
ENCODING 21325
SWIDTH 1000 0
DWIDTH 8 0
BBX 7 7 0 -1
BITMAP
F2
12
12
FE
90
90
9E
ENDCHAR
STARTCHAR uni5351
ENCODING 21329
SWIDTH 1000 0
DWIDTH 8 0
BBX 7 7 0 -1
BITMAP
10
7C
54
7C
28
FE
08
ENDCHAR
STARTCHAR uni5352
ENCODING 21330
SWIDTH 1000 0
DWIDTH 8 0
BBX 7 7 0 -1
BITMAP
10
FE
44
44
AA
FE
10
ENDCHAR
STARTCHAR uni5353
ENCODING 21331
SWIDTH 1000 0
DWIDTH 8 0
BBX 7 7 0 -1
BITMAP
10
1E
7C
44
7C
FE
10
ENDCHAR
STARTCHAR uni5354
ENCODING 21332
SWIDTH 1000 0
DWIDTH 8 0
BBX 7 7 0 -1
BITMAP
48
5E
EA
40
4A
7E
56
ENDCHAR
STARTCHAR uni5357
ENCODING 21335
SWIDTH 1000 0
DWIDTH 8 0
BBX 7 7 0 -1
BITMAP
10
FE
10
FE
AA
FE
92
ENDCHAR
STARTCHAR uni5358
ENCODING 21336
SWIDTH 1000 0
DWIDTH 8 0
BBX 7 7 0 -1
BITMAP
54
7C
54
7C
54
FE
10
ENDCHAR
STARTCHAR uni535A
ENCODING 21338
SWIDTH 1000 0
DWIDTH 8 0
BBX 7 7 0 -1
BITMAP
4A
FE
5C
5C
7E
54
4C
ENDCHAR
STARTCHAR uni535C
ENCODING 21340
SWIDTH 1000 0
DWIDTH 8 0
BBX 4 7 2 -1
BITMAP
80
80
C0
A0
90
80
80
ENDCHAR
STARTCHAR uni535E
ENCODING 21342
SWIDTH 1000 0
DWIDTH 8 0
BBX 7 7 0 -1
BITMAP
10
FE
10
18
14
10
10
ENDCHAR
STARTCHAR uni5360
ENCODING 21344
SWIDTH 1000 0
DWIDTH 8 0
BBX 6 7 1 -1
BITMAP
20
20
3C
20
FC
84
FC
ENDCHAR
STARTCHAR uni5366
ENCODING 21350
SWIDTH 1000 0
DWIDTH 8 0
BBX 7 7 0 -1
BITMAP
28
78
28
FC
6A
38
C8
ENDCHAR
STARTCHAR uni5369
ENCODING 21353
SWIDTH 1000 0
DWIDTH 8 0
BBX 4 7 2 -1
BITMAP
F0
90
90
90
B0
80
80
ENDCHAR
STARTCHAR uni536E
ENCODING 21358
SWIDTH 1000 0
DWIDTH 8 0
BBX 7 7 0 -1
BITMAP
0C
70
7E
5C
54
52
9E
ENDCHAR
STARTCHAR uni536F
ENCODING 21359
SWIDTH 1000 0
DWIDTH 8 0
BBX 7 7 0 -1
BITMAP
2E
CA
AA
AA
EA
28
48
ENDCHAR
STARTCHAR uni5370
ENCODING 21360
SWIDTH 1000 0
DWIDTH 8 0
BBX 7 7 0 -1
BITMAP
2E
CA
8A
EA
8A
E8
08
ENDCHAR
STARTCHAR uni5371
ENCODING 21361
SWIDTH 1000 0
DWIDTH 8 0
BBX 7 7 0 -1
BITMAP
38
C8
7E
5C
54
52
9E
ENDCHAR
STARTCHAR uni5373
ENCODING 21363
SWIDTH 1000 0
DWIDTH 8 0
BBX 7 7 0 -1
BITMAP
EE
AA
EA
AA
EA
98
E8
ENDCHAR
STARTCHAR uni5374
ENCODING 21364
SWIDTH 1000 0
DWIDTH 8 0
BBX 7 7 0 -1
BITMAP
2E
7A
2A
FA
2A
58
E8
ENDCHAR
STARTCHAR uni5375
ENCODING 21365
SWIDTH 1000 0
DWIDTH 8 0
BBX 7 7 0 -1
BITMAP
2E
CA
EE
AA
EA
28
48
ENDCHAR
STARTCHAR uni5377
ENCODING 21367
SWIDTH 1000 0
DWIDTH 8 0
BBX 7 7 0 -1
BITMAP
54
92
28
FE
6C
A2
38
ENDCHAR
STARTCHAR uni5378
ENCODING 21368
SWIDTH 1000 0
DWIDTH 8 0
BBX 7 7 0 -1
BITMAP
4E
7A
AA
FA
2A
B8
C8
ENDCHAR
STARTCHAR uni537B
ENCODING 21371
SWIDTH 1000 0
DWIDTH 8 0
BBX 7 7 0 -1
BITMAP
5E
8A
2A
5A
8A
68
68
ENDCHAR
STARTCHAR uni537F
ENCODING 21375
SWIDTH 1000 0
DWIDTH 8 0
BBX 7 7 0 -1
BITMAP
46
BE
AE
BE
E6
6C
B4
ENDCHAR
STARTCHAR uni5382
ENCODING 21378
SWIDTH 1000 0
DWIDTH 8 0
BBX 7 7 0 -1
BITMAP
7E
40
40
40
40
40
80
ENDCHAR
STARTCHAR uni5384
ENCODING 21380
SWIDTH 1000 0
DWIDTH 8 0
BBX 7 7 0 -1
BITMAP
7E
40
7C
64
6C
62
BE
ENDCHAR
STARTCHAR uni5396
ENCODING 21398
SWIDTH 1000 0
DWIDTH 8 0
BBX 7 7 0 -1
BITMAP
7E
50
7A
54
5A
5C
AE
ENDCHAR
STARTCHAR uni5398
ENCODING 21400
SWIDTH 1000 0
DWIDTH 8 0
BBX 7 7 0 -1
BITMAP
7E
6A
7E
6A
7E
48
BE
ENDCHAR
STARTCHAR uni539A
ENCODING 21402
SWIDTH 1000 0
DWIDTH 8 0
BBX 7 7 0 -1
BITMAP
7E
5C
5C
44
7E
48
98
ENDCHAR
STARTCHAR uni539F
ENCODING 21407
SWIDTH 1000 0
DWIDTH 8 0
BBX 7 7 0 -1
BITMAP
7E
48
5C
5C
48
6A
98
ENDCHAR
STARTCHAR uni53A0
ENCODING 21408
SWIDTH 1000 0
DWIDTH 8 0
BBX 7 7 0 -1
BITMAP
7E
68
7A
6A
7A
42
AA
ENDCHAR
STARTCHAR uni53A5
ENCODING 21413
SWIDTH 1000 0
DWIDTH 8 0
BBX 7 7 0 -1
BITMAP
FE
D8
AE
D6
F4
A4
CA
ENDCHAR
STARTCHAR uni53A6
ENCODING 21414
SWIDTH 1000 0
DWIDTH 8 0
BBX 7 7 0 -1
BITMAP
7E
5E
4C
4C
54
48
B6
ENDCHAR
STARTCHAR uni53A8
ENCODING 21416
SWIDTH 1000 0
DWIDTH 8 0
BBX 7 7 0 -1
BITMAP
7E
40
7A
6E
72
5A
B6
ENDCHAR
STARTCHAR uni53A9
ENCODING 21417
SWIDTH 1000 0
DWIDTH 8 0
BBX 7 7 0 -1
BITMAP
7E
5E
6A
6A
5E
6C
96
ENDCHAR
STARTCHAR uni53AD
ENCODING 21421
SWIDTH 1000 0
DWIDTH 8 0
BBX 7 7 0 -1
BITMAP
7E
74
4E
74
74
74
BA
ENDCHAR
STARTCHAR uni53AE
ENCODING 21422
SWIDTH 1000 0
DWIDTH 8 0
BBX 7 7 0 -1
BITMAP
FE
B2
FC
B6
FE
8A
D2
ENDCHAR
STARTCHAR uni53B0
ENCODING 21424
SWIDTH 1000 0
DWIDTH 8 0
BBX 7 7 0 -1
BITMAP
FE
A4
D6
FA
FA
F4
DA
ENDCHAR
STARTCHAR uni53B3
ENCODING 21427
SWIDTH 1000 0
DWIDTH 8 0
BBX 7 7 0 -1
BITMAP
54
7E
64
76
5A
74
9A
ENDCHAR
STARTCHAR uni53B6
ENCODING 21430
SWIDTH 1000 0
DWIDTH 8 0
BBX 7 7 0 -1
BITMAP
10
10
10
20
28
44
FA
ENDCHAR
STARTCHAR uni53BB
ENCODING 21435
SWIDTH 1000 0
DWIDTH 8 0
BBX 7 7 0 -1
BITMAP
10
7C
10
FE
10
24
FA
ENDCHAR
STARTCHAR uni53C2
ENCODING 21442
SWIDTH 1000 0
DWIDTH 8 0
BBX 7 7 0 -1
BITMAP
28
74
FE
54
A2
08
70
ENDCHAR
STARTCHAR uni53C3
ENCODING 21443
SWIDTH 1000 0
DWIDTH 8 0
BBX 7 7 0 -1
BITMAP
24
7A
24
FE
54
8A
30
ENDCHAR
STARTCHAR uni53C8
ENCODING 21448
SWIDTH 1000 0
DWIDTH 8 0
BBX 7 7 0 -1
BITMAP
FC
44
44
28
10
28
C6
ENDCHAR
STARTCHAR uni53C9
ENCODING 21449
SWIDTH 1000 0
DWIDTH 8 0
BBX 7 7 0 -1
BITMAP
FC
54
44
28
10
28
C6
ENDCHAR
STARTCHAR uni53CA
ENCODING 21450
SWIDTH 1000 0
DWIDTH 8 0
BBX 7 7 0 -1
BITMAP
F8
28
2C
24
54
48
B6
ENDCHAR
STARTCHAR uni53CB
ENCODING 21451
SWIDTH 1000 0
DWIDTH 8 0
BBX 7 7 0 -1
BITMAP
20
FE
20
3C
54
88
76
ENDCHAR
STARTCHAR uni53CC
ENCODING 21452
SWIDTH 1000 0
DWIDTH 8 0
BBX 7 7 0 -1
BITMAP
FE
12
5A
2A
34
44
9A
ENDCHAR
STARTCHAR uni53CD
ENCODING 21453
SWIDTH 1000 0
DWIDTH 8 0
BBX 7 7 0 -1
BITMAP
7E
40
7C
54
54
48
B6
ENDCHAR
STARTCHAR uni53CE
ENCODING 21454
SWIDTH 1000 0
DWIDTH 8 0
BBX 7 7 0 -1
BITMAP
2E
A2
AA
AA
B4
E4
2A
ENDCHAR
STARTCHAR uni53D4
ENCODING 21460
SWIDTH 1000 0
DWIDTH 8 0
BBX 7 7 0 -1
BITMAP
2E
32
2A
FA
24
B4
6A
ENDCHAR
STARTCHAR uni53D6
ENCODING 21462
SWIDTH 1000 0
DWIDTH 8 0
BBX 7 7 0 -1
BITMAP
F0
5E
72
7A
54
FA
10
ENDCHAR
STARTCHAR uni53D7
ENCODING 21463
SWIDTH 1000 0
DWIDTH 8 0
BBX 7 7 0 -1
BITMAP
FE
54
FE
BA
28
10
EE
ENDCHAR
STARTCHAR uni53D9
ENCODING 21465
SWIDTH 1000 0
DWIDTH 8 0
BBX 7 7 0 -1
BITMAP
2E
52
FA
2A
F4
24
AA
ENDCHAR
STARTCHAR uni53DB
ENCODING 21467
SWIDTH 1000 0
DWIDTH 8 0
BBX 7 7 0 -1
BITMAP
BE
50
FE
5A
FA
54
9A
ENDCHAR
STARTCHAR uni53DF
ENCODING 21471
SWIDTH 1000 0
DWIDTH 8 0
BBX 7 7 0 -1
BITMAP
56
92
D6
FE
28
10
EE
ENDCHAR
STARTCHAR uni53E1
ENCODING 21473
SWIDTH 1000 0
DWIDTH 8 0
BBX 7 7 0 -1
BITMAP
2E
32
FA
AA
54
B4
3A
ENDCHAR
STARTCHAR uni53E2
ENCODING 21474
SWIDTH 1000 0
DWIDTH 8 0
BBX 7 7 0 -1
BITMAP
AA
FE
28
FE
7A
E4
2A
ENDCHAR
STARTCHAR uni53E3
ENCODING 21475
SWIDTH 1000 0
DWIDTH 8 0
BBX 6 6 1 -1
BITMAP
FC
84
84
84
FC
84
ENDCHAR
STARTCHAR uni53E4
ENCODING 21476
SWIDTH 1000 0
DWIDTH 8 0
BBX 7 7 0 -1
BITMAP
10
10
FE
10
7C
44
7C
ENDCHAR
STARTCHAR uni53E5
ENCODING 21477
SWIDTH 1000 0
DWIDTH 8 0
BBX 7 7 0 -1
BITMAP
40
7E
42
BA
2A
3A
06
ENDCHAR
STARTCHAR uni53E8
ENCODING 21480
SWIDTH 1000 0
DWIDTH 8 0
BBX 7 7 0 -1
BITMAP
1E
EA
AA
AA
EA
12
26
ENDCHAR
STARTCHAR uni53E9
ENCODING 21481
SWIDTH 1000 0
DWIDTH 8 0
BBX 7 7 0 -1
BITMAP
1E
F2
B2
B2
F6
10
10
ENDCHAR
STARTCHAR uni53EA
ENCODING 21482
SWIDTH 1000 0
DWIDTH 8 0
BBX 7 7 0 -1
BITMAP
7E
42
42
7E
00
24
C2
ENDCHAR
STARTCHAR uni53EB
ENCODING 21483
SWIDTH 1000 0
DWIDTH 8 0
BBX 7 7 0 -1
BITMAP
04
D4
D4
D4
D6
3C
04
ENDCHAR
STARTCHAR uni53EC
ENCODING 21484
SWIDTH 1000 0
DWIDTH 8 0
BBX 7 7 0 -1
BITMAP
FE
12
22
C6
7E
42
7E
ENDCHAR
STARTCHAR uni53ED
ENCODING 21485
SWIDTH 1000 0
DWIDTH 8 0
BBX 7 7 0 -1
BITMAP
14
F4
B4
B4
F4
14
22
ENDCHAR
STARTCHAR uni53EE
ENCODING 21486
SWIDTH 1000 0
DWIDTH 8 0
BBX 7 7 0 -1
BITMAP
1E
E4
A4
A4
E4
04
0C
ENDCHAR
STARTCHAR uni53EF
ENCODING 21487
SWIDTH 1000 0
DWIDTH 8 0
BBX 7 7 0 -1
BITMAP
FE
04
74
54
74
04
0C
ENDCHAR
STARTCHAR uni53F0
ENCODING 21488
SWIDTH 1000 0
DWIDTH 8 0
BBX 7 7 0 -1
BITMAP
10
10
24
FA
00
7C
7C
ENDCHAR
STARTCHAR uni53F1
ENCODING 21489
SWIDTH 1000 0
DWIDTH 8 0
BBX 7 7 0 -1
BITMAP
10
F0
B2
BC
F0
12
1E
ENDCHAR
STARTCHAR uni53F2
ENCODING 21490
SWIDTH 1000 0
DWIDTH 8 0
BBX 7 7 0 -1
BITMAP
08
7E
4A
7E
28
10
EE
ENDCHAR
STARTCHAR uni53F3
ENCODING 21491
SWIDTH 1000 0
DWIDTH 8 0
BBX 7 7 0 -1
BITMAP
20
FE
20
3E
62
A2
3E
ENDCHAR
STARTCHAR uni53F6
ENCODING 21494
SWIDTH 1000 0
DWIDTH 8 0
BBX 7 7 0 -1
BITMAP
04
E4
BE
A4
E4
04
04
ENDCHAR
STARTCHAR uni53F7
ENCODING 21495
SWIDTH 1000 0
DWIDTH 8 0
BBX 7 7 0 -1
BITMAP
3C
24
FE
20
3C
04
0C
ENDCHAR
STARTCHAR uni53F8
ENCODING 21496
SWIDTH 1000 0
DWIDTH 8 0
BBX 7 7 0 -1
BITMAP
FE
02
7A
02
7A
7A
06
ENDCHAR
STARTCHAR uni53FA
ENCODING 21498
SWIDTH 1000 0
DWIDTH 8 0
BBX 7 7 0 -1
BITMAP
18
E8
A8
A8
F4
14
22
ENDCHAR
STARTCHAR uni5401
ENCODING 21505
SWIDTH 1000 0
DWIDTH 8 0
BBX 7 7 0 -1
BITMAP
1E
E4
A4
BE
E4
04
0C
ENDCHAR
STARTCHAR uni5403
ENCODING 21507
SWIDTH 1000 0
DWIDTH 8 0
BBX 7 7 0 -1
BITMAP
10
DE
E0
DC
C8
12
0E
ENDCHAR
STARTCHAR uni5404
ENCODING 21508
SWIDTH 1000 0
DWIDTH 8 0
BBX 7 7 0 -1
BITMAP
1C
64
18
24
FE
24
3C
ENDCHAR
STARTCHAR uni5408
ENCODING 21512
SWIDTH 1000 0
DWIDTH 8 0
BBX 7 7 0 -1
BITMAP
18
24
DA
00
7E
42
7E
ENDCHAR
STARTCHAR uni5409
ENCODING 21513
SWIDTH 1000 0
DWIDTH 8 0
BBX 7 7 0 -1
BITMAP
10
FE
10
7C
00
7C
7C
ENDCHAR
STARTCHAR uni540A
ENCODING 21514
SWIDTH 1000 0
DWIDTH 8 0
BBX 7 7 0 -1
BITMAP
7C
44
7C
FE
92
96
10
ENDCHAR
STARTCHAR uni540B
ENCODING 21515
SWIDTH 1000 0
DWIDTH 8 0
BBX 7 7 0 -1
BITMAP
04
FE
A4
B4
EC
04
0C
ENDCHAR
STARTCHAR uni540C
ENCODING 21516
SWIDTH 1000 0
DWIDTH 8 0
BBX 7 7 0 -1
BITMAP
FE
82
BA
82
BA
AA
BA
ENDCHAR
STARTCHAR uni540D
ENCODING 21517
SWIDTH 1000 0
DWIDTH 8 0
BBX 7 7 0 -1
BITMAP
3C
24
58
10
3E
D2
1E
ENDCHAR
STARTCHAR uni540E
ENCODING 21518
SWIDTH 1000 0
DWIDTH 8 0
BBX 7 7 0 -1
BITMAP
0C
70
40
7E
40
5C
9C
ENDCHAR
STARTCHAR uni540F
ENCODING 21519
SWIDTH 1000 0
DWIDTH 8 0
BBX 7 7 0 -1
BITMAP
10
FE
54
7C
30
10
EE
ENDCHAR
STARTCHAR uni5410
ENCODING 21520
SWIDTH 1000 0
DWIDTH 8 0
BBX 7 7 0 -1
BITMAP
04
E4
BE
A4
E4
04
1E
ENDCHAR
STARTCHAR uni5411
ENCODING 21521
SWIDTH 1000 0
DWIDTH 8 0
BBX 7 7 0 -1
BITMAP
20
FE
82
BA
AA
BA
86
ENDCHAR
STARTCHAR uni541B
ENCODING 21531
SWIDTH 1000 0
DWIDTH 8 0
BBX 7 7 0 -1
BITMAP
7C
14
FE
14
7E
32
DE
ENDCHAR
STARTCHAR uni541D
ENCODING 21533
SWIDTH 1000 0
DWIDTH 8 0
BBX 7 7 0 -1
BITMAP
10
FE
28
10
EE
7C
7C
ENDCHAR
STARTCHAR uni541F
ENCODING 21535
SWIDTH 1000 0
DWIDTH 8 0
BBX 7 7 0 -1
BITMAP
04
EA
B6
A0
EE
02
0C
ENDCHAR
STARTCHAR uni5420
ENCODING 21536
SWIDTH 1000 0
DWIDTH 8 0
BBX 7 7 0 -1
BITMAP
0A
E8
BE
A8
E8
14
22
ENDCHAR
STARTCHAR uni5426
ENCODING 21542
SWIDTH 1000 0
DWIDTH 8 0
BBX 7 7 0 -1
BITMAP
FE
18
34
D2
7C
44
7C
ENDCHAR
STARTCHAR uni5429
ENCODING 21545
SWIDTH 1000 0
DWIDTH 8 0
BBX 7 7 0 -1
BITMAP
14
F4
A2
BE
EA
12
26
ENDCHAR
STARTCHAR uni542B
ENCODING 21547
SWIDTH 1000 0
DWIDTH 8 0
BBX 7 7 0 -1
BITMAP
18
24
DA
38
08
7C
7C
ENDCHAR
STARTCHAR uni542C
ENCODING 21548
SWIDTH 1000 0
DWIDTH 8 0
BBX 7 7 0 -1
BITMAP
02
FC
B0
BE
F4
14
24
ENDCHAR
STARTCHAR uni542D
ENCODING 21549
SWIDTH 1000 0
DWIDTH 8 0
BBX 7 7 0 -1
BITMAP
08
FE
A0
BC
F4
14
26
ENDCHAR
STARTCHAR uni542E
ENCODING 21550
SWIDTH 1000 0
DWIDTH 8 0
BBX 7 7 0 -1
BITMAP
04
E8
B2
BE
EC
0C
16
ENDCHAR
STARTCHAR uni5436
ENCODING 21558
SWIDTH 1000 0
DWIDTH 8 0
BBX 7 7 0 -1
BITMAP
18
C8
FE
EA
F6
22
26
ENDCHAR
STARTCHAR uni5438
ENCODING 21560
SWIDTH 1000 0
DWIDTH 8 0
BBX 7 7 0 -1
BITMAP
3C
D4
D6
D2
DA
24
5A
ENDCHAR
STARTCHAR uni5439
ENCODING 21561
SWIDTH 1000 0
DWIDTH 8 0
BBX 7 7 0 -1
BITMAP
08
EE
B6
A4
E4
04
1A
ENDCHAR
STARTCHAR uni543B
ENCODING 21563
SWIDTH 1000 0
DWIDTH 8 0
BBX 7 7 0 -1
BITMAP
10
FE
AE
AE
B6
EA
16
ENDCHAR
STARTCHAR uni543C
ENCODING 21564
SWIDTH 1000 0
DWIDTH 8 0
BBX 7 7 0 -1
BITMAP
3C
CC
D4
DC
F4
14
36
ENDCHAR
STARTCHAR uni543D
ENCODING 21565
SWIDTH 1000 0
DWIDTH 8 0
BBX 7 7 0 -1
BITMAP
0C
EE
B4
A4
FE
04
04
ENDCHAR
STARTCHAR uni543E
ENCODING 21566
SWIDTH 1000 0
DWIDTH 8 0
BBX 7 7 0 -1
BITMAP
7C
10
78
28
FE
44
7C
ENDCHAR
STARTCHAR uni5440
ENCODING 21568
SWIDTH 1000 0
DWIDTH 8 0
BBX 7 7 0 -1
BITMAP
1E
F4
B4
BE
EC
34
0C
ENDCHAR
STARTCHAR uni5442
ENCODING 21570
SWIDTH 1000 0
DWIDTH 8 0
BBX 6 7 1 -1
BITMAP
78
48
78
20
FC
84
FC
ENDCHAR
STARTCHAR uni5446
ENCODING 21574
SWIDTH 1000 0
DWIDTH 8 0
BBX 7 7 0 -1
BITMAP
7C
44
7C
10
FE
38
D6
ENDCHAR
STARTCHAR uni5448
ENCODING 21576
SWIDTH 1000 0
DWIDTH 8 0
BBX 7 7 0 -1
BITMAP
7C
44
FE
10
7C
10
FE
ENDCHAR
STARTCHAR uni5449
ENCODING 21577
SWIDTH 1000 0
DWIDTH 8 0
BBX 7 7 0 -1
BITMAP
3C
A4
FC
04
FE
00
C6
ENDCHAR
STARTCHAR uni544A
ENCODING 21578
SWIDTH 1000 0
DWIDTH 8 0
BBX 7 7 0 -1
BITMAP
50
7C
90
FE
00
7C
7C
ENDCHAR
STARTCHAR uni544E
ENCODING 21582
SWIDTH 1000 0
DWIDTH 8 0
BBX 7 7 0 -1
BITMAP
1E
F2
BE
B4
F4
14
22
ENDCHAR
STARTCHAR uni5451
ENCODING 21585
SWIDTH 1000 0
DWIDTH 8 0
BBX 7 7 0 -1
BITMAP
0C
70
FE
44
BE
24
3C
ENDCHAR
STARTCHAR uni545F
ENCODING 21599
SWIDTH 1000 0
DWIDTH 8 0
BBX 7 7 0 -1
BITMAP
04
FE
A8
BA
E4
0A
1E
ENDCHAR
STARTCHAR uni5468
ENCODING 21608
SWIDTH 1000 0
DWIDTH 8 0
BBX 7 7 0 -1
BITMAP
7E
4A
5E
4A
7E
56
9E
ENDCHAR
STARTCHAR uni546A
ENCODING 21610
SWIDTH 1000 0
DWIDTH 8 0
BBX 7 7 0 -1
BITMAP
3E
E2
A2
BE
D4
14
66
ENDCHAR
STARTCHAR uni5470
ENCODING 21616
SWIDTH 1000 0
DWIDTH 8 0
BBX 7 7 0 -1
BITMAP
24
B6
A4
F6
7C
44
7C
ENDCHAR
STARTCHAR uni5471
ENCODING 21617
SWIDTH 1000 0
DWIDTH 8 0
BBX 7 7 0 -1
BITMAP
02
FC
B4
B4
F4
16
2A
ENDCHAR
STARTCHAR uni5473
ENCODING 21619
SWIDTH 1000 0
DWIDTH 8 0
BBX 7 7 0 -1
BITMAP
08
FC
A8
BE
E8
1C
2A
ENDCHAR
STARTCHAR uni5475
ENCODING 21621
SWIDTH 1000 0
DWIDTH 8 0
BBX 7 7 0 -1
BITMAP
1E
E2
BE
B6
FE
02
06
ENDCHAR
STARTCHAR uni5476
ENCODING 21622
SWIDTH 1000 0
DWIDTH 8 0
BBX 7 7 0 -1
BITMAP
16
FA
DA
EA
F4
14
2A
ENDCHAR
STARTCHAR uni5477
ENCODING 21623
SWIDTH 1000 0
DWIDTH 8 0
BBX 7 7 0 -1
BITMAP
3E
EA
BE
AA
FE
08
08
ENDCHAR
STARTCHAR uni547B
ENCODING 21627
SWIDTH 1000 0
DWIDTH 8 0
BBX 7 7 0 -1
BITMAP
08
FE
AA
BE
EA
3E
08
ENDCHAR
STARTCHAR uni547C
ENCODING 21628
SWIDTH 1000 0
DWIDTH 8 0
BBX 7 7 0 -1
BITMAP
06
F8
EA
C8
FE
08
18
ENDCHAR
STARTCHAR uni547D
ENCODING 21629
SWIDTH 1000 0
DWIDTH 8 0
BBX 7 7 0 -1
BITMAP
18
24
DA
00
6E
6A
08
ENDCHAR
STARTCHAR uni5480
ENCODING 21632
SWIDTH 1000 0
DWIDTH 8 0
BBX 7 7 0 -1
BITMAP
1C
F4
BC
B4
FC
14
3E
ENDCHAR
STARTCHAR uni5484
ENCODING 21636
SWIDTH 1000 0
DWIDTH 8 0
BBX 7 7 0 -1
BITMAP
08
EA
FE
C8
EA
2A
3E
ENDCHAR
STARTCHAR uni5486
ENCODING 21638
SWIDTH 1000 0
DWIDTH 8 0
BBX 7 7 0 -1
BITMAP
08
EE
B2
AE
EE
08
0E
ENDCHAR
STARTCHAR uni548B
ENCODING 21643
SWIDTH 1000 0
DWIDTH 8 0
BBX 7 7 0 -1
BITMAP
10
DE
E8
CE
C8
0E
08
ENDCHAR
STARTCHAR uni548C
ENCODING 21644
SWIDTH 1000 0
DWIDTH 8 0
BBX 7 7 0 -1
BITMAP
70
2E
FA
2A
7A
AA
2E
ENDCHAR
STARTCHAR uni548E
ENCODING 21646
SWIDTH 1000 0
DWIDTH 8 0
BBX 7 7 0 -1
BITMAP
74
D4
2A
D0
7E
44
7C
ENDCHAR
STARTCHAR uni548F
ENCODING 21647
SWIDTH 1000 0
DWIDTH 8 0
BBX 7 7 0 -1
BITMAP
18
C0
D8
FA
DC
2A
18
ENDCHAR
STARTCHAR uni5490
ENCODING 21648
SWIDTH 1000 0
DWIDTH 8 0
BBX 7 7 0 -1
BITMAP
12
EE
A2
AA
E6
22
26
ENDCHAR
STARTCHAR uni5492
ENCODING 21650
SWIDTH 1000 0
DWIDTH 8 0
BBX 7 7 0 -1
BITMAP
EE
AA
EE
38
28
2A
CE
ENDCHAR
STARTCHAR uni54A2
ENCODING 21666
SWIDTH 1000 0
DWIDTH 8 0
BBX 7 7 0 -1
BITMAP
EE
EE
38
FE
20
3C
04
ENDCHAR
STARTCHAR uni54A4
ENCODING 21668
SWIDTH 1000 0
DWIDTH 8 0
BBX 7 7 0 -1
BITMAP
08
FE
B2
AC
FE
08
0E
ENDCHAR
STARTCHAR uni54A5
ENCODING 21669
SWIDTH 1000 0
DWIDTH 8 0
BBX 7 7 0 -1
BITMAP
1E
E8
BE
A4
EE
04
1E
ENDCHAR
STARTCHAR uni54A8
ENCODING 21672
SWIDTH 1000 0
DWIDTH 8 0
BBX 7 7 0 -1
BITMAP
90
1E
2A
94
7C
44
7C
ENDCHAR
STARTCHAR uni54AB
ENCODING 21675
SWIDTH 1000 0
DWIDTH 8 0
BBX 7 7 0 -1
BITMAP
76
56
76
60
6A
50
8E
ENDCHAR
STARTCHAR uni54AC
ENCODING 21676
SWIDTH 1000 0
DWIDTH 8 0
BBX 7 7 0 -1
BITMAP
08
FE
B4
A2
F4
08
36
ENDCHAR
STARTCHAR uni54AF
ENCODING 21679
SWIDTH 1000 0
DWIDTH 8 0
BBX 7 7 0 -1
BITMAP
0C
F4
A8
B4
E2
1C
1C
ENDCHAR
STARTCHAR uni54B2
ENCODING 21682
SWIDTH 1000 0
DWIDTH 8 0
BBX 7 7 0 -1
BITMAP
14
E0
BE
A8
FE
08
36
ENDCHAR
STARTCHAR uni54B3
ENCODING 21683
SWIDTH 1000 0
DWIDTH 8 0
BBX 7 7 0 -1
BITMAP
08
FE
D0
EA
D4
0C
32
ENDCHAR
STARTCHAR uni54B8
ENCODING 21688
SWIDTH 1000 0
DWIDTH 8 0
BBX 7 7 0 -1
BITMAP
04
7E
44
74
46
74
BA
ENDCHAR
STARTCHAR uni54BC
ENCODING 21692
SWIDTH 1000 0
DWIDTH 8 0
BBX 7 7 0 -1
BITMAP
7C
5C
54
FE
BA
AA
BA
ENDCHAR
STARTCHAR uni54BD
ENCODING 21693
SWIDTH 1000 0
DWIDTH 8 0
BBX 7 7 0 -1
BITMAP
3E
EA
BE
AA
F6
22
3E
ENDCHAR
STARTCHAR uni54BE
ENCODING 21694
SWIDTH 1000 0
DWIDTH 8 0
BBX 7 7 0 -1
BITMAP
0A
FC
A8
BE
F0
28
0E
ENDCHAR
STARTCHAR uni54C0
ENCODING 21696
SWIDTH 1000 0
DWIDTH 8 0
BBX 7 7 0 -1
BITMAP
10
FE
44
7C
2A
64
B2
ENDCHAR
STARTCHAR uni54C1
ENCODING 21697
SWIDTH 1000 0
DWIDTH 8 0
BBX 7 7 0 -1
BITMAP
7C
44
7C
00
EE
AA
EE
ENDCHAR
STARTCHAR uni54C2
ENCODING 21698
SWIDTH 1000 0
DWIDTH 8 0
BBX 7 7 0 -1
BITMAP
3E
D4
BE
B6
F6
22
3E
ENDCHAR
STARTCHAR uni54C4
ENCODING 21700
SWIDTH 1000 0
DWIDTH 8 0
BBX 7 7 0 -1
BITMAP
14
FE
B4
B4
FE
00
22
ENDCHAR
STARTCHAR uni54C7
ENCODING 21703
SWIDTH 1000 0
DWIDTH 8 0
BBX 7 7 0 -1
BITMAP
08
FC
A8
BE
FC
08
3E
ENDCHAR
STARTCHAR uni54C8
ENCODING 21704
SWIDTH 1000 0
DWIDTH 8 0
BBX 7 7 0 -1
BITMAP
08
F4
AE
A0
FE
12
1E
ENDCHAR
STARTCHAR uni54C9
ENCODING 21705
SWIDTH 1000 0
DWIDTH 8 0
BBX 7 7 0 -1
BITMAP
28
7A
28
FE
06
64
6A
ENDCHAR
STARTCHAR uni54D8
ENCODING 21720
SWIDTH 1000 0
DWIDTH 8 0
BBX 7 7 0 -1
BITMAP
16
E0
B6
B2
F2
12
16
ENDCHAR
STARTCHAR uni54E1
ENCODING 21729
SWIDTH 1000 0
DWIDTH 8 0
BBX 7 7 0 -1
BITMAP
38
28
7C
7C
44
7C
C6
ENDCHAR
STARTCHAR uni54E2
ENCODING 21730
SWIDTH 1000 0
DWIDTH 8 0
BBX 7 7 0 -1
BITMAP
3E
C8
FE
D4
FE
14
24
ENDCHAR
STARTCHAR uni54E5
ENCODING 21733
SWIDTH 1000 0
DWIDTH 8 0
BBX 7 7 0 -1
BITMAP
FE
54
74
FE
74
54
74
ENDCHAR
STARTCHAR uni54E6
ENCODING 21734
SWIDTH 1000 0
DWIDTH 8 0
BBX 7 7 0 -1
BITMAP
0E
F4
FE
D4
D6
3C
12
ENDCHAR
STARTCHAR uni54E8
ENCODING 21736
SWIDTH 1000 0
DWIDTH 8 0
BBX 7 7 0 -1
BITMAP
2A
C8
FE
E2
FE
22
26
ENDCHAR
STARTCHAR uni54E9
ENCODING 21737
SWIDTH 1000 0
DWIDTH 8 0
BBX 7 7 0 -1
BITMAP
3E
EA
BE
AA
FE
08
3E
ENDCHAR
STARTCHAR uni54ED
ENCODING 21741
SWIDTH 1000 0
DWIDTH 8 0
BBX 7 7 0 -1
BITMAP
EE
AA
EE
14
FE
10
EE
ENDCHAR
STARTCHAR uni54EE
ENCODING 21742
SWIDTH 1000 0
DWIDTH 8 0
BBX 7 7 0 -1
BITMAP
0A
DC
C8
FE
D4
2E
04
ENDCHAR
STARTCHAR uni54F2
ENCODING 21746
SWIDTH 1000 0
DWIDTH 8 0
BBX 7 7 0 -1
BITMAP
46
D8
5E
D4
7C
44
7C
ENDCHAR
STARTCHAR uni54FA
ENCODING 21754
SWIDTH 1000 0
DWIDTH 8 0
BBX 7 7 0 -1
BITMAP
0A
FE
A8
BE
EA
3E
2A
ENDCHAR
STARTCHAR uni54FD
ENCODING 21757
SWIDTH 1000 0
DWIDTH 8 0
BBX 7 7 0 -1
BITMAP
3E
DC
DC
C8
D8
08
36
ENDCHAR
STARTCHAR uni5504
ENCODING 21764
SWIDTH 1000 0
DWIDTH 8 0
BBX 7 7 0 -1
BITMAP
1E
F2
BE
B2
FE
00
12
ENDCHAR
STARTCHAR uni5506
ENCODING 21766
SWIDTH 1000 0
DWIDTH 8 0
BBX 7 7 0 -1
BITMAP
12
FE
D4
E6
CC
14
2A
ENDCHAR
STARTCHAR uni5507
ENCODING 21767
SWIDTH 1000 0
DWIDTH 8 0
BBX 7 7 0 -1
BITMAP
7E
5C
7E
68
B6
7C
7C
ENDCHAR
STARTCHAR uni550F
ENCODING 21775
SWIDTH 1000 0
DWIDTH 8 0
BBX 7 7 0 -1
BITMAP
14
C8
D4
FE
C8
1E
2A
ENDCHAR
STARTCHAR uni5510
ENCODING 21776
SWIDTH 1000 0
DWIDTH 8 0
BBX 7 7 0 -1
BITMAP
08
7E
5C
4E
7C
54
9C
ENDCHAR
STARTCHAR uni5514
ENCODING 21780
SWIDTH 1000 0
DWIDTH 8 0
BBX 7 7 0 -1
BITMAP
1C
C8
FC
D4
FE
14
1C
ENDCHAR
STARTCHAR uni5516
ENCODING 21782
SWIDTH 1000 0
DWIDTH 8 0
BBX 7 7 0 -1
BITMAP
3E
D4
BE
B6
FE
14
3E
ENDCHAR
STARTCHAR uni552E
ENCODING 21806
SWIDTH 1000 0
DWIDTH 8 0
BBX 7 7 0 -1
BITMAP
24
3E
68
BE
3E
22
3E
ENDCHAR
STARTCHAR uni552F
ENCODING 21807
SWIDTH 1000 0
DWIDTH 8 0
BBX 7 7 0 -1
BITMAP
14
FE
B4
BE
F4
14
1E
ENDCHAR
STARTCHAR uni5531
ENCODING 21809
SWIDTH 1000 0
DWIDTH 8 0
BBX 7 7 0 -1
BITMAP
1C
F4
BE
A2
FE
22
3E
ENDCHAR
STARTCHAR uni5533
ENCODING 21811
SWIDTH 1000 0
DWIDTH 8 0
BBX 7 7 0 -1
BITMAP
3E
D2
DE
D4
DE
24
1A
ENDCHAR
STARTCHAR uni5538
ENCODING 21816
SWIDTH 1000 0
DWIDTH 8 0
BBX 7 7 0 -1
BITMAP
08
D4
EE
DC
C4
32
2E
ENDCHAR
STARTCHAR uni5539
ENCODING 21817
SWIDTH 1000 0
DWIDTH 8 0
BBX 7 7 0 -1
BITMAP
14
FA
D0
DC
DA
2C
2A
ENDCHAR
STARTCHAR uni553E
ENCODING 21822
SWIDTH 1000 0
DWIDTH 8 0
BBX 7 7 0 -1
BITMAP
1C
C8
FE
D4
FE
08
3E
ENDCHAR
STARTCHAR uni5540
ENCODING 21824
SWIDTH 1000 0
DWIDTH 8 0
BBX 7 7 0 -1
BITMAP
3E
E4
AE
A4
EE
24
5E
ENDCHAR
STARTCHAR uni5544
ENCODING 21828
SWIDTH 1000 0
DWIDTH 8 0
BBX 7 7 0 -1
BITMAP
3E
D0
DA
EC
D8
2C
5A
ENDCHAR
STARTCHAR uni5545
ENCODING 21829
SWIDTH 1000 0
DWIDTH 8 0
BBX 7 7 0 -1
BITMAP
08
EE
BC
B4
FC
3E
08
ENDCHAR
STARTCHAR uni5546
ENCODING 21830
SWIDTH 1000 0
DWIDTH 8 0
BBX 7 7 0 -1
BITMAP
10
FE
28
FE
AA
DE
9A
ENDCHAR
STARTCHAR uni554C
ENCODING 21836
SWIDTH 1000 0
DWIDTH 8 0
BBX 7 7 0 -1
BITMAP
08
FE
B6
A0
FC
08
3E
ENDCHAR
STARTCHAR uni554F
ENCODING 21839
SWIDTH 1000 0
DWIDTH 8 0
BBX 7 7 0 -1
BITMAP
EE
AA
EE
82
BA
AA
BA
ENDCHAR
STARTCHAR uni5553
ENCODING 21843
SWIDTH 1000 0
DWIDTH 8 0
BBX 7 7 0 -1
BITMAP
F6
5A
74
8A
7C
44
7C
ENDCHAR
STARTCHAR uni5556
ENCODING 21846
SWIDTH 1000 0
DWIDTH 8 0
BBX 7 7 0 -1
BITMAP
2A
D4
E2
C8
EA
14
22
ENDCHAR
STARTCHAR uni5557
ENCODING 21847
SWIDTH 1000 0
DWIDTH 8 0
BBX 7 7 0 -1
BITMAP
0E
D2
C4
D6
E2
36
3E
ENDCHAR
STARTCHAR uni555C
ENCODING 21852
SWIDTH 1000 0
DWIDTH 8 0
BBX 7 7 0 -1
BITMAP
3E
F4
AA
BE
EA
14
2A
ENDCHAR
STARTCHAR uni555D
ENCODING 21853
SWIDTH 1000 0
DWIDTH 8 0
BBX 7 7 0 -1
BITMAP
38
D6
FE
D6
D8
34
52
ENDCHAR
STARTCHAR uni5563
ENCODING 21859
SWIDTH 1000 0
DWIDTH 8 0
BBX 7 7 0 -1
BITMAP
26
FE
D6
DE
F6
3C
04
ENDCHAR
STARTCHAR uni557B
ENCODING 21883
SWIDTH 1000 0
DWIDTH 8 0
BBX 7 7 0 -1
BITMAP
10
7C
28
FE
AA
7C
7C
ENDCHAR
STARTCHAR uni557C
ENCODING 21884
SWIDTH 1000 0
DWIDTH 8 0
BBX 7 7 0 -1
BITMAP
08
FE
D4
FE
EA
1C
14
ENDCHAR
STARTCHAR uni557E
ENCODING 21886
SWIDTH 1000 0
DWIDTH 8 0
BBX 7 7 0 -1
BITMAP
34
D4
FE
DC
F4
34
1A
ENDCHAR
STARTCHAR uni5580
ENCODING 21888
SWIDTH 1000 0
DWIDTH 8 0
BBX 7 7 0 -1
BITMAP
08
FE
EE
D4
C8
36
1C
ENDCHAR
STARTCHAR uni5583
ENCODING 21891
SWIDTH 1000 0
DWIDTH 8 0
BBX 7 7 0 -1
BITMAP
08
FE
C8
F6
EA
3E
2A
ENDCHAR
STARTCHAR uni5584
ENCODING 21892
SWIDTH 1000 0
DWIDTH 8 0
BBX 7 7 0 -1
BITMAP
24
FE
10
FE
54
FE
3C
ENDCHAR
STARTCHAR uni5587
ENCODING 21895
SWIDTH 1000 0
DWIDTH 8 0
BBX 7 7 0 -1
BITMAP
12
FE
B6
BE
D2
3A
56
ENDCHAR
STARTCHAR uni5589
ENCODING 21897
SWIDTH 1000 0
DWIDTH 8 0
BBX 7 7 0 -1
BITMAP
2C
E4
BE
A8
EE
24
2A
ENDCHAR
STARTCHAR uni558A
ENCODING 21898
SWIDTH 1000 0
DWIDTH 8 0
BBX 7 7 0 -1
BITMAP
04
FE
A4
BC
E6
3C
5A
ENDCHAR
STARTCHAR uni558B
ENCODING 21899
SWIDTH 1000 0
DWIDTH 8 0
BBX 7 7 0 -1
BITMAP
2A
FE
AE
A0
FE
1C
2A
ENDCHAR
STARTCHAR uni5598
ENCODING 21912
SWIDTH 1000 0
DWIDTH 8 0
BBX 7 7 0 -1
BITMAP
2A
FE
C0
FE
D0
3E
2A
ENDCHAR
STARTCHAR uni5599
ENCODING 21913
SWIDTH 1000 0
DWIDTH 8 0
BBX 7 7 0 -1
BITMAP
18
D4
FE
E8
DA
2C
1A
ENDCHAR
STARTCHAR uni559A
ENCODING 21914
SWIDTH 1000 0
DWIDTH 8 0
BBX 7 7 0 -1
BITMAP
1C
E4
DC
DC
FE
08
36
ENDCHAR
STARTCHAR uni559C
ENCODING 21916
SWIDTH 1000 0
DWIDTH 8 0
BBX 7 7 0 -1
BITMAP
10
FE
7C
28
FE
44
7C
ENDCHAR
STARTCHAR uni559D
ENCODING 21917
SWIDTH 1000 0
DWIDTH 8 0
BBX 7 7 0 -1
BITMAP
1C
D4
DC
DE
F2
1A
06
ENDCHAR
STARTCHAR uni559E
ENCODING 21918
SWIDTH 1000 0
DWIDTH 8 0
BBX 7 7 0 -1
BITMAP
16
FE
AE
BE
E6
34
24
ENDCHAR
STARTCHAR uni559F
ENCODING 21919
SWIDTH 1000 0
DWIDTH 8 0
BBX 7 7 0 -1
BITMAP
3E
EA
BE
BE
F4
1C
14
ENDCHAR
STARTCHAR uni55A7
ENCODING 21927
SWIDTH 1000 0
DWIDTH 8 0
BBX 7 7 0 -1
BITMAP
08
FE
E2
DC
C0
1C
3E
ENDCHAR
STARTCHAR uni55A8
ENCODING 21928
SWIDTH 1000 0
DWIDTH 8 0
BBX 7 7 0 -1
BITMAP
08
FE
D4
FE
E2
14
26
ENDCHAR
STARTCHAR uni55A9
ENCODING 21929
SWIDTH 1000 0
DWIDTH 8 0
BBX 7 7 0 -1
BITMAP
08
F4
AE
A0
FA
1C
1A
ENDCHAR
STARTCHAR uni55AA
ENCODING 21930
SWIDTH 1000 0
DWIDTH 8 0
BBX 7 7 0 -1
BITMAP
10
FE
76
10
FE
68
B6
ENDCHAR
STARTCHAR uni55AB
ENCODING 21931
SWIDTH 1000 0
DWIDTH 8 0
BBX 7 7 0 -1
BITMAP
16
FE
D6
FA
DC
08
36
ENDCHAR
STARTCHAR uni55AC
ENCODING 21932
SWIDTH 1000 0
DWIDTH 8 0
BBX 7 7 0 -1
BITMAP
38
FE
28
D6
FE
AA
BA
ENDCHAR
STARTCHAR uni55AE
ENCODING 21934
SWIDTH 1000 0
DWIDTH 8 0
BBX 7 7 0 -1
BITMAP
EE
AA
FE
54
7C
FE
10
ENDCHAR
STARTCHAR uni55B0
ENCODING 21936
SWIDTH 1000 0
DWIDTH 8 0
BBX 7 7 0 -1
BITMAP
08
D4
EA
D8
DA
14
1A
ENDCHAR
STARTCHAR uni55B6
ENCODING 21942
SWIDTH 1000 0
DWIDTH 8 0
BBX 7 7 0 -1
BITMAP
54
FE
AA
38
10
7C
7C
ENDCHAR
STARTCHAR uni55C4
ENCODING 21956
SWIDTH 1000 0
DWIDTH 8 0
BBX 7 7 0 -1
BITMAP
1E
E8
AC
AC
F4
08
36
ENDCHAR
STARTCHAR uni55C5
ENCODING 21957
SWIDTH 1000 0
DWIDTH 8 0
BBX 7 7 0 -1
BITMAP
08
FC
B4
BC
FE
08
36
ENDCHAR
STARTCHAR uni55C7
ENCODING 21959
SWIDTH 1000 0
DWIDTH 8 0
BBX 7 7 0 -1
BITMAP
10
FE
54
BA
FE
5A
7E
ENDCHAR
STARTCHAR uni55D4
ENCODING 21972
SWIDTH 1000 0
DWIDTH 8 0
BBX 7 7 0 -1
BITMAP
10
DE
CC
EC
FE
00
22
ENDCHAR
STARTCHAR uni55DA
ENCODING 21978
SWIDTH 1000 0
DWIDTH 8 0
BBX 7 7 0 -1
BITMAP
08
FC
B4
BC
FE
02
2A
ENDCHAR
STARTCHAR uni55DC
ENCODING 21980
SWIDTH 1000 0
DWIDTH 8 0
BBX 7 7 0 -1
BITMAP
0A
DC
FE
D8
EE
1C
1C
ENDCHAR
STARTCHAR uni55DF
ENCODING 21983
SWIDTH 1000 0
DWIDTH 8 0
BBX 7 7 0 -1
BITMAP
14
FE
A8
BE
FE
14
2E
ENDCHAR
STARTCHAR uni55E3
ENCODING 21987
SWIDTH 1000 0
DWIDTH 8 0
BBX 7 7 0 -1
BITMAP
EE
E2
0E
F2
FE
DE
92
ENDCHAR
STARTCHAR uni55E4
ENCODING 21988
SWIDTH 1000 0
DWIDTH 8 0
BBX 7 7 0 -1
BITMAP
2A
FE
C8
FE
DC
0A
3E
ENDCHAR
STARTCHAR uni55F7
ENCODING 22007
SWIDTH 1000 0
DWIDTH 8 0
BBX 7 7 0 -1
BITMAP
14
FE
D6
FE
D6
1C
2A
ENDCHAR
STARTCHAR uni55F9
ENCODING 22009
SWIDTH 1000 0
DWIDTH 8 0
BBX 7 7 0 -1
BITMAP
24
DE
EC
CC
DE
24
3E
ENDCHAR
STARTCHAR uni55FD
ENCODING 22013
SWIDTH 1000 0
DWIDTH 8 0
BBX 7 7 0 -1
BITMAP
14
FE
BA
BC
D4
34
5A
ENDCHAR
STARTCHAR uni55FE
ENCODING 22014
SWIDTH 1000 0
DWIDTH 8 0
BBX 7 7 0 -1
BITMAP
14
FE
D6
DC
DE
2C
2A
ENDCHAR
STARTCHAR uni5606
ENCODING 22022
SWIDTH 1000 0
DWIDTH 8 0
BBX 7 7 0 -1
BITMAP
14
FE
AA
BE
FE
08
36
ENDCHAR
STARTCHAR uni5609
ENCODING 22025
SWIDTH 1000 0
DWIDTH 8 0
BBX 7 7 0 -1
BITMAP
10
FE
7C
28
FE
6A
AE
ENDCHAR
STARTCHAR uni5614
ENCODING 22036
SWIDTH 1000 0
DWIDTH 8 0
BBX 7 7 0 -1
BITMAP
3E
EC
AC
A0
F6
36
3E
ENDCHAR
STARTCHAR uni5616
ENCODING 22038
SWIDTH 1000 0
DWIDTH 8 0
BBX 7 7 0 -1
BITMAP
04
FE
A4
BE
EC
0C
12
ENDCHAR
STARTCHAR uni5617
ENCODING 22039
SWIDTH 1000 0
DWIDTH 8 0
BBX 7 7 0 -1
BITMAP
54
FE
BA
40
7E
24
3C
ENDCHAR
STARTCHAR uni5618
ENCODING 22040
SWIDTH 1000 0
DWIDTH 8 0
BBX 7 7 0 -1
BITMAP
08
EE
B8
AE
E0
34
5E
ENDCHAR
STARTCHAR uni561B
ENCODING 22043
SWIDTH 1000 0
DWIDTH 8 0
BBX 7 7 0 -1
BITMAP
08
FE
D4
FE
FE
7E
94
ENDCHAR
STARTCHAR uni5629
ENCODING 22057
SWIDTH 1000 0
DWIDTH 8 0
BBX 7 7 0 -1
BITMAP
14
FE
BC
BE
FC
3E
08
ENDCHAR
STARTCHAR uni562F
ENCODING 22063
SWIDTH 1000 0
DWIDTH 8 0
BBX 7 7 0 -1
BITMAP
08
DC
CE
F4
E2
36
56
ENDCHAR
STARTCHAR uni5631
ENCODING 22065
SWIDTH 1000 0
DWIDTH 8 0
BBX 7 7 0 -1
BITMAP
3E
FE
A4
AC
FE
36
5A
ENDCHAR
STARTCHAR uni5632
ENCODING 22066
SWIDTH 1000 0
DWIDTH 8 0
BBX 7 7 0 -1
BITMAP
3E
D6
BE
BE
D6
3E
12
ENDCHAR
STARTCHAR uni5634
ENCODING 22068
SWIDTH 1000 0
DWIDTH 8 0
BBX 7 7 0 -1
BITMAP
24
F6
E4
FE
DC
1C
24
ENDCHAR
STARTCHAR uni5636
ENCODING 22070
SWIDTH 1000 0
DWIDTH 8 0
BBX 7 7 0 -1
BITMAP
2A
FC
AC
AE
FE
06
2A
ENDCHAR
STARTCHAR uni5638
ENCODING 22072
SWIDTH 1000 0
DWIDTH 8 0
BBX 7 7 0 -1
BITMAP
20
FE
D4
FE
D4
3E
2A
ENDCHAR
STARTCHAR uni5642
ENCODING 22082
SWIDTH 1000 0
DWIDTH 8 0
BBX 7 7 0 -1
BITMAP
14
FE
B6
A2
FE
14
0C
ENDCHAR
STARTCHAR uni564C
ENCODING 22092
SWIDTH 1000 0
DWIDTH 8 0
BBX 7 7 0 -1
BITMAP
14
FE
AA
BE
FC
14
1C
ENDCHAR
STARTCHAR uni564E
ENCODING 22094
SWIDTH 1000 0
DWIDTH 8 0
BBX 7 7 0 -1
BITMAP
08
FE
C8
FE
EA
14
3E
ENDCHAR
STARTCHAR uni5650
ENCODING 22096
SWIDTH 1000 0
DWIDTH 8 0
BBX 7 7 0 -1
BITMAP
6E
6A
FE
10
FE
6A
6E
ENDCHAR
STARTCHAR uni565B
ENCODING 22107
SWIDTH 1000 0
DWIDTH 8 0
BBX 7 7 0 -1
BITMAP
14
F6
BC
B6
EA
36
3E
ENDCHAR
STARTCHAR uni5664
ENCODING 22116
SWIDTH 1000 0
DWIDTH 8 0
BBX 7 7 0 -1
BITMAP
12
F6
D2
DC
FE
08
2A
ENDCHAR
STARTCHAR uni5668
ENCODING 22120
SWIDTH 1000 0
DWIDTH 8 0
BBX 7 7 0 -1
BITMAP
6E
5A
FE
10
EE
6A
6E
ENDCHAR
STARTCHAR uni566A
ENCODING 22122
SWIDTH 1000 0
DWIDTH 8 0
BBX 7 7 0 -1
BITMAP
1C
F4
BE
AA
FE
1C
2A
ENDCHAR
STARTCHAR uni566B
ENCODING 22123
SWIDTH 1000 0
DWIDTH 8 0
BBX 7 7 0 -1
BITMAP
08
FE
D4
FE
DC
32
2E
ENDCHAR
STARTCHAR uni566C
ENCODING 22124
SWIDTH 1000 0
DWIDTH 8 0
BBX 7 7 0 -1
BITMAP
24
F6
D2
FE
DC
2A
3E
ENDCHAR
STARTCHAR uni5674
ENCODING 22132
SWIDTH 1000 0
DWIDTH 8 0
BBX 7 7 0 -1
BITMAP
08
FE
D4
FE
D4
1C
22
ENDCHAR
STARTCHAR uni5678
ENCODING 22136
SWIDTH 1000 0
DWIDTH 8 0
BBX 7 7 0 -1
BITMAP
2E
F4
AE
BE
E6
30
0A
ENDCHAR
STARTCHAR uni567A
ENCODING 22138
SWIDTH 1000 0
DWIDTH 8 0
BBX 7 7 0 -1
BITMAP
12
FC
E8
DE
FA
3A
52
ENDCHAR
STARTCHAR uni5680
ENCODING 22144
SWIDTH 1000 0
DWIDTH 8 0
BBX 7 7 0 -1
BITMAP
08
FE
BA
AC
FE
08
18
ENDCHAR
STARTCHAR uni5686
ENCODING 22150
SWIDTH 1000 0
DWIDTH 8 0
BBX 7 7 0 -1
BITMAP
14
FE
DC
D4
FE
22
2A
ENDCHAR
STARTCHAR uni5687
ENCODING 22151
SWIDTH 1000 0
DWIDTH 8 0
BBX 7 7 0 -1
BITMAP
14
FE
D4
FE
F6
36
5A
ENDCHAR
STARTCHAR uni568A
ENCODING 22154
SWIDTH 1000 0
DWIDTH 8 0
BBX 7 7 0 -1
BITMAP
08
DC
D4
FE
EA
3E
14
ENDCHAR
STARTCHAR uni568F
ENCODING 22159
SWIDTH 1000 0
DWIDTH 8 0
BBX 7 7 0 -1
BITMAP
08
DC
FE
FE
CE
18
2E
ENDCHAR
STARTCHAR uni5694
ENCODING 22164
SWIDTH 1000 0
DWIDTH 8 0
BBX 7 7 0 -1
BITMAP
08
DC
FE
FE
CC
18
2E
ENDCHAR
STARTCHAR uni56A0
ENCODING 22176
SWIDTH 1000 0
DWIDTH 8 0
BBX 7 7 0 -1
BITMAP
16
EE
F6
CA
D6
2A
1E
ENDCHAR
STARTCHAR uni56A2
ENCODING 22178
SWIDTH 1000 0
DWIDTH 8 0
BBX 7 7 0 -1
BITMAP
10
FE
54
FE
FE
68
B6
ENDCHAR
STARTCHAR uni56A5
ENCODING 22181
SWIDTH 1000 0
DWIDTH 8 0
BBX 7 7 0 -1
BITMAP
14
FE
DC
D4
FE
00
2A
ENDCHAR
STARTCHAR uni56AE
ENCODING 22190
SWIDTH 1000 0
DWIDTH 8 0
BBX 7 7 0 -1
BITMAP
5E
96
5C
96
7E
5A
5A
ENDCHAR
STARTCHAR uni56B4
ENCODING 22196
SWIDTH 1000 0
DWIDTH 8 0
BBX 7 7 0 -1
BITMAP
36
7E
64
76
5A
74
9A
ENDCHAR
STARTCHAR uni56B6
ENCODING 22198
SWIDTH 1000 0
DWIDTH 8 0
BBX 7 7 0 -1
BITMAP
36
F6
EA
D0
FE
14
3A
ENDCHAR
STARTCHAR uni56BC
ENCODING 22204
SWIDTH 1000 0
DWIDTH 8 0
BBX 7 7 0 -1
BITMAP
3E
D4
FE
FE
E6
32
26
ENDCHAR
STARTCHAR uni56C0
ENCODING 22208
SWIDTH 1000 0
DWIDTH 8 0
BBX 7 7 0 -1
BITMAP
34
DE
FE
FE
D6
3A
16
ENDCHAR
STARTCHAR uni56C1
ENCODING 22209
SWIDTH 1000 0
DWIDTH 8 0
BBX 7 7 0 -1
BITMAP
1E
EC
BE
A4
F6
3E
12
ENDCHAR
STARTCHAR uni56C2
ENCODING 22210
SWIDTH 1000 0
DWIDTH 8 0
BBX 7 7 0 -1
BITMAP
6E
6A
FE
3C
3C
EA
6E
ENDCHAR
STARTCHAR uni56C3
ENCODING 22211
SWIDTH 1000 0
DWIDTH 8 0
BBX 7 7 0 -1
BITMAP
12
FC
EE
D4
FE
3C
56
ENDCHAR
STARTCHAR uni56C8
ENCODING 22216
SWIDTH 1000 0
DWIDTH 8 0
BBX 7 7 0 -1
BITMAP
14
FE
D4
DA
FE
14
3A
ENDCHAR
STARTCHAR uni56CE
ENCODING 22222
SWIDTH 1000 0
DWIDTH 8 0
BBX 7 7 0 -1
BITMAP
74
DA
F6
D6
F0
06
56
ENDCHAR
STARTCHAR uni56D1
ENCODING 22225
SWIDTH 1000 0
DWIDTH 8 0
BBX 7 7 0 -1
BITMAP
3E
FE
AA
BC
FE
2E
5A
ENDCHAR
STARTCHAR uni56D3
ENCODING 22227
SWIDTH 1000 0
DWIDTH 8 0
BBX 7 7 0 -1
BITMAP
16
FA
D6
FC
DA
16
1E
ENDCHAR
STARTCHAR uni56D7
ENCODING 22231
SWIDTH 1000 0
DWIDTH 8 0
BBX 7 7 0 -1
BITMAP
FE
82
82
82
82
82
FE
ENDCHAR
STARTCHAR uni56D8
ENCODING 22232
SWIDTH 1000 0
DWIDTH 8 0
BBX 7 7 0 -1
BITMAP
FE
BA
AA
BA
A2
BA
86
ENDCHAR
STARTCHAR uni56DA
ENCODING 22234
SWIDTH 1000 0
DWIDTH 8 0
BBX 7 7 0 -1
BITMAP
FE
92
92
92
AA
C6
FE
ENDCHAR
STARTCHAR uni56DB
ENCODING 22235
SWIDTH 1000 0
DWIDTH 8 0
BBX 7 7 0 -1
BITMAP
FE
AA
AA
AE
C2
82
FE
ENDCHAR
STARTCHAR uni56DE
ENCODING 22238
SWIDTH 1000 0
DWIDTH 8 0
BBX 7 7 0 -1
BITMAP
FE
82
BA
AA
BA
82
FE
ENDCHAR
STARTCHAR uni56E0
ENCODING 22240
SWIDTH 1000 0
DWIDTH 8 0
BBX 7 7 0 -1
BITMAP
FE
92
FE
92
AA
C6
FE
ENDCHAR
STARTCHAR uni56E3
ENCODING 22243
SWIDTH 1000 0
DWIDTH 8 0
BBX 7 7 0 -1
BITMAP
FE
8A
FE
AA
8A
9A
FE
ENDCHAR
STARTCHAR uni56EE
ENCODING 22254
SWIDTH 1000 0
DWIDTH 8 0
BBX 7 7 0 -1
BITMAP
FE
9A
AE
EA
AA
AE
FE
ENDCHAR
STARTCHAR uni56F0
ENCODING 22256
SWIDTH 1000 0
DWIDTH 8 0
BBX 7 7 0 -1
BITMAP
FE
92
FE
BA
D6
92
FE
ENDCHAR
STARTCHAR uni56F2
ENCODING 22258
SWIDTH 1000 0
DWIDTH 8 0
BBX 7 7 0 -1
BITMAP
FE
AA
FE
AA
FE
AA
FE
ENDCHAR
STARTCHAR uni56F3
ENCODING 22259
SWIDTH 1000 0
DWIDTH 8 0
BBX 7 7 0 -1
BITMAP
FE
D2
86
AA
9A
A6
FE
ENDCHAR
STARTCHAR uni56F9
ENCODING 22265
SWIDTH 1000 0
DWIDTH 8 0
BBX 7 7 0 -1
BITMAP
FE
92
AA
FE
96
92
FE
ENDCHAR
STARTCHAR uni56FA
ENCODING 22266
SWIDTH 1000 0
DWIDTH 8 0
BBX 7 7 0 -1
BITMAP
FE
92
BA
92
AA
BA
FE
ENDCHAR
STARTCHAR uni56FD
ENCODING 22269
SWIDTH 1000 0
DWIDTH 8 0
BBX 7 7 0 -1
BITMAP
FE
BA
92
BA
96
BA
FE
ENDCHAR
STARTCHAR uni56FF
ENCODING 22271
SWIDTH 1000 0
DWIDTH 8 0
BBX 7 7 0 -1
BITMAP
FE
A2
FA
A2
DA
9A
FE
ENDCHAR
STARTCHAR uni5700
ENCODING 22272
SWIDTH 1000 0
DWIDTH 8 0
BBX 7 7 0 -1
BITMAP
FE
AA
CE
BE
9A
AA
FE
ENDCHAR
STARTCHAR uni5703
ENCODING 22275
SWIDTH 1000 0
DWIDTH 8 0
BBX 7 7 0 -1
BITMAP
FE
96
FE
BA
BA
AA
FE
ENDCHAR
STARTCHAR uni5704
ENCODING 22276
SWIDTH 1000 0
DWIDTH 8 0
BBX 7 7 0 -1
BITMAP
FE
BA
F2
AA
FE
BA
FE
ENDCHAR
STARTCHAR uni5708
ENCODING 22280
SWIDTH 1000 0
DWIDTH 8 0
BBX 7 7 0 -1
BITMAP
FE
AA
FE
BA
F6
BA
FE
ENDCHAR
STARTCHAR uni5709
ENCODING 22281
SWIDTH 1000 0
DWIDTH 8 0
BBX 7 7 0 -1
BITMAP
FE
92
FE
AA
FE
92
FE
ENDCHAR
STARTCHAR uni570B
ENCODING 22283
SWIDTH 1000 0
DWIDTH 8 0
BBX 7 7 0 -1
BITMAP
FE
8A
FE
EA
8A
E6
FE
ENDCHAR
STARTCHAR uni570D
ENCODING 22285
SWIDTH 1000 0
DWIDTH 8 0
BBX 7 7 0 -1
BITMAP
FE
9A
FE
AA
FE
92
FE
ENDCHAR
STARTCHAR uni570F
ENCODING 22287
SWIDTH 1000 0
DWIDTH 8 0
BBX 7 7 0 -1
BITMAP
FE
AA
FE
BA
D6
9A
FE
ENDCHAR
STARTCHAR uni5712
ENCODING 22290
SWIDTH 1000 0
DWIDTH 8 0
BBX 7 7 0 -1
BITMAP
FE
BA
FE
AA
BA
D6
FE
ENDCHAR
STARTCHAR uni5713
ENCODING 22291
SWIDTH 1000 0
DWIDTH 8 0
BBX 7 7 0 -1
BITMAP
FE
BA
AA
BA
BA
C6
FE
ENDCHAR
STARTCHAR uni5716
ENCODING 22294
SWIDTH 1000 0
DWIDTH 8 0
BBX 7 7 0 -1
BITMAP
FE
AA
BA
FE
AA
BA
FE
ENDCHAR
STARTCHAR uni5718
ENCODING 22296
SWIDTH 1000 0
DWIDTH 8 0
BBX 7 7 0 -1
BITMAP
FE
92
FE
BA
FE
8A
FE
ENDCHAR
STARTCHAR uni571C
ENCODING 22300
SWIDTH 1000 0
DWIDTH 8 0
BBX 7 7 0 -1
BITMAP
FE
BA
FE
BA
EA
B6
FE
ENDCHAR
STARTCHAR uni571F
ENCODING 22303
SWIDTH 1000 0
DWIDTH 8 0
BBX 7 7 0 -1
BITMAP
10
10
7C
10
10
10
FE
ENDCHAR
STARTCHAR uni5726
ENCODING 22310
SWIDTH 1000 0
DWIDTH 8 0
BBX 7 7 0 -1
BITMAP
58
48
E8
48
74
D4
22
ENDCHAR
STARTCHAR uni5727
ENCODING 22311
SWIDTH 1000 0
DWIDTH 8 0
BBX 7 7 0 -1
BITMAP
7E
48
48
5C
48
48
BE
ENDCHAR
STARTCHAR uni5728
ENCODING 22312
SWIDTH 1000 0
DWIDTH 8 0
BBX 7 7 0 -1
BITMAP
20
FE
24
4E
C4
44
5E
ENDCHAR
STARTCHAR uni572D
ENCODING 22317
SWIDTH 1000 0
DWIDTH 8 0
BBX 7 7 0 -1
BITMAP
10
7C
10
FE
7C
10
FE
ENDCHAR
STARTCHAR uni5730
ENCODING 22320
SWIDTH 1000 0
DWIDTH 8 0
BBX 7 7 0 -1
BITMAP
44
54
DE
76
54
D2
1E
ENDCHAR
STARTCHAR uni5737
ENCODING 22327
SWIDTH 1000 0
DWIDTH 8 0
BBX 7 7 0 -1
BITMAP
7E
48
EC
4A
68
C8
08
ENDCHAR
STARTCHAR uni5738
ENCODING 22328
SWIDTH 1000 0
DWIDTH 8 0
BBX 7 7 0 -1
BITMAP
48
48
EA
6A
6A
EA
3E
ENDCHAR
STARTCHAR uni573B
ENCODING 22331
SWIDTH 1000 0
DWIDTH 8 0
BBX 7 7 0 -1
BITMAP
42
5C
F0
5E
74
D4
24
ENDCHAR
STARTCHAR uni5740
ENCODING 22336
SWIDTH 1000 0
DWIDTH 8 0
BBX 7 7 0 -1
BITMAP
44
44
F6
54
74
D4
3E
ENDCHAR
STARTCHAR uni5742
ENCODING 22338
SWIDTH 1000 0
DWIDTH 8 0
BBX 7 7 0 -1
BITMAP
5E
50
FE
5A
7A
D4
2A
ENDCHAR
STARTCHAR uni5747
ENCODING 22343
SWIDTH 1000 0
DWIDTH 8 0
BBX 7 7 0 -1
BITMAP
50
5E
E2
52
66
DA
06
ENDCHAR
STARTCHAR uni574A
ENCODING 22346
SWIDTH 1000 0
DWIDTH 8 0
BBX 7 7 0 -1
BITMAP
44
5E
E8
4E
6A
CA
16
ENDCHAR
STARTCHAR uni574E
ENCODING 22350
SWIDTH 1000 0
DWIDTH 8 0
BBX 7 7 0 -1
BITMAP
50
5E
EA
48
68
D4
22
ENDCHAR
STARTCHAR uni574F
ENCODING 22351
SWIDTH 1000 0
DWIDTH 8 0
BBX 7 7 0 -1
BITMAP
7E
48
EC
5A
6A
C8
08
ENDCHAR
STARTCHAR uni5750
ENCODING 22352
SWIDTH 1000 0
DWIDTH 8 0
BBX 7 7 0 -1
BITMAP
54
54
BA
10
7C
10
FE
ENDCHAR
STARTCHAR uni5751
ENCODING 22353
SWIDTH 1000 0
DWIDTH 8 0
BBX 7 7 0 -1
BITMAP
48
5E
E0
5C
74
D4
26
ENDCHAR
STARTCHAR uni5761
ENCODING 22369
SWIDTH 1000 0
DWIDTH 8 0
BBX 7 7 0 -1
BITMAP
48
7E
EA
7C
74
E8
36
ENDCHAR
STARTCHAR uni5764
ENCODING 22372
SWIDTH 1000 0
DWIDTH 8 0
BBX 7 7 0 -1
BITMAP
48
7E
EA
7E
6A
FE
08
ENDCHAR
STARTCHAR uni5766
ENCODING 22374
SWIDTH 1000 0
DWIDTH 8 0
BBX 7 7 0 -1
BITMAP
5E
52
FE
52
7E
C0
3E
ENDCHAR
STARTCHAR uni5769
ENCODING 22377
SWIDTH 1000 0
DWIDTH 8 0
BBX 7 7 0 -1
BITMAP
54
7E
D4
5C
74
D4
1C
ENDCHAR
STARTCHAR uni576A
ENCODING 22378
SWIDTH 1000 0
DWIDTH 8 0
BBX 7 7 0 -1
BITMAP
7E
48
EA
48
7E
C8
08
ENDCHAR
STARTCHAR uni577F
ENCODING 22399
SWIDTH 1000 0
DWIDTH 8 0
BBX 7 7 0 -1
BITMAP
4A
56
F2
5A
72
D2
16
ENDCHAR
STARTCHAR uni5782
ENCODING 22402
SWIDTH 1000 0
DWIDTH 8 0
BBX 7 7 0 -1
BITMAP
7C
10
FE
54
FE
10
FE
ENDCHAR
STARTCHAR uni5788
ENCODING 22408
SWIDTH 1000 0
DWIDTH 8 0
BBX 7 7 0 -1
BITMAP
2A
5E
C4
52
7C
10
FE
ENDCHAR
STARTCHAR uni5789
ENCODING 22409
SWIDTH 1000 0
DWIDTH 8 0
BBX 7 7 0 -1
BITMAP
50
5E
E2
5A
5A
D0
1E
ENDCHAR
STARTCHAR uni578B
ENCODING 22411
SWIDTH 1000 0
DWIDTH 8 0
BBX 7 7 0 -1
BITMAP
F2
5A
FA
52
B8
10
FE
ENDCHAR
STARTCHAR uni5793
ENCODING 22419
SWIDTH 1000 0
DWIDTH 8 0
BBX 7 7 0 -1
BITMAP
48
7E
D0
6A
54
CC
32
ENDCHAR
STARTCHAR uni57A0
ENCODING 22432
SWIDTH 1000 0
DWIDTH 8 0
BBX 7 7 0 -1
BITMAP
5E
52
FE
52
7E
D4
1A
ENDCHAR
STARTCHAR uni57A2
ENCODING 22434
SWIDTH 1000 0
DWIDTH 8 0
BBX 7 7 0 -1
BITMAP
42
5C
F0
5E
70
D6
26
ENDCHAR
STARTCHAR uni57A3
ENCODING 22435
SWIDTH 1000 0
DWIDTH 8 0
BBX 7 7 0 -1
BITMAP
7E
5C
F4
5C
74
DC
3E
ENDCHAR
STARTCHAR uni57A4
ENCODING 22436
SWIDTH 1000 0
DWIDTH 8 0
BBX 7 7 0 -1
BITMAP
5E
48
FE
44
6E
C4
1E
ENDCHAR
STARTCHAR uni57AA
ENCODING 22442
SWIDTH 1000 0
DWIDTH 8 0
BBX 7 7 0 -1
BITMAP
54
40
FE
54
7E
D4
24
ENDCHAR
STARTCHAR uni57B0
ENCODING 22448
SWIDTH 1000 0
DWIDTH 8 0
BBX 7 7 0 -1
BITMAP
48
4E
E8
5E
6C
CA
08
ENDCHAR
STARTCHAR uni57B3
ENCODING 22451
SWIDTH 1000 0
DWIDTH 8 0
BBX 7 7 0 -1
BITMAP
56
60
D6
72
52
D2
16
ENDCHAR
STARTCHAR uni57C0
ENCODING 22464
SWIDTH 1000 0
DWIDTH 8 0
BBX 7 7 0 -1
BITMAP
0C
70
FE
54
D6
38
FE
ENDCHAR
STARTCHAR uni57C3
ENCODING 22467
SWIDTH 1000 0
DWIDTH 8 0
BBX 7 7 0 -1
BITMAP
48
52
FE
48
7E
C4
1A
ENDCHAR
STARTCHAR uni57C6
ENCODING 22470
SWIDTH 1000 0
DWIDTH 8 0
BBX 7 7 0 -1
BITMAP
4C
74
DE
5A
5E
D2
26
ENDCHAR
STARTCHAR uni57CB
ENCODING 22475
SWIDTH 1000 0
DWIDTH 8 0
BBX 7 7 0 -1
BITMAP
7E
6A
FE
6A
7E
C8
3E
ENDCHAR
STARTCHAR uni57CE
ENCODING 22478
SWIDTH 1000 0
DWIDTH 8 0
BBX 7 7 0 -1
BITMAP
44
7E
E4
7C
6E
F4
2A
ENDCHAR
STARTCHAR uni57D2
ENCODING 22482
SWIDTH 1000 0
DWIDTH 8 0
BBX 7 7 0 -1
BITMAP
5C
6A
C4
7E
44
D4
0C
ENDCHAR
STARTCHAR uni57D3
ENCODING 22483
SWIDTH 1000 0
DWIDTH 8 0
BBX 7 7 0 -1
BITMAP
4C
54
E8
5E
64
D4
0C
ENDCHAR
STARTCHAR uni57D4
ENCODING 22484
SWIDTH 1000 0
DWIDTH 8 0
BBX 7 7 0 -1
BITMAP
4A
7E
C8
7E
6A
FE
2A
ENDCHAR
STARTCHAR uni57D6
ENCODING 22486
SWIDTH 1000 0
DWIDTH 8 0
BBX 7 7 0 -1
BITMAP
54
7E
C4
54
76
D4
16
ENDCHAR
STARTCHAR uni57DC
ENCODING 22492
SWIDTH 1000 0
DWIDTH 8 0
BBX 7 7 0 -1
BITMAP
24
FE
6C
B6
7C
10
FE
ENDCHAR
STARTCHAR uni57DF
ENCODING 22495
SWIDTH 1000 0
DWIDTH 8 0
BBX 7 7 0 -1
BITMAP
44
7E
C4
74
76
CC
32
ENDCHAR
STARTCHAR uni57E0
ENCODING 22496
SWIDTH 1000 0
DWIDTH 8 0
BBX 7 7 0 -1
BITMAP
48
5C
F4
5E
52
FE
08
ENDCHAR
STARTCHAR uni57E3
ENCODING 22499
SWIDTH 1000 0
DWIDTH 8 0
BBX 7 7 0 -1
BITMAP
48
7E
D4
54
6A
FE
08
ENDCHAR
STARTCHAR uni57F4
ENCODING 22516
SWIDTH 1000 0
DWIDTH 8 0
BBX 7 7 0 -1
BITMAP
48
7E
C8
6C
6C
E0
3E
ENDCHAR
STARTCHAR uni57F7
ENCODING 22519
SWIDTH 1000 0
DWIDTH 8 0
BBX 7 7 0 -1
BITMAP
48
FC
4C
AC
5C
EC
56
ENDCHAR
STARTCHAR uni57F9
ENCODING 22521
SWIDTH 1000 0
DWIDTH 8 0
BBX 7 7 0 -1
BITMAP
48
7E
D4
7E
40
DC
1C
ENDCHAR
STARTCHAR uni57FA
ENCODING 22522
SWIDTH 1000 0
DWIDTH 8 0
BBX 7 7 0 -1
BITMAP
28
7C
28
FE
44
92
38
ENDCHAR
STARTCHAR uni57FC
ENCODING 22524
SWIDTH 1000 0
DWIDTH 8 0
BBX 7 7 0 -1
BITMAP
48
7E
C8
54
7E
C4
14
ENDCHAR
STARTCHAR uni5800
ENCODING 22528
SWIDTH 1000 0
DWIDTH 8 0
BBX 7 7 0 -1
BITMAP
7E
62
FE
6E
E4
36
5E
ENDCHAR
STARTCHAR uni5802
ENCODING 22530
SWIDTH 1000 0
DWIDTH 8 0
BBX 7 7 0 -1
BITMAP
54
FE
AA
38
7C
10
FE
ENDCHAR
STARTCHAR uni5805
ENCODING 22533
SWIDTH 1000 0
DWIDTH 8 0
BBX 7 7 0 -1
BITMAP
EE
CA
E4
1A
7C
10
FE
ENDCHAR
STARTCHAR uni5806
ENCODING 22534
SWIDTH 1000 0
DWIDTH 8 0
BBX 7 7 0 -1
BITMAP
54
5E
F4
5E
74
D4
1E
ENDCHAR
STARTCHAR uni580A
ENCODING 22538
SWIDTH 1000 0
DWIDTH 8 0
BBX 7 7 0 -1
BITMAP
FE
6C
44
6C
FE
10
FE
ENDCHAR
STARTCHAR uni580B
ENCODING 22539
SWIDTH 1000 0
DWIDTH 8 0
BBX 7 7 0 -1
BITMAP
7E
6A
FE
6A
7E
EA
56
ENDCHAR
STARTCHAR uni5815
ENCODING 22549
SWIDTH 1000 0
DWIDTH 8 0
BBX 7 7 0 -1
BITMAP
C8
DE
88
D6
86
10
FE
ENDCHAR
STARTCHAR uni5819
ENCODING 22553
SWIDTH 1000 0
DWIDTH 8 0
BBX 7 7 0 -1
BITMAP
5E
4C
FE
5E
7E
C4
1E
ENDCHAR
STARTCHAR uni581D
ENCODING 22557
SWIDTH 1000 0
DWIDTH 8 0
BBX 7 7 0 -1
BITMAP
4E
4A
EA
5E
72
D6
16
ENDCHAR
STARTCHAR uni5821
ENCODING 22561
SWIDTH 1000 0
DWIDTH 8 0
BBX 7 7 0 -1
BITMAP
3C
54
FE
5C
6A
10
FE
ENDCHAR
STARTCHAR uni5824
ENCODING 22564
SWIDTH 1000 0
DWIDTH 8 0
BBX 7 7 0 -1
BITMAP
4C
4C
FE
44
56
D4
2E
ENDCHAR
STARTCHAR uni582A
ENCODING 22570
SWIDTH 1000 0
DWIDTH 8 0
BBX 7 7 0 -1
BITMAP
54
7E
D4
54
7E
E8
3E
ENDCHAR
STARTCHAR uni582F
ENCODING 22575
SWIDTH 1000 0
DWIDTH 8 0
BBX 7 7 0 -1
BITMAP
10
7C
FE
6C
FE
28
CE
ENDCHAR
STARTCHAR uni5830
ENCODING 22576
SWIDTH 1000 0
DWIDTH 8 0
BBX 7 7 0 -1
BITMAP
7E
6C
EC
7A
64
EA
3E
ENDCHAR
STARTCHAR uni5831
ENCODING 22577
SWIDTH 1000 0
DWIDTH 8 0
BBX 7 7 0 -1
BITMAP
2E
7A
F8
5E
FA
74
2A
ENDCHAR
STARTCHAR uni5834
ENCODING 22580
SWIDTH 1000 0
DWIDTH 8 0
BBX 7 7 0 -1
BITMAP
5C
54
FE
50
6E
D6
2A
ENDCHAR
STARTCHAR uni5835
ENCODING 22581
SWIDTH 1000 0
DWIDTH 8 0
BBX 7 7 0 -1
BITMAP
4A
5C
C8
7E
50
EE
0E
ENDCHAR
STARTCHAR uni583A
ENCODING 22586
SWIDTH 1000 0
DWIDTH 8 0
BBX 7 7 0 -1
BITMAP
7E
6A
FE
6A
5C
F6
14
ENDCHAR
STARTCHAR uni583D
ENCODING 22589
SWIDTH 1000 0
DWIDTH 8 0
BBX 7 7 0 -1
BITMAP
5E
5A
FE
44
76
D4
1E
ENDCHAR
STARTCHAR uni5840
ENCODING 22592
SWIDTH 1000 0
DWIDTH 8 0
BBX 7 7 0 -1
BITMAP
7E
62
FE
74
EC
3E
54
ENDCHAR
STARTCHAR uni5841
ENCODING 22593
SWIDTH 1000 0
DWIDTH 8 0
BBX 7 7 0 -1
BITMAP
7C
54
7C
82
44
92
7C
ENDCHAR
STARTCHAR uni584A
ENCODING 22602
SWIDTH 1000 0
DWIDTH 8 0
BBX 7 7 0 -1
BITMAP
50
7E
EA
7E
6A
DC
2E
ENDCHAR
STARTCHAR uni584B
ENCODING 22603
SWIDTH 1000 0
DWIDTH 8 0
BBX 7 7 0 -1
BITMAP
AA
44
FE
92
38
10
FE
ENDCHAR
STARTCHAR uni5851
ENCODING 22609
SWIDTH 1000 0
DWIDTH 8 0
BBX 7 7 0 -1
BITMAP
AE
FA
DE
7A
CA
10
FE
ENDCHAR
STARTCHAR uni5852
ENCODING 22610
SWIDTH 1000 0
DWIDTH 8 0
BBX 7 7 0 -1
BITMAP
48
7C
E8
7E
64
FE
14
ENDCHAR
STARTCHAR uni5854
ENCODING 22612
SWIDTH 1000 0
DWIDTH 8 0
BBX 7 7 0 -1
BITMAP
54
7E
C8
54
7E
D4
1C
ENDCHAR
STARTCHAR uni5857
ENCODING 22615
SWIDTH 1000 0
DWIDTH 8 0
BBX 7 7 0 -1
BITMAP
88
14
BE
08
BA
10
FE
ENDCHAR
STARTCHAR uni5858
ENCODING 22616
SWIDTH 1000 0
DWIDTH 8 0
BBX 7 7 0 -1
BITMAP
48
7E
EC
66
7C
EA
2E
ENDCHAR
STARTCHAR uni5859
ENCODING 22617
SWIDTH 1000 0
DWIDTH 8 0
BBX 7 7 0 -1
BITMAP
48
7E
D4
5C
7E
E2
2A
ENDCHAR
STARTCHAR uni585A
ENCODING 22618
SWIDTH 1000 0
DWIDTH 8 0
BBX 7 7 0 -1
BITMAP
7E
62
DC
5A
6C
D6
2C
ENDCHAR
STARTCHAR uni585E
ENCODING 22622
SWIDTH 1000 0
DWIDTH 8 0
BBX 7 7 0 -1
BITMAP
10
FE
AA
7C
FE
54
BA
ENDCHAR
STARTCHAR uni5862
ENCODING 22626
SWIDTH 1000 0
DWIDTH 8 0
BBX 7 7 0 -1
BITMAP
48
5C
F4
5C
7E
C2
2A
ENDCHAR
STARTCHAR uni5869
ENCODING 22633
SWIDTH 1000 0
DWIDTH 8 0
BBX 7 7 0 -1
BITMAP
50
5E
F4
5C
60
DC
3E
ENDCHAR
STARTCHAR uni586B
ENCODING 22635
SWIDTH 1000 0
DWIDTH 8 0
BBX 7 7 0 -1
BITMAP
48
7E
DC
5C
7E
C0
22
ENDCHAR
STARTCHAR uni5870
ENCODING 22640
SWIDTH 1000 0
DWIDTH 8 0
BBX 7 7 0 -1
BITMAP
A0
3E
9C
3E
9C
10
FE
ENDCHAR
STARTCHAR uni5872
ENCODING 22642
SWIDTH 1000 0
DWIDTH 8 0
BBX 7 7 0 -1
BITMAP
50
5E
F4
5C
5E
EA
16
ENDCHAR
STARTCHAR uni5875
ENCODING 22645
SWIDTH 1000 0
DWIDTH 8 0
BBX 7 7 0 -1
BITMAP
08
7E
5C
64
76
48
BE
ENDCHAR
STARTCHAR uni5879
ENCODING 22649
SWIDTH 1000 0
DWIDTH 8 0
BBX 7 7 0 -1
BITMAP
2E
F8
6E
F4
24
10
FE
ENDCHAR
STARTCHAR uni587E
ENCODING 22654
SWIDTH 1000 0
DWIDTH 8 0
BBX 7 7 0 -1
BITMAP
28
FC
5C
7C
AE
10
FE
ENDCHAR
STARTCHAR uni5883
ENCODING 22659
SWIDTH 1000 0
DWIDTH 8 0
BBX 7 7 0 -1
BITMAP
48
7E
D4
7E
5C
DC
26
ENDCHAR
STARTCHAR uni5885
ENCODING 22661
SWIDTH 1000 0
DWIDTH 8 0
BBX 7 7 0 -1
BITMAP
EE
E4
EE
46
EC
10
FE
ENDCHAR
STARTCHAR uni5893
ENCODING 22675
SWIDTH 1000 0
DWIDTH 8 0
BBX 7 7 0 -1
BITMAP
28
FE
38
FE
44
92
38
ENDCHAR
STARTCHAR uni5897
ENCODING 22679
SWIDTH 1000 0
DWIDTH 8 0
BBX 7 7 0 -1
BITMAP
54
5E
FA
5E
7C
D4
1C
ENDCHAR
STARTCHAR uni589C
ENCODING 22684
SWIDTH 1000 0
DWIDTH 8 0
BBX 7 7 0 -1
BITMAP
D4
FE
9A
EC
9A
10
FE
ENDCHAR
STARTCHAR uni589F
ENCODING 22687
SWIDTH 1000 0
DWIDTH 8 0
BBX 7 7 0 -1
BITMAP
44
46
FC
56
70
D4
2E
ENDCHAR
STARTCHAR uni58A8
ENCODING 22696
SWIDTH 1000 0
DWIDTH 8 0
BBX 7 7 0 -1
BITMAP
7C
54
FE
00
AA
10
FE
ENDCHAR
STARTCHAR uni58AB
ENCODING 22699
SWIDTH 1000 0
DWIDTH 8 0
BBX 7 7 0 -1
BITMAP
54
62
FE
76
7E
D4
0C
ENDCHAR
STARTCHAR uni58AE
ENCODING 22702
SWIDTH 1000 0
DWIDTH 8 0
BBX 7 7 0 -1
BITMAP
C8
DE
88
DE
8E
10
FE
ENDCHAR
STARTCHAR uni58B3
ENCODING 22707
SWIDTH 1000 0
DWIDTH 8 0
BBX 7 7 0 -1
BITMAP
48
7E
D4
7E
54
DC
22
ENDCHAR
STARTCHAR uni58B8
ENCODING 22712
SWIDTH 1000 0
DWIDTH 8 0
BBX 7 7 0 -1
BITMAP
54
7E
DC
4C
7E
DC
2C
ENDCHAR
STARTCHAR uni58B9
ENCODING 22713
SWIDTH 1000 0
DWIDTH 8 0
BBX 7 7 0 -1
BITMAP
76
76
E2
6E
6E
EE
22
ENDCHAR
STARTCHAR uni58BA
ENCODING 22714
SWIDTH 1000 0
DWIDTH 8 0
BBX 7 7 0 -1
BITMAP
48
5E
DE
5E
7E
C8
36
ENDCHAR
STARTCHAR uni58BB
ENCODING 22715
SWIDTH 1000 0
DWIDTH 8 0
BBX 7 7 0 -1
BITMAP
48
7E
D4
6A
7E
D2
1E
ENDCHAR
STARTCHAR uni58BE
ENCODING 22718
SWIDTH 1000 0
DWIDTH 8 0
BBX 7 7 0 -1
BITMAP
2C
DC
6A
AC
6A
10
FE
ENDCHAR
STARTCHAR uni58C1
ENCODING 22721
SWIDTH 1000 0
DWIDTH 8 0
BBX 7 7 0 -1
BITMAP
64
7E
4A
FE
64
10
FE
ENDCHAR
STARTCHAR uni58C5
ENCODING 22725
SWIDTH 1000 0
DWIDTH 8 0
BBX 7 7 0 -1
BITMAP
10
FE
8E
5C
8E
10
FE
ENDCHAR
STARTCHAR uni58C7
ENCODING 22727
SWIDTH 1000 0
DWIDTH 8 0
BBX 7 7 0 -1
BITMAP
48
7E
D2
5E
6C
CC
3E
ENDCHAR
STARTCHAR uni58CA
ENCODING 22730
SWIDTH 1000 0
DWIDTH 8 0
BBX 7 7 0 -1
BITMAP
48
7E
DA
5E
7E
F4
1A
ENDCHAR
STARTCHAR uni58CC
ENCODING 22732
SWIDTH 1000 0
DWIDTH 8 0
BBX 7 7 0 -1
BITMAP
48
7E
D4
76
7E
D4
1A
ENDCHAR
STARTCHAR uni58D1
ENCODING 22737
SWIDTH 1000 0
DWIDTH 8 0
BBX 7 7 0 -1
BITMAP
6E
FA
AA
74
EA
10
FE
ENDCHAR
STARTCHAR uni58D3
ENCODING 22739
SWIDTH 1000 0
DWIDTH 8 0
BBX 7 7 0 -1
BITMAP
7E
74
4E
74
BA
10
FE
ENDCHAR
STARTCHAR uni58D5
ENCODING 22741
SWIDTH 1000 0
DWIDTH 8 0
BBX 7 7 0 -1
BITMAP
48
7E
D4
7E
5A
EC
1A
ENDCHAR
STARTCHAR uni58D7
ENCODING 22743
SWIDTH 1000 0
DWIDTH 8 0
BBX 7 7 0 -1
BITMAP
48
5C
EE
5C
6A
DC
3E
ENDCHAR
STARTCHAR uni58D8
ENCODING 22744
SWIDTH 1000 0
DWIDTH 8 0
BBX 7 7 0 -1
BITMAP
7C
54
7C
EE
EE
10
FE
ENDCHAR
STARTCHAR uni58D9
ENCODING 22745
SWIDTH 1000 0
DWIDTH 8 0
BBX 7 7 0 -1
BITMAP
48
7E
EC
7E
6C
EC
32
ENDCHAR
STARTCHAR uni58DC
ENCODING 22748
SWIDTH 1000 0
DWIDTH 8 0
BBX 7 7 0 -1
BITMAP
5C
54
FE
76
4C
D4
3A
ENDCHAR
STARTCHAR uni58DE
ENCODING 22750
SWIDTH 1000 0
DWIDTH 8 0
BBX 7 7 0 -1
BITMAP
48
7E
DA
7E
48
F4
1A
ENDCHAR
STARTCHAR uni58DF
ENCODING 22751
SWIDTH 1000 0
DWIDTH 8 0
BBX 7 7 0 -1
BITMAP
26
FC
52
F4
56
10
FE
ENDCHAR
STARTCHAR uni58E4
ENCODING 22756
SWIDTH 1000 0
DWIDTH 8 0
BBX 7 7 0 -1
BITMAP
48
7E
F6
5C
7E
F4
1A
ENDCHAR
STARTCHAR uni58E5
ENCODING 22757
SWIDTH 1000 0
DWIDTH 8 0
BBX 7 7 0 -1
BITMAP
7E
6C
FE
60
6A
E4
2E
ENDCHAR
STARTCHAR uni58EB
ENCODING 22763
SWIDTH 1000 0
DWIDTH 8 0
BBX 7 7 0 -1
BITMAP
10
10
FE
10
10
10
7C
ENDCHAR
STARTCHAR uni58EC
ENCODING 22764
SWIDTH 1000 0
DWIDTH 8 0
BBX 7 7 0 -1
BITMAP
0C
70
10
FE
10
10
7C
ENDCHAR
STARTCHAR uni58EE
ENCODING 22766
SWIDTH 1000 0
DWIDTH 8 0
BBX 7 7 0 -1
BITMAP
48
48
FE
48
C8
48
5E
ENDCHAR
STARTCHAR uni58EF
ENCODING 22767
SWIDTH 1000 0
DWIDTH 8 0
BBX 7 7 0 -1
BITMAP
A4
A4
FE
24
E4
64
AE
ENDCHAR
STARTCHAR uni58F0
ENCODING 22768
SWIDTH 1000 0
DWIDTH 8 0
BBX 7 7 0 -1
BITMAP
10
FE
10
7E
52
7E
80
ENDCHAR
STARTCHAR uni58F1
ENCODING 22769
SWIDTH 1000 0
DWIDTH 8 0
BBX 7 7 0 -1
BITMAP
10
FE
10
FE
BA
20
3C
ENDCHAR
STARTCHAR uni58F2
ENCODING 22770
SWIDTH 1000 0
DWIDTH 8 0
BBX 7 7 0 -1
BITMAP
10
FE
10
FE
82
28
CE
ENDCHAR
STARTCHAR uni58F7
ENCODING 22775
SWIDTH 1000 0
DWIDTH 8 0
BBX 7 7 0 -1
BITMAP
10
FE
10
FE
AA
7C
FE
ENDCHAR
STARTCHAR uni58F9
ENCODING 22777
SWIDTH 1000 0
DWIDTH 8 0
BBX 7 7 0 -1
BITMAP
10
FE
10
FE
BA
28
FE
ENDCHAR
STARTCHAR uni58FA
ENCODING 22778
SWIDTH 1000 0
DWIDTH 8 0
BBX 7 7 0 -1
BITMAP
10
FE
10
FE
AA
6C
FE
ENDCHAR
STARTCHAR uni58FB
ENCODING 22779
SWIDTH 1000 0
DWIDTH 8 0
BBX 7 7 0 -1
BITMAP
5E
4A
EC
56
6A
CE
0A
ENDCHAR
STARTCHAR uni58FC
ENCODING 22780
SWIDTH 1000 0
DWIDTH 8 0
BBX 7 7 0 -1
BITMAP
10
FE
10
FE
BA
6C
FE
ENDCHAR
STARTCHAR uni58FD
ENCODING 22781
SWIDTH 1000 0
DWIDTH 8 0
BBX 7 7 0 -1
BITMAP
10
7C
FE
10
FE
64
6C
ENDCHAR
STARTCHAR uni5902
ENCODING 22786
SWIDTH 1000 0
DWIDTH 8 0
BBX 7 7 0 -1
BITMAP
20
38
48
A8
10
28
C6
ENDCHAR
STARTCHAR uni5909
ENCODING 22793
SWIDTH 1000 0
DWIDTH 8 0
BBX 7 7 0 -1
BITMAP
10
FE
28
AA
18
28
D6
ENDCHAR
STARTCHAR uni590A
ENCODING 22794
SWIDTH 1000 0
DWIDTH 8 0
BBX 7 7 0 -1
BITMAP
20
B8
48
A8
10
28
C6
ENDCHAR
STARTCHAR uni590F
ENCODING 22799
SWIDTH 1000 0
DWIDTH 8 0
BBX 7 7 0 -1
BITMAP
FE
10
3C
3C
68
10
EE
ENDCHAR
STARTCHAR uni5910
ENCODING 22800
SWIDTH 1000 0
DWIDTH 8 0
BBX 7 7 0 -1
BITMAP
38
DC
3C
3C
68
10
EE
ENDCHAR
STARTCHAR uni5915
ENCODING 22805
SWIDTH 1000 0
DWIDTH 8 0
BBX 6 7 1 -1
BITMAP
20
3C
44
B4
08
10
E0
ENDCHAR
STARTCHAR uni5916
ENCODING 22806
SWIDTH 1000 0
DWIDTH 8 0
BBX 7 7 0 -1
BITMAP
48
78
58
BC
1A
28
C8
ENDCHAR
STARTCHAR uni5918
ENCODING 22808
SWIDTH 1000 0
DWIDTH 8 0
BBX 7 7 0 -1
BITMAP
4E
7A
5A
BA
1A
28
C8
ENDCHAR
STARTCHAR uni5919
ENCODING 22809
SWIDTH 1000 0
DWIDTH 8 0
BBX 7 7 0 -1
BITMAP
7C
7C
54
5C
6C
54
A6
ENDCHAR
STARTCHAR uni591A
ENCODING 22810
SWIDTH 1000 0
DWIDTH 8 0
BBX 7 7 0 -1
BITMAP
18
68
10
EE
32
0C
70
ENDCHAR
STARTCHAR uni591B
ENCODING 22811
SWIDTH 1000 0
DWIDTH 8 0
BBX 7 7 0 -1
BITMAP
38
08
FE
1C
64
18
E0
ENDCHAR
STARTCHAR uni591C
ENCODING 22812
SWIDTH 1000 0
DWIDTH 8 0
BBX 7 7 0 -1
BITMAP
10
FE
28
4E
DA
44
5A
ENDCHAR
STARTCHAR uni5922
ENCODING 22818
SWIDTH 1000 0
DWIDTH 8 0
BBX 7 7 0 -1
BITMAP
28
FE
54
FE
BA
18
70
ENDCHAR
STARTCHAR uni5925
ENCODING 22821
SWIDTH 1000 0
DWIDTH 8 0
BBX 7 7 0 -1
BITMAP
76
7A
24
F6
2A
74
A8
ENDCHAR
STARTCHAR uni5927
ENCODING 22823
SWIDTH 1000 0
DWIDTH 8 0
BBX 7 7 0 -1
BITMAP
10
10
FE
10
10
28
C6
ENDCHAR
STARTCHAR uni5929
ENCODING 22825
SWIDTH 1000 0
DWIDTH 8 0
BBX 7 7 0 -1
BITMAP
FE
10
7C
10
10
28
C6
ENDCHAR
STARTCHAR uni592A
ENCODING 22826
SWIDTH 1000 0
DWIDTH 8 0
BBX 7 7 0 -1
BITMAP
10
10
FE
10
18
24
D2
ENDCHAR
STARTCHAR uni592B
ENCODING 22827
SWIDTH 1000 0
DWIDTH 8 0
BBX 7 7 0 -1
BITMAP
10
7C
10
FE
10
28
C6
ENDCHAR
STARTCHAR uni592C
ENCODING 22828
SWIDTH 1000 0
DWIDTH 8 0
BBX 7 7 0 -1
BITMAP
10
7C
14
FE
10
28
C6
ENDCHAR
STARTCHAR uni592D
ENCODING 22829
SWIDTH 1000 0
DWIDTH 8 0
BBX 7 7 0 -1
BITMAP
0C
70
10
FE
10
28
C6
ENDCHAR
STARTCHAR uni592E
ENCODING 22830
SWIDTH 1000 0
DWIDTH 8 0
BBX 7 7 0 -1
BITMAP
10
7C
54
54
FE
10
EE
ENDCHAR
STARTCHAR uni5931
ENCODING 22833
SWIDTH 1000 0
DWIDTH 8 0
BBX 7 7 0 -1
BITMAP
50
7C
90
FE
10
28
C6
ENDCHAR
STARTCHAR uni5932
ENCODING 22834
SWIDTH 1000 0
DWIDTH 8 0
BBX 7 7 0 -1
BITMAP
10
FE
28
C6
10
FE
10
ENDCHAR
STARTCHAR uni5937
ENCODING 22839
SWIDTH 1000 0
DWIDTH 8 0
BBX 7 7 0 -1
BITMAP
10
FE
7C
50
7C
14
EE
ENDCHAR
STARTCHAR uni5938
ENCODING 22840
SWIDTH 1000 0
DWIDTH 8 0
BBX 7 7 0 -1
BITMAP
10
FE
28
C6
38
3C
04
ENDCHAR
STARTCHAR uni593E
ENCODING 22846
SWIDTH 1000 0
DWIDTH 8 0
BBX 7 7 0 -1
BITMAP
10
FE
54
54
BA
10
EE
ENDCHAR
STARTCHAR uni5944
ENCODING 22852
SWIDTH 1000 0
DWIDTH 8 0
BBX 7 7 0 -1
BITMAP
10
FE
28
D6
7C
7C
0E
ENDCHAR
STARTCHAR uni5947
ENCODING 22855
SWIDTH 1000 0
DWIDTH 8 0
BBX 7 7 0 -1
BITMAP
10
7C
10
28
FE
54
74
ENDCHAR
STARTCHAR uni5948
ENCODING 22856
SWIDTH 1000 0
DWIDTH 8 0
BBX 7 7 0 -1
BITMAP
10
FE
28
C6
7C
10
92
ENDCHAR
STARTCHAR uni5949
ENCODING 22857
SWIDTH 1000 0
DWIDTH 8 0
BBX 7 7 0 -1
BITMAP
10
7C
38
FE
54
BA
10
ENDCHAR
STARTCHAR uni594E
ENCODING 22862
SWIDTH 1000 0
DWIDTH 8 0
BBX 7 7 0 -1
BITMAP
10
FE
28
D6
38
10
FE
ENDCHAR
STARTCHAR uni594F
ENCODING 22863
SWIDTH 1000 0
DWIDTH 8 0
BBX 7 7 0 -1
BITMAP
10
FE
38
FE
54
92
28
ENDCHAR
STARTCHAR uni5950
ENCODING 22864
SWIDTH 1000 0
DWIDTH 8 0
BBX 7 7 0 -1
BITMAP
38
C8
7C
6C
FE
10
EE
ENDCHAR
STARTCHAR uni5951
ENCODING 22865
SWIDTH 1000 0
DWIDTH 8 0
BBX 7 7 0 -1
BITMAP
4E
E6
46
EA
FE
10
EE
ENDCHAR
STARTCHAR uni5954
ENCODING 22868
SWIDTH 1000 0
DWIDTH 8 0
BBX 7 7 0 -1
BITMAP
10
FE
24
D2
34
FE
44
ENDCHAR
STARTCHAR uni5955
ENCODING 22869
SWIDTH 1000 0
DWIDTH 8 0
BBX 7 7 0 -1
BITMAP
10
FE
28
AA
7C
10
EE
ENDCHAR
STARTCHAR uni5957
ENCODING 22871
SWIDTH 1000 0
DWIDTH 8 0
BBX 7 7 0 -1
BITMAP
10
FE
64
B2
FE
24
FA
ENDCHAR
STARTCHAR uni5958
ENCODING 22872
SWIDTH 1000 0
DWIDTH 8 0
BBX 7 7 0 -1
BITMAP
A4
FE
64
AE
7C
10
EE
ENDCHAR
STARTCHAR uni595A
ENCODING 22874
SWIDTH 1000 0
DWIDTH 8 0
BBX 7 7 0 -1
BITMAP
0C
74
92
24
FE
10
EE
ENDCHAR
STARTCHAR uni5960
ENCODING 22880
SWIDTH 1000 0
DWIDTH 8 0
BBX 7 7 0 -1
BITMAP
28
C6
7C
6C
FE
10
EE
ENDCHAR
STARTCHAR uni5962
ENCODING 22882
SWIDTH 1000 0
DWIDTH 8 0
BBX 7 7 0 -1
BITMAP
10
FE
28
D6
7E
34
DC
ENDCHAR
STARTCHAR uni5965
ENCODING 22885
SWIDTH 1000 0
DWIDTH 8 0
BBX 7 7 0 -1
BITMAP
10
7C
5C
74
FE
10
EE
ENDCHAR
STARTCHAR uni5967
ENCODING 22887
SWIDTH 1000 0
DWIDTH 8 0
BBX 7 7 0 -1
BITMAP
10
7C
7C
74
FE
10
EE
ENDCHAR
STARTCHAR uni5968
ENCODING 22888
SWIDTH 1000 0
DWIDTH 8 0
BBX 7 7 0 -1
BITMAP
5E
CA
5E
C4
7E
10
EE
ENDCHAR
STARTCHAR uni5969
ENCODING 22889
SWIDTH 1000 0
DWIDTH 8 0
BBX 7 7 0 -1
BITMAP
10
FE
24
DA
58
76
7E
ENDCHAR
STARTCHAR uni596A
ENCODING 22890
SWIDTH 1000 0
DWIDTH 8 0
BBX 7 7 0 -1
BITMAP
10
FE
74
BA
FE
24
0C
ENDCHAR
STARTCHAR uni596C
ENCODING 22892
SWIDTH 1000 0
DWIDTH 8 0
BBX 7 7 0 -1
BITMAP
AC
F4
7E
AC
FE
10
EE
ENDCHAR
STARTCHAR uni596E
ENCODING 22894
SWIDTH 1000 0
DWIDTH 8 0
BBX 7 7 0 -1
BITMAP
10
FE
74
BA
7C
54
7C
ENDCHAR
STARTCHAR uni5973
ENCODING 22899
SWIDTH 1000 0
DWIDTH 8 0
BBX 7 7 0 -1
BITMAP
10
10
FE
24
68
18
E6
ENDCHAR
STARTCHAR uni5974
ENCODING 22900
SWIDTH 1000 0
DWIDTH 8 0
BBX 7 7 0 -1
BITMAP
5E
E2
6A
AA
C4
64
9A
ENDCHAR
STARTCHAR uni5978
ENCODING 22904
SWIDTH 1000 0
DWIDTH 8 0
BBX 7 7 0 -1
BITMAP
2E
F4
54
5E
E4
34
C4
ENDCHAR
STARTCHAR uni597D
ENCODING 22909
SWIDTH 1000 0
DWIDTH 8 0
BBX 7 7 0 -1
BITMAP
2E
F2
54
5E
E4
34
CC
ENDCHAR
STARTCHAR uni5981
ENCODING 22913
SWIDTH 1000 0
DWIDTH 8 0
BBX 7 7 0 -1
BITMAP
48
EE
72
AA
C6
62
86
ENDCHAR
STARTCHAR uni5982
ENCODING 22914
SWIDTH 1000 0
DWIDTH 8 0
BBX 7 7 0 -1
BITMAP
20
FE
5A
5A
EA
3A
CE
ENDCHAR
STARTCHAR uni5983
ENCODING 22915
SWIDTH 1000 0
DWIDTH 8 0
BBX 7 7 0 -1
BITMAP
2E
F2
52
5E
E8
3A
CE
ENDCHAR
STARTCHAR uni5984
ENCODING 22916
SWIDTH 1000 0
DWIDTH 8 0
BBX 7 7 0 -1
BITMAP
10
FE
40
7C
FE
28
F6
ENDCHAR
STARTCHAR uni598A
ENCODING 22922
SWIDTH 1000 0
DWIDTH 8 0
BBX 7 7 0 -1
BITMAP
22
FC
54
5E
E4
34
CE
ENDCHAR
STARTCHAR uni598D
ENCODING 22925
SWIDTH 1000 0
DWIDTH 8 0
BBX 7 7 0 -1
BITMAP
5E
EA
6A
BE
CA
6A
92
ENDCHAR
STARTCHAR uni5993
ENCODING 22931
SWIDTH 1000 0
DWIDTH 8 0
BBX 7 7 0 -1
BITMAP
44
FE
64
BE
CA
64
9A
ENDCHAR
STARTCHAR uni5996
ENCODING 22934
SWIDTH 1000 0
DWIDTH 8 0
BBX 7 7 0 -1
BITMAP
22
FC
54
5E
E4
34
CA
ENDCHAR
STARTCHAR uni5999
ENCODING 22937
SWIDTH 1000 0
DWIDTH 8 0
BBX 7 7 0 -1
BITMAP
48
FC
7A
A8
CA
64
98
ENDCHAR
STARTCHAR uni599B
ENCODING 22939
SWIDTH 1000 0
DWIDTH 8 0
BBX 7 7 0 -1
BITMAP
54
7C
FE
10
FE
28
F6
ENDCHAR
STARTCHAR uni599D
ENCODING 22941
SWIDTH 1000 0
DWIDTH 8 0
BBX 7 7 0 -1
BITMAP
A4
A4
FE
2A
EC
64
BA
ENDCHAR
STARTCHAR uni59A3
ENCODING 22947
SWIDTH 1000 0
DWIDTH 8 0
BBX 7 7 0 -1
BITMAP
54
F4
7E
B4
D4
7C
96
ENDCHAR
STARTCHAR uni59A5
ENCODING 22949
SWIDTH 1000 0
DWIDTH 8 0
BBX 7 7 0 -1
BITMAP
0E
F0
54
FE
28
18
E6
ENDCHAR
STARTCHAR uni59A8
ENCODING 22952
SWIDTH 1000 0
DWIDTH 8 0
BBX 7 7 0 -1
BITMAP
44
FE
68
AE
CA
6A
96
ENDCHAR
STARTCHAR uni59AC
ENCODING 22956
SWIDTH 1000 0
DWIDTH 8 0
BBX 7 7 0 -1
BITMAP
5E
E8
68
AE
DA
6A
8E
ENDCHAR
STARTCHAR uni59B2
ENCODING 22962
SWIDTH 1000 0
DWIDTH 8 0
BBX 7 7 0 -1
BITMAP
5E
F2
7E
B2
DE
60
9E
ENDCHAR
STARTCHAR uni59B9
ENCODING 22969
SWIDTH 1000 0
DWIDTH 8 0
BBX 7 7 0 -1
BITMAP
48
FC
68
BE
C8
5C
AA
ENDCHAR
STARTCHAR uni59BB
ENCODING 22971
SWIDTH 1000 0
DWIDTH 8 0
BBX 7 7 0 -1
BITMAP
10
FE
14
7C
FE
28
F6
ENDCHAR
STARTCHAR uni59BE
ENCODING 22974
SWIDTH 1000 0
DWIDTH 8 0
BBX 7 7 0 -1
BITMAP
10
7C
28
FE
7C
28
F6
ENDCHAR
STARTCHAR uni59C6
ENCODING 22982
SWIDTH 1000 0
DWIDTH 8 0
BBX 7 7 0 -1
BITMAP
4E
EA
6A
BE
D2
7E
86
ENDCHAR
STARTCHAR uni59C9
ENCODING 22985
SWIDTH 1000 0
DWIDTH 8 0
BBX 7 7 0 -1
BITMAP
44
FE
64
BE
D6
76
84
ENDCHAR
STARTCHAR uni59CB
ENCODING 22987
SWIDTH 1000 0
DWIDTH 8 0
BBX 7 7 0 -1
BITMAP
44
E8
72
BE
C0
6E
8E
ENDCHAR
STARTCHAR uni59D0
ENCODING 22992
SWIDTH 1000 0
DWIDTH 8 0
BBX 7 7 0 -1
BITMAP
5C
F4
7C
B4
DC
54
BE
ENDCHAR
STARTCHAR uni59D1
ENCODING 22993
SWIDTH 1000 0
DWIDTH 8 0
BBX 7 7 0 -1
BITMAP
24
F4
5E
54
EE
3A
CE
ENDCHAR
STARTCHAR uni59D3
ENCODING 22995
SWIDTH 1000 0
DWIDTH 8 0
BBX 7 7 0 -1
BITMAP
4C
EE
74
A4
CE
64
9E
ENDCHAR
STARTCHAR uni59D4
ENCODING 22996
SWIDTH 1000 0
DWIDTH 8 0
BBX 7 7 0 -1
BITMAP
38
FE
38
D6
7C
28
F6
ENDCHAR
STARTCHAR uni59D9
ENCODING 23001
SWIDTH 1000 0
DWIDTH 8 0
BBX 7 7 0 -1
BITMAP
92
AC
E4
EE
E4
64
AE
ENDCHAR
STARTCHAR uni59DA
ENCODING 23002
SWIDTH 1000 0
DWIDTH 8 0
BBX 7 7 0 -1
BITMAP
94
B6
D4
F6
D4
54
A6
ENDCHAR
STARTCHAR uni59DC
ENCODING 23004
SWIDTH 1000 0
DWIDTH 8 0
BBX 7 7 0 -1
BITMAP
24
FE
7C
10
FE
28
F6
ENDCHAR
STARTCHAR uni59E5
ENCODING 23013
SWIDTH 1000 0
DWIDTH 8 0
BBX 7 7 0 -1
BITMAP
4A
FC
68
BE
D0
68
8E
ENDCHAR
STARTCHAR uni59E6
ENCODING 23014
SWIDTH 1000 0
DWIDTH 8 0
BBX 7 7 0 -1
BITMAP
10
FE
28
74
FE
54
AA
ENDCHAR
STARTCHAR uni59E8
ENCODING 23016
SWIDTH 1000 0
DWIDTH 8 0
BBX 7 7 0 -1
BITMAP
88
BE
DC
D8
DE
4A
B6
ENDCHAR
STARTCHAR uni59EA
ENCODING 23018
SWIDTH 1000 0
DWIDTH 8 0
BBX 7 7 0 -1
BITMAP
5E
E8
7E
A4
CE
64
9E
ENDCHAR
STARTCHAR uni59EB
ENCODING 23019
SWIDTH 1000 0
DWIDTH 8 0
BBX 7 7 0 -1
BITMAP
5E
F4
7E
B2
DE
74
9E
ENDCHAR
STARTCHAR uni59F6
ENCODING 23030
SWIDTH 1000 0
DWIDTH 8 0
BBX 7 7 0 -1
BITMAP
48
F4
6E
A0
DE
72
9E
ENDCHAR
STARTCHAR uni59FB
ENCODING 23035
SWIDTH 1000 0
DWIDTH 8 0
BBX 7 7 0 -1
BITMAP
BE
AA
FE
EA
F6
62
BE
ENDCHAR
STARTCHAR uni59FF
ENCODING 23039
SWIDTH 1000 0
DWIDTH 8 0
BBX 7 7 0 -1
BITMAP
90
1E
AA
14
FE
28
F6
ENDCHAR
STARTCHAR uni5A01
ENCODING 23041
SWIDTH 1000 0
DWIDTH 8 0
BBX 7 7 0 -1
BITMAP
04
7E
7C
54
6E
54
AA
ENDCHAR
STARTCHAR uni5A03
ENCODING 23043
SWIDTH 1000 0
DWIDTH 8 0
BBX 7 7 0 -1
BITMAP
44
EE
64
BE
CE
64
9E
ENDCHAR
STARTCHAR uni5A09
ENCODING 23049
SWIDTH 1000 0
DWIDTH 8 0
BBX 7 7 0 -1
BITMAP
44
EE
6E
BE
C8
6E
82
ENDCHAR
STARTCHAR uni5A11
ENCODING 23057
SWIDTH 1000 0
DWIDTH 8 0
BBX 7 7 0 -1
BITMAP
88
2A
8C
30
FE
28
F6
ENDCHAR
STARTCHAR uni5A18
ENCODING 23064
SWIDTH 1000 0
DWIDTH 8 0
BBX 7 7 0 -1
BITMAP
48
FE
72
BE
DE
74
9A
ENDCHAR
STARTCHAR uni5A1A
ENCODING 23066
SWIDTH 1000 0
DWIDTH 8 0
BBX 7 7 0 -1
BITMAP
5E
F6
7E
B6
DE
6A
96
ENDCHAR
STARTCHAR uni5A1C
ENCODING 23068
SWIDTH 1000 0
DWIDTH 8 0
BBX 7 7 0 -1
BITMAP
BE
96
FC
D6
FE
54
AC
ENDCHAR
STARTCHAR uni5A1F
ENCODING 23071
SWIDTH 1000 0
DWIDTH 8 0
BBX 7 7 0 -1
BITMAP
4E
EE
60
BE
D2
7E
92
ENDCHAR
STARTCHAR uni5A20
ENCODING 23072
SWIDTH 1000 0
DWIDTH 8 0
BBX 7 7 0 -1
BITMAP
5E
F0
76
B0
DE
6C
8A
ENDCHAR
STARTCHAR uni5A25
ENCODING 23077
SWIDTH 1000 0
DWIDTH 8 0
BBX 7 7 0 -1
BITMAP
8E
B4
FE
D4
D6
7C
92
ENDCHAR
STARTCHAR uni5A29
ENCODING 23081
SWIDTH 1000 0
DWIDTH 8 0
BBX 7 7 0 -1
BITMAP
4C
F4
7E
BA
FE
54
A6
ENDCHAR
STARTCHAR uni5A2F
ENCODING 23087
SWIDTH 1000 0
DWIDTH 8 0
BBX 7 7 0 -1
BITMAP
46
F6
7C
A4
DE
60
92
ENDCHAR
STARTCHAR uni5A35
ENCODING 23093
SWIDTH 1000 0
DWIDTH 8 0
BBX 7 7 0 -1
BITMAP
B8
9E
DA
DA
DC
7A
88
ENDCHAR
STARTCHAR uni5A36
ENCODING 23094
SWIDTH 1000 0
DWIDTH 8 0
BBX 7 7 0 -1
BITMAP
FE
6A
F4
2A
FE
28
F6
ENDCHAR
STARTCHAR uni5A3C
ENCODING 23100
SWIDTH 1000 0
DWIDTH 8 0
BBX 7 7 0 -1
BITMAP
4E
EA
7E
B2
DE
72
9E
ENDCHAR
STARTCHAR uni5A40
ENCODING 23104
SWIDTH 1000 0
DWIDTH 8 0
BBX 7 7 0 -1
BITMAP
BE
B2
EE
FA
FE
62
A6
ENDCHAR
STARTCHAR uni5A41
ENCODING 23105
SWIDTH 1000 0
DWIDTH 8 0
BBX 7 7 0 -1
BITMAP
10
7C
FE
54
FE
28
F6
ENDCHAR
STARTCHAR uni5A46
ENCODING 23110
SWIDTH 1000 0
DWIDTH 8 0
BBX 7 7 0 -1
BITMAP
84
1E
94
2A
FE
28
F6
ENDCHAR
STARTCHAR uni5A49
ENCODING 23113
SWIDTH 1000 0
DWIDTH 8 0
BBX 7 7 0 -1
BITMAP
88
BE
E2
DE
EA
58
AE
ENDCHAR
STARTCHAR uni5A5A
ENCODING 23130
SWIDTH 1000 0
DWIDTH 8 0
BBX 7 7 0 -1
BITMAP
5E
F4
7E
B4
DA
6C
8C
ENDCHAR
STARTCHAR uni5A62
ENCODING 23138
SWIDTH 1000 0
DWIDTH 8 0
BBX 7 7 0 -1
BITMAP
48
FE
6A
BE
D4
7E
84
ENDCHAR
STARTCHAR uni5A66
ENCODING 23142
SWIDTH 1000 0
DWIDTH 8 0
BBX 7 7 0 -1
BITMAP
5C
E4
7E
AA
DC
7C
88
ENDCHAR
STARTCHAR uni5A6A
ENCODING 23146
SWIDTH 1000 0
DWIDTH 8 0
BBX 7 7 0 -1
BITMAP
24
FE
6C
B6
7C
28
F6
ENDCHAR
STARTCHAR uni5A6C
ENCODING 23148
SWIDTH 1000 0
DWIDTH 8 0
BBX 7 7 0 -1
BITMAP
46
F8
6A
A0
DE
68
9E
ENDCHAR
STARTCHAR uni5A7F
ENCODING 23167
SWIDTH 1000 0
DWIDTH 8 0
BBX 7 7 0 -1
BITMAP
5E
EA
6C
B6
CA
6E
8A
ENDCHAR
STARTCHAR uni5A92
ENCODING 23186
SWIDTH 1000 0
DWIDTH 8 0
BBX 7 7 0 -1
BITMAP
54
FE
74
BC
FE
5C
AA
ENDCHAR
STARTCHAR uni5A9A
ENCODING 23194
SWIDTH 1000 0
DWIDTH 8 0
BBX 7 7 0 -1
BITMAP
5E
F6
7E
B0
D6
56
A6
ENDCHAR
STARTCHAR uni5A9B
ENCODING 23195
SWIDTH 1000 0
DWIDTH 8 0
BBX 7 7 0 -1
BITMAP
86
B8
EA
DE
CA
54
AA
ENDCHAR
STARTCHAR uni5ABC
ENCODING 23228
SWIDTH 1000 0
DWIDTH 8 0
BBX 7 7 0 -1
BITMAP
5E
F6
7A
BE
C0
6C
9E
ENDCHAR
STARTCHAR uni5ABD
ENCODING 23229
SWIDTH 1000 0
DWIDTH 8 0
BBX 7 7 0 -1
BITMAP
5E
F4
7E
B4
FE
42
AA
ENDCHAR
STARTCHAR uni5ABE
ENCODING 23230
SWIDTH 1000 0
DWIDTH 8 0
BBX 7 7 0 -1
BITMAP
94
BE
D4
FE
DC
7E
94
ENDCHAR
STARTCHAR uni5AC1
ENCODING 23233
SWIDTH 1000 0
DWIDTH 8 0
BBX 7 7 0 -1
BITMAP
88
BE
E2
DC
DA
6C
9A
ENDCHAR
STARTCHAR uni5AC2
ENCODING 23234
SWIDTH 1000 0
DWIDTH 8 0
BBX 7 7 0 -1
BITMAP
96
AA
EA
FE
D4
48
B6
ENDCHAR
STARTCHAR uni5AC9
ENCODING 23241
SWIDTH 1000 0
DWIDTH 8 0
BBX 7 7 0 -1
BITMAP
84
9E
F0
D8
FE
54
AA
ENDCHAR
STARTCHAR uni5ACB
ENCODING 23243
SWIDTH 1000 0
DWIDTH 8 0
BBX 7 7 0 -1
BITMAP
5E
EA
7E
B4
DE
6A
9E
ENDCHAR
STARTCHAR uni5ACC
ENCODING 23244
SWIDTH 1000 0
DWIDTH 8 0
BBX 7 7 0 -1
BITMAP
94
BE
CC
FE
CE
5C
AA
ENDCHAR
STARTCHAR uni5AD0
ENCODING 23248
SWIDTH 1000 0
DWIDTH 8 0
BBX 7 7 0 -1
BITMAP
B4
BC
FE
D6
DE
5C
AA
ENDCHAR
STARTCHAR uni5AD6
ENCODING 23254
SWIDTH 1000 0
DWIDTH 8 0
BBX 7 7 0 -1
BITMAP
BE
94
FE
FE
DC
48
AA
ENDCHAR
STARTCHAR uni5AD7
ENCODING 23255
SWIDTH 1000 0
DWIDTH 8 0
BBX 7 7 0 -1
BITMAP
BE
AC
EC
E0
F6
76
BE
ENDCHAR
STARTCHAR uni5AE1
ENCODING 23265
SWIDTH 1000 0
DWIDTH 8 0
BBX 7 7 0 -1
BITMAP
88
BE
D4
FE
EA
76
BE
ENDCHAR
STARTCHAR uni5AE3
ENCODING 23267
SWIDTH 1000 0
DWIDTH 8 0
BBX 7 7 0 -1
BITMAP
5E
EC
7E
B0
DE
42
AA
ENDCHAR
STARTCHAR uni5AE6
ENCODING 23270
SWIDTH 1000 0
DWIDTH 8 0
BBX 7 7 0 -1
BITMAP
AA
9C
F6
DC
FE
6A
88
ENDCHAR
STARTCHAR uni5AE9
ENCODING 23273
SWIDTH 1000 0
DWIDTH 8 0
BBX 7 7 0 -1
BITMAP
94
BE
F6
FE
D6
7C
92
ENDCHAR
STARTCHAR uni5AFA
ENCODING 23290
SWIDTH 1000 0
DWIDTH 8 0
BBX 7 7 0 -1
BITMAP
B6
B6
E2
EE
EE
76
A2
ENDCHAR
STARTCHAR uni5AFB
ENCODING 23291
SWIDTH 1000 0
DWIDTH 8 0
BBX 7 7 0 -1
BITMAP
B6
B6
EA
FE
EA
7E
AA
ENDCHAR
STARTCHAR uni5B09
ENCODING 23305
SWIDTH 1000 0
DWIDTH 8 0
BBX 7 7 0 -1
BITMAP
88
BE
DC
D4
FE
54
9C
ENDCHAR
STARTCHAR uni5B0B
ENCODING 23307
SWIDTH 1000 0
DWIDTH 8 0
BBX 7 7 0 -1
BITMAP
B6
B6
DC
DC
DC
7E
88
ENDCHAR
STARTCHAR uni5B0C
ENCODING 23308
SWIDTH 1000 0
DWIDTH 8 0
BBX 7 7 0 -1
BITMAP
9C
BE
D4
EA
FE
62
AA
ENDCHAR
STARTCHAR uni5B16
ENCODING 23318
SWIDTH 1000 0
DWIDTH 8 0
BBX 7 7 0 -1
BITMAP
64
6E
CA
64
FE
28
F6
ENDCHAR
STARTCHAR uni5B22
ENCODING 23330
SWIDTH 1000 0
DWIDTH 8 0
BBX 7 7 0 -1
BITMAP
88
BE
D4
F6
FE
54
9A
ENDCHAR
STARTCHAR uni5B2A
ENCODING 23338
SWIDTH 1000 0
DWIDTH 8 0
BBX 7 7 0 -1
BITMAP
88
BE
EA
F4
DC
5C
A2
ENDCHAR
STARTCHAR uni5B2C
ENCODING 23340
SWIDTH 1000 0
DWIDTH 8 0
BBX 7 7 0 -1
BITMAP
9C
BE
EA
DC
FE
6A
AA
ENDCHAR
STARTCHAR uni5B30
ENCODING 23344
SWIDTH 1000 0
DWIDTH 8 0
BBX 7 7 0 -1
BITMAP
EE
EE
AA
20
FE
28
F6
ENDCHAR
STARTCHAR uni5B32
ENCODING 23346
SWIDTH 1000 0
DWIDTH 8 0
BBX 7 7 0 -1
BITMAP
D6
FE
DE
6C
F6
56
AA
ENDCHAR
STARTCHAR uni5B36
ENCODING 23350
SWIDTH 1000 0
DWIDTH 8 0
BBX 7 7 0 -1
BITMAP
88
9C
D4
FE
EA
7E
94
ENDCHAR
STARTCHAR uni5B3E
ENCODING 23358
SWIDTH 1000 0
DWIDTH 8 0
BBX 7 7 0 -1
BITMAP
96
BA
F0
FE
DE
70
9A
ENDCHAR
STARTCHAR uni5B40
ENCODING 23360
SWIDTH 1000 0
DWIDTH 8 0
BBX 7 7 0 -1
BITMAP
9C
BE
EA
C0
D6
7E
96
ENDCHAR
STARTCHAR uni5B43
ENCODING 23363
SWIDTH 1000 0
DWIDTH 8 0
BBX 7 7 0 -1
BITMAP
88
BE
F6
DC
FE
74
9A
ENDCHAR
STARTCHAR uni5B45
ENCODING 23365
SWIDTH 1000 0
DWIDTH 8 0
BBX 7 7 0 -1
BITMAP
AC
94
FE
D4
FE
54
BA
ENDCHAR
STARTCHAR uni5B50
ENCODING 23376
SWIDTH 1000 0
DWIDTH 8 0
BBX 7 7 0 -1
BITMAP
7C
08
10
FE
10
10
30
ENDCHAR
STARTCHAR uni5B51
ENCODING 23377
SWIDTH 1000 0
DWIDTH 8 0
BBX 7 7 0 -1
BITMAP
7C
08
10
1E
F0
10
30
ENDCHAR
STARTCHAR uni5B54
ENCODING 23380
SWIDTH 1000 0
DWIDTH 8 0
BBX 7 7 0 -1
BITMAP
E8
28
48
68
C8
4A
CE
ENDCHAR
STARTCHAR uni5B55
ENCODING 23381
SWIDTH 1000 0
DWIDTH 8 0
BBX 7 7 0 -1
BITMAP
78
2E
C2
3C
08
FE
18
ENDCHAR
STARTCHAR uni5B57
ENCODING 23383
SWIDTH 1000 0
DWIDTH 8 0
BBX 7 7 0 -1
BITMAP
10
FE
BA
08
FE
10
30
ENDCHAR
STARTCHAR uni5B58
ENCODING 23384
SWIDTH 1000 0
DWIDTH 8 0
BBX 7 7 0 -1
BITMAP
20
FE
2E
44
DE
44
4C
ENDCHAR
STARTCHAR uni5B5A
ENCODING 23386
SWIDTH 1000 0
DWIDTH 8 0
BBX 7 7 0 -1
BITMAP
0C
70
54
BA
08
FE
18
ENDCHAR
STARTCHAR uni5B5B
ENCODING 23387
SWIDTH 1000 0
DWIDTH 8 0
BBX 7 7 0 -1
BITMAP
10
7C
FE
BA
08
FE
18
ENDCHAR
STARTCHAR uni5B5C
ENCODING 23388
SWIDTH 1000 0
DWIDTH 8 0
BBX 7 7 0 -1
BITMAP
E8
2E
5A
6A
CA
44
DA
ENDCHAR
STARTCHAR uni5B5D
ENCODING 23389
SWIDTH 1000 0
DWIDTH 8 0
BBX 7 7 0 -1
BITMAP
12
7C
18
FE
24
DE
08
ENDCHAR
STARTCHAR uni5B5F
ENCODING 23391
SWIDTH 1000 0
DWIDTH 8 0
BBX 7 7 0 -1
BITMAP
7C
08
FE
10
7C
54
FE
ENDCHAR
STARTCHAR uni5B63
ENCODING 23395
SWIDTH 1000 0
DWIDTH 8 0
BBX 7 7 0 -1
BITMAP
38
FE
3C
DA
08
FE
18
ENDCHAR
STARTCHAR uni5B64
ENCODING 23396
SWIDTH 1000 0
DWIDTH 8 0
BBX 7 7 0 -1
BITMAP
E2
3C
54
74
D4
56
EA
ENDCHAR
STARTCHAR uni5B65
ENCODING 23397
SWIDTH 1000 0
DWIDTH 8 0
BBX 7 7 0 -1
BITMAP
2E
FA
54
FA
08
FE
18
ENDCHAR
STARTCHAR uni5B66
ENCODING 23398
SWIDTH 1000 0
DWIDTH 8 0
BBX 7 7 0 -1
BITMAP
54
FE
BA
08
FE
10
30
ENDCHAR
STARTCHAR uni5B69
ENCODING 23401
SWIDTH 1000 0
DWIDTH 8 0
BBX 7 7 0 -1
BITMAP
E4
3E
50
6A
D4
4C
F2
ENDCHAR
STARTCHAR uni5B6B
ENCODING 23403
SWIDTH 1000 0
DWIDTH 8 0
BBX 7 7 0 -1
BITMAP
EE
24
48
64
DE
44
D6
ENDCHAR
STARTCHAR uni5B70
ENCODING 23408
SWIDTH 1000 0
DWIDTH 8 0
BBX 7 7 0 -1
BITMAP
48
FC
AC
EC
FC
4C
D6
ENDCHAR
STARTCHAR uni5B71
ENCODING 23409
SWIDTH 1000 0
DWIDTH 8 0
BBX 7 7 0 -1
BITMAP
7E
7E
4C
7E
52
76
A4
ENDCHAR
STARTCHAR uni5B73
ENCODING 23411
SWIDTH 1000 0
DWIDTH 8 0
BBX 7 7 0 -1
BITMAP
24
FE
24
48
3C
FE
18
ENDCHAR
STARTCHAR uni5B75
ENCODING 23413
SWIDTH 1000 0
DWIDTH 8 0
BBX 7 7 0 -1
BITMAP
5C
AA
E0
EC
FE
64
AC
ENDCHAR
STARTCHAR uni5B78
ENCODING 23416
SWIDTH 1000 0
DWIDTH 8 0
BBX 7 7 0 -1
BITMAP
2C
54
FE
BA
08
FE
18
ENDCHAR
STARTCHAR uni5B7A
ENCODING 23418
SWIDTH 1000 0
DWIDTH 8 0
BBX 7 7 0 -1
BITMAP
EC
3E
56
6C
DE
56
D6
ENDCHAR
STARTCHAR uni5B80
ENCODING 23424
SWIDTH 1000 0
DWIDTH 8 0
BBX 7 3 0 1
BITMAP
10
FE
82
ENDCHAR
STARTCHAR uni5B83
ENCODING 23427
SWIDTH 1000 0
DWIDTH 8 0
BBX 7 7 0 -1
BITMAP
10
FE
82
4C
70
42
3E
ENDCHAR
STARTCHAR uni5B85
ENCODING 23429
SWIDTH 1000 0
DWIDTH 8 0
BBX 7 7 0 -1
BITMAP
10
FE
BA
10
FE
10
1E
ENDCHAR
STARTCHAR uni5B87
ENCODING 23431
SWIDTH 1000 0
DWIDTH 8 0
BBX 7 7 0 -1
BITMAP
10
FE
BA
10
FE
10
30
ENDCHAR
STARTCHAR uni5B88
ENCODING 23432
SWIDTH 1000 0
DWIDTH 8 0
BBX 7 7 0 -1
BITMAP
10
FE
82
04
FE
24
0C
ENDCHAR
STARTCHAR uni5B89
ENCODING 23433
SWIDTH 1000 0
DWIDTH 8 0
BBX 7 7 0 -1
BITMAP
10
FE
92
7C
28
18
E6
ENDCHAR
STARTCHAR uni5B8B
ENCODING 23435
SWIDTH 1000 0
DWIDTH 8 0
BBX 7 7 0 -1
BITMAP
10
FE
82
10
FE
38
D6
ENDCHAR
STARTCHAR uni5B8C
ENCODING 23436
SWIDTH 1000 0
DWIDTH 8 0
BBX 7 7 0 -1
BITMAP
10
FE
BA
00
FE
28
CE
ENDCHAR
STARTCHAR uni5B8D
ENCODING 23437
SWIDTH 1000 0
DWIDTH 8 0
BBX 7 7 0 -1
BITMAP
10
FE
82
10
FE
00
C6
ENDCHAR
STARTCHAR uni5B8F
ENCODING 23439
SWIDTH 1000 0
DWIDTH 8 0
BBX 7 7 0 -1
BITMAP
10
FE
A2
FC
48
94
3A
ENDCHAR
STARTCHAR uni5B95
ENCODING 23445
SWIDTH 1000 0
DWIDTH 8 0
BBX 7 7 0 -1
BITMAP
10
FE
82
7C
20
7C
BC
ENDCHAR
STARTCHAR uni5B97
ENCODING 23447
SWIDTH 1000 0
DWIDTH 8 0
BBX 7 7 0 -1
BITMAP
10
FE
BA
00
FE
10
92
ENDCHAR
STARTCHAR uni5B98
ENCODING 23448
SWIDTH 1000 0
DWIDTH 8 0
BBX 7 7 0 -1
BITMAP
10
FE
BA
28
3C
24
3C
ENDCHAR
STARTCHAR uni5B99
ENCODING 23449
SWIDTH 1000 0
DWIDTH 8 0
BBX 7 7 0 -1
BITMAP
10
FE
92
7C
7C
54
7C
ENDCHAR
STARTCHAR uni5B9A
ENCODING 23450
SWIDTH 1000 0
DWIDTH 8 0
BBX 7 7 0 -1
BITMAP
10
FE
BA
10
5C
50
BE
ENDCHAR
STARTCHAR uni5B9B
ENCODING 23451
SWIDTH 1000 0
DWIDTH 8 0
BBX 7 7 0 -1
BITMAP
10
FE
82
7E
DA
28
CE
ENDCHAR
STARTCHAR uni5B9C
ENCODING 23452
SWIDTH 1000 0
DWIDTH 8 0
BBX 7 7 0 -1
BITMAP
10
FE
BA
28
38
28
FE
ENDCHAR
STARTCHAR uni5B9D
ENCODING 23453
SWIDTH 1000 0
DWIDTH 8 0
BBX 7 7 0 -1
BITMAP
10
FE
BA
10
38
14
FE
ENDCHAR
STARTCHAR uni5B9F
ENCODING 23455
SWIDTH 1000 0
DWIDTH 8 0
BBX 7 7 0 -1
BITMAP
10
FE
BA
10
FE
10
EE
ENDCHAR
STARTCHAR uni5BA2
ENCODING 23458
SWIDTH 1000 0
DWIDTH 8 0
BBX 7 7 0 -1
BITMAP
10
FE
9A
68
10
EE
38
ENDCHAR
STARTCHAR uni5BA3
ENCODING 23459
SWIDTH 1000 0
DWIDTH 8 0
BBX 7 7 0 -1
BITMAP
10
FE
BA
00
38
28
FE
ENDCHAR
STARTCHAR uni5BA4
ENCODING 23460
SWIDTH 1000 0
DWIDTH 8 0
BBX 7 7 0 -1
BITMAP
10
FE
BA
24
7A
10
FE
ENDCHAR
STARTCHAR uni5BA5
ENCODING 23461
SWIDTH 1000 0
DWIDTH 8 0
BBX 7 7 0 -1
BITMAP
10
FE
A2
7C
34
DC
14
ENDCHAR
STARTCHAR uni5BA6
ENCODING 23462
SWIDTH 1000 0
DWIDTH 8 0
BBX 7 7 0 -1
BITMAP
10
FE
FA
48
78
50
7C
ENDCHAR
STARTCHAR uni5BAE
ENCODING 23470
SWIDTH 1000 0
DWIDTH 8 0
BBX 7 7 0 -1
BITMAP
10
FE
AA
38
10
7C
7C
ENDCHAR
STARTCHAR uni5BB0
ENCODING 23472
SWIDTH 1000 0
DWIDTH 8 0
BBX 7 7 0 -1
BITMAP
10
FE
92
7C
28
FE
10
ENDCHAR
STARTCHAR uni5BB3
ENCODING 23475
SWIDTH 1000 0
DWIDTH 8 0
BBX 7 7 0 -1
BITMAP
10
FE
92
7C
10
FE
38
ENDCHAR
STARTCHAR uni5BB4
ENCODING 23476
SWIDTH 1000 0
DWIDTH 8 0
BBX 7 7 0 -1
BITMAP
10
FE
AA
38
FE
28
F6
ENDCHAR
STARTCHAR uni5BB5
ENCODING 23477
SWIDTH 1000 0
DWIDTH 8 0
BBX 7 7 0 -1
BITMAP
10
FE
B6
7C
44
7C
44
ENDCHAR
STARTCHAR uni5BB6
ENCODING 23478
SWIDTH 1000 0
DWIDTH 8 0
BBX 7 7 0 -1
BITMAP
10
FE
BA
30
DA
2C
DA
ENDCHAR
STARTCHAR uni5BB8
ENCODING 23480
SWIDTH 1000 0
DWIDTH 8 0
BBX 7 7 0 -1
BITMAP
10
FE
FA
40
7C
68
B6
ENDCHAR
STARTCHAR uni5BB9
ENCODING 23481
SWIDTH 1000 0
DWIDTH 8 0
BBX 7 7 0 -1
BITMAP
10
FE
AA
54
28
FE
38
ENDCHAR
STARTCHAR uni5BBF
ENCODING 23487
SWIDTH 1000 0
DWIDTH 8 0
BBX 7 7 0 -1
BITMAP
10
FE
82
5E
C8
5E
5E
ENDCHAR
STARTCHAR uni5BC2
ENCODING 23490
SWIDTH 1000 0
DWIDTH 8 0
BBX 7 7 0 -1
BITMAP
10
FE
B2
2E
FA
24
AA
ENDCHAR
STARTCHAR uni5BC3
ENCODING 23491
SWIDTH 1000 0
DWIDTH 8 0
BBX 7 7 0 -1
BITMAP
10
FE
BA
48
38
3A
CE
ENDCHAR
STARTCHAR uni5BC4
ENCODING 23492
SWIDTH 1000 0
DWIDTH 8 0
BBX 7 7 0 -1
BITMAP
10
FE
92
28
FE
54
74
ENDCHAR
STARTCHAR uni5BC5
ENCODING 23493
SWIDTH 1000 0
DWIDTH 8 0
BBX 7 7 0 -1
BITMAP
10
FE
BA
7C
54
7C
C6
ENDCHAR
STARTCHAR uni5BC6
ENCODING 23494
SWIDTH 1000 0
DWIDTH 8 0
BBX 7 7 0 -1
BITMAP
10
FE
AA
60
BA
54
7C
ENDCHAR
STARTCHAR uni5BC7
ENCODING 23495
SWIDTH 1000 0
DWIDTH 8 0
BBX 7 7 0 -1
BITMAP
10
FE
EA
0C
E8
54
BE
ENDCHAR
STARTCHAR uni5BC9
ENCODING 23497
SWIDTH 1000 0
DWIDTH 8 0
BBX 7 7 0 -1
BITMAP
10
FE
AA
3C
7E
A8
3E
ENDCHAR
STARTCHAR uni5BCC
ENCODING 23500
SWIDTH 1000 0
DWIDTH 8 0
BBX 7 7 0 -1
BITMAP
10
FE
BA
28
7C
54
7C
ENDCHAR
STARTCHAR uni5BD0
ENCODING 23504
SWIDTH 1000 0
DWIDTH 8 0
BBX 7 7 0 -1
BITMAP
10
FE
EA
3C
E8
7C
AA
ENDCHAR
STARTCHAR uni5BD2
ENCODING 23506
SWIDTH 1000 0
DWIDTH 8 0
BBX 7 7 0 -1
BITMAP
10
FE
AA
7C
FE
44
9A
ENDCHAR
STARTCHAR uni5BD3
ENCODING 23507
SWIDTH 1000 0
DWIDTH 8 0
BBX 7 7 0 -1
BITMAP
10
FE
BA
38
FE
9A
B6
ENDCHAR
STARTCHAR uni5BD4
ENCODING 23508
SWIDTH 1000 0
DWIDTH 8 0
BBX 7 7 0 -1
BITMAP
10
FE
AA
7C
18
50
BE
ENDCHAR
STARTCHAR uni5BDB
ENCODING 23515
SWIDTH 1000 0
DWIDTH 8 0
BBX 7 7 0 -1
BITMAP
10
FE
AA
7C
38
3A
CE
ENDCHAR
STARTCHAR uni5BDD
ENCODING 23517
SWIDTH 1000 0
DWIDTH 8 0
BBX 7 7 0 -1
BITMAP
10
FE
8A
DE
5A
C4
5A
ENDCHAR
STARTCHAR uni5BDE
ENCODING 23518
SWIDTH 1000 0
DWIDTH 8 0
BBX 7 7 0 -1
BITMAP
10
FE
AA
7C
FE
10
EE
ENDCHAR
STARTCHAR uni5BDF
ENCODING 23519
SWIDTH 1000 0
DWIDTH 8 0
BBX 7 7 0 -1
BITMAP
10
FE
EA
44
BA
10
92
ENDCHAR
STARTCHAR uni5BE1
ENCODING 23521
SWIDTH 1000 0
DWIDTH 8 0
BBX 7 7 0 -1
BITMAP
10
FE
AA
38
FE
5C
AA
ENDCHAR
STARTCHAR uni5BE2
ENCODING 23522
SWIDTH 1000 0
DWIDTH 8 0
BBX 7 7 0 -1
BITMAP
10
FE
E2
2E
EA
64
AA
ENDCHAR
STARTCHAR uni5BE4
ENCODING 23524
SWIDTH 1000 0
DWIDTH 8 0
BBX 7 7 0 -1
BITMAP
10
FE
EA
3C
EC
7E
AC
ENDCHAR
STARTCHAR uni5BE5
ENCODING 23525
SWIDTH 1000 0
DWIDTH 8 0
BBX 7 7 0 -1
BITMAP
10
FE
B6
28
D6
08
30
ENDCHAR
STARTCHAR uni5BE6
ENCODING 23526
SWIDTH 1000 0
DWIDTH 8 0
BBX 7 7 0 -1
BITMAP
10
FE
BA
7E
3C
3C
C6
ENDCHAR
STARTCHAR uni5BE7
ENCODING 23527
SWIDTH 1000 0
DWIDTH 8 0
BBX 7 7 0 -1
BITMAP
10
FE
AA
5C
FE
10
30
ENDCHAR
STARTCHAR uni5BE8
ENCODING 23528
SWIDTH 1000 0
DWIDTH 8 0
BBX 7 7 0 -1
BITMAP
10
FE
AA
7C
FE
BA
54
ENDCHAR
STARTCHAR uni5BE9
ENCODING 23529
SWIDTH 1000 0
DWIDTH 8 0
BBX 7 7 0 -1
BITMAP
10
FE
BA
54
FE
5C
9A
ENDCHAR
STARTCHAR uni5BEB
ENCODING 23531
SWIDTH 1000 0
DWIDTH 8 0
BBX 7 7 0 -1
BITMAP
10
FE
AA
48
7E
82
56
ENDCHAR
STARTCHAR uni5BEE
ENCODING 23534
SWIDTH 1000 0
DWIDTH 8 0
BBX 7 7 0 -1
BITMAP
10
FE
AA
7C
AA
38
92
ENDCHAR
STARTCHAR uni5BF0
ENCODING 23536
SWIDTH 1000 0
DWIDTH 8 0
BBX 7 7 0 -1
BITMAP
10
FE
BA
7C
3A
64
B2
ENDCHAR
STARTCHAR uni5BF3
ENCODING 23539
SWIDTH 1000 0
DWIDTH 8 0
BBX 7 7 0 -1
BITMAP
10
FE
EA
54
FC
7C
C6
ENDCHAR
STARTCHAR uni5BF5
ENCODING 23541
SWIDTH 1000 0
DWIDTH 8 0
BBX 7 7 0 -1
BITMAP
10
FE
A6
FC
52
74
56
ENDCHAR
STARTCHAR uni5BF6
ENCODING 23542
SWIDTH 1000 0
DWIDTH 8 0
BBX 7 7 0 -1
BITMAP
10
FE
EA
4C
FC
7C
C6
ENDCHAR
STARTCHAR uni5BF8
ENCODING 23544
SWIDTH 1000 0
DWIDTH 8 0
BBX 7 7 0 -1
BITMAP
04
FE
04
24
14
04
0C
ENDCHAR
STARTCHAR uni5BFA
ENCODING 23546
SWIDTH 1000 0
DWIDTH 8 0
BBX 7 7 0 -1
BITMAP
10
7C
10
FE
04
FE
24
ENDCHAR
STARTCHAR uni5BFE
ENCODING 23550
SWIDTH 1000 0
DWIDTH 8 0
BBX 7 7 0 -1
BITMAP
42
FE
22
AA
46
62
86
ENDCHAR
STARTCHAR uni5BFF
ENCODING 23551
SWIDTH 1000 0
DWIDTH 8 0
BBX 7 7 0 -1
BITMAP
10
7C
FE
24
FE
44
94
ENDCHAR
STARTCHAR uni5C01
ENCODING 23553
SWIDTH 1000 0
DWIDTH 8 0
BBX 7 7 0 -1
BITMAP
22
7E
22
FA
66
32
C6
ENDCHAR
STARTCHAR uni5C02
ENCODING 23554
SWIDTH 1000 0
DWIDTH 8 0
BBX 7 7 0 -1
BITMAP
08
FE
3C
3C
FE
24
0C
ENDCHAR
STARTCHAR uni5C04
ENCODING 23556
SWIDTH 1000 0
DWIDTH 8 0
BBX 7 7 0 -1
BITMAP
42
FE
A2
F2
AA
62
A6
ENDCHAR
STARTCHAR uni5C05
ENCODING 23557
SWIDTH 1000 0
DWIDTH 8 0
BBX 7 7 0 -1
BITMAP
42
EE
42
AA
E2
46
BE
ENDCHAR
STARTCHAR uni5C06
ENCODING 23558
SWIDTH 1000 0
DWIDTH 8 0
BBX 7 7 0 -1
BITMAP
46
78
EA
44
FE
54
4C
ENDCHAR
STARTCHAR uni5C07
ENCODING 23559
SWIDTH 1000 0
DWIDTH 8 0
BBX 7 7 0 -1
BITMAP
A6
AA
E4
3E
E2
6A
A6
ENDCHAR
STARTCHAR uni5C08
ENCODING 23560
SWIDTH 1000 0
DWIDTH 8 0
BBX 7 7 0 -1
BITMAP
08
FE
3C
3A
FE
24
0C
ENDCHAR
STARTCHAR uni5C09
ENCODING 23561
SWIDTH 1000 0
DWIDTH 8 0
BBX 7 7 0 -1
BITMAP
72
7E
42
76
46
72
A6
ENDCHAR
STARTCHAR uni5C0A
ENCODING 23562
SWIDTH 1000 0
DWIDTH 8 0
BBX 7 7 0 -1
BITMAP
24
FE
5C
6C
FE
24
0C
ENDCHAR
STARTCHAR uni5C0B
ENCODING 23563
SWIDTH 1000 0
DWIDTH 8 0
BBX 7 7 0 -1
BITMAP
3C
04
7E
2A
FE
24
0C
ENDCHAR
STARTCHAR uni5C0D
ENCODING 23565
SWIDTH 1000 0
DWIDTH 8 0
BBX 7 7 0 -1
BITMAP
AA
F6
52
FA
66
32
C6
ENDCHAR
STARTCHAR uni5C0E
ENCODING 23566
SWIDTH 1000 0
DWIDTH 8 0
BBX 7 7 0 -1
BITMAP
94
3E
DC
5C
FE
24
0C
ENDCHAR
STARTCHAR uni5C0F
ENCODING 23567
SWIDTH 1000 0
DWIDTH 8 0
BBX 7 7 0 -1
BITMAP
10
10
54
52
92
10
30
ENDCHAR
STARTCHAR uni5C11
ENCODING 23569
SWIDTH 1000 0
DWIDTH 8 0
BBX 7 7 0 -1
BITMAP
10
54
52
90
34
18
E0
ENDCHAR
STARTCHAR uni5C13
ENCODING 23571
SWIDTH 1000 0
DWIDTH 8 0
BBX 7 7 0 -1
BITMAP
40
7E
90
54
52
92
30
ENDCHAR
STARTCHAR uni5C16
ENCODING 23574
SWIDTH 1000 0
DWIDTH 8 0
BBX 7 7 0 -1
BITMAP
10
54
92
30
FE
10
EE
ENDCHAR
STARTCHAR uni5C1A
ENCODING 23578
SWIDTH 1000 0
DWIDTH 8 0
BBX 7 7 0 -1
BITMAP
92
54
FE
82
BA
AA
BA
ENDCHAR
STARTCHAR uni5C20
ENCODING 23584
SWIDTH 1000 0
DWIDTH 8 0
BBX 7 7 0 -1
BITMAP
54
FC
5E
54
F2
A4
F8
ENDCHAR
STARTCHAR uni5C22
ENCODING 23586
SWIDTH 1000 0
DWIDTH 8 0
BBX 7 7 0 -1
BITMAP
10
FE
10
18
18
2A
CE
ENDCHAR
STARTCHAR uni5C24
ENCODING 23588
SWIDTH 1000 0
DWIDTH 8 0
BBX 7 7 0 -1
BITMAP
14
FE
10
18
18
2A
CE
ENDCHAR
STARTCHAR uni5C28
ENCODING 23592
SWIDTH 1000 0
DWIDTH 8 0
BBX 7 7 0 -1
BITMAP
52
F4
42
64
62
64
BE
ENDCHAR
STARTCHAR uni5C2D
ENCODING 23597
SWIDTH 1000 0
DWIDTH 8 0
BBX 7 7 0 -1
BITMAP
10
7C
FE
24
FE
28
CE
ENDCHAR
STARTCHAR uni5C31
ENCODING 23601
SWIDTH 1000 0
DWIDTH 8 0
BBX 7 7 0 -1
BITMAP
26
F4
5E
74
24
B4
6A
ENDCHAR
STARTCHAR uni5C38
ENCODING 23608
SWIDTH 1000 0
DWIDTH 8 0
BBX 7 7 0 -1
BITMAP
7E
42
7E
40
40
40
80
ENDCHAR
STARTCHAR uni5C39
ENCODING 23609
SWIDTH 1000 0
DWIDTH 8 0
BBX 7 7 0 -1
BITMAP
7C
14
FE
14
7C
20
C0
ENDCHAR
STARTCHAR uni5C3A
ENCODING 23610
SWIDTH 1000 0
DWIDTH 8 0
BBX 7 7 0 -1
BITMAP
7E
42
7E
48
48
44
82
ENDCHAR
STARTCHAR uni5C3B
ENCODING 23611
SWIDTH 1000 0
DWIDTH 8 0
BBX 7 7 0 -1
BITMAP
7E
42
7E
48
7C
54
A6
ENDCHAR
STARTCHAR uni5C3C
ENCODING 23612
SWIDTH 1000 0
DWIDTH 8 0
BBX 7 7 0 -1
BITMAP
7E
42
7E
50
5E
50
9E
ENDCHAR
STARTCHAR uni5C3D
ENCODING 23613
SWIDTH 1000 0
DWIDTH 8 0
BBX 7 7 0 -1
BITMAP
7E
42
7E
54
44
B2
08
ENDCHAR
STARTCHAR uni5C3E
ENCODING 23614
SWIDTH 1000 0
DWIDTH 8 0
BBX 7 7 0 -1
BITMAP
7E
7E
4C
78
4E
78
8E
ENDCHAR
STARTCHAR uni5C3F
ENCODING 23615
SWIDTH 1000 0
DWIDTH 8 0
BBX 7 7 0 -1
BITMAP
7E
42
7E
48
7A
5C
AA
ENDCHAR
STARTCHAR uni5C40
ENCODING 23616
SWIDTH 1000 0
DWIDTH 8 0
BBX 7 7 0 -1
BITMAP
7C
44
7E
42
7A
6A
BA
ENDCHAR
STARTCHAR uni5C41
ENCODING 23617
SWIDTH 1000 0
DWIDTH 8 0
BBX 7 7 0 -1
BITMAP
7E
42
7E
64
76
64
B6
ENDCHAR
STARTCHAR uni5C45
ENCODING 23621
SWIDTH 1000 0
DWIDTH 8 0
BBX 7 7 0 -1
BITMAP
7E
7E
44
5E
44
5E
9E
ENDCHAR
STARTCHAR uni5C46
ENCODING 23622
SWIDTH 1000 0
DWIDTH 8 0
BBX 7 7 0 -1
BITMAP
7E
7E
48
6A
7E
6A
BE
ENDCHAR
STARTCHAR uni5C48
ENCODING 23624
SWIDTH 1000 0
DWIDTH 8 0
BBX 7 7 0 -1
BITMAP
7E
42
7E
5E
48
6A
BE
ENDCHAR
STARTCHAR uni5C4A
ENCODING 23626
SWIDTH 1000 0
DWIDTH 8 0
BBX 7 7 0 -1
BITMAP
7E
42
7E
48
7E
6A
BE
ENDCHAR
STARTCHAR uni5C4B
ENCODING 23627
SWIDTH 1000 0
DWIDTH 8 0
BBX 7 7 0 -1
BITMAP
7E
7E
48
52
7E
48
BE
ENDCHAR
STARTCHAR uni5C4D
ENCODING 23629
SWIDTH 1000 0
DWIDTH 8 0
BBX 7 7 0 -1
BITMAP
7E
42
7E
5C
6E
54
A6
ENDCHAR
STARTCHAR uni5C4E
ENCODING 23630
SWIDTH 1000 0
DWIDTH 8 0
BBX 7 7 0 -1
BITMAP
7E
7E
5A
48
7E
5C
AA
ENDCHAR
STARTCHAR uni5C4F
ENCODING 23631
SWIDTH 1000 0
DWIDTH 8 0
BBX 7 7 0 -1
BITMAP
7E
7E
54
7E
54
7E
A4
ENDCHAR
STARTCHAR uni5C50
ENCODING 23632
SWIDTH 1000 0
DWIDTH 8 0
BBX 7 7 0 -1
BITMAP
7E
7E
54
6E
5A
74
9A
ENDCHAR
STARTCHAR uni5C51
ENCODING 23633
SWIDTH 1000 0
DWIDTH 8 0
BBX 7 7 0 -1
BITMAP
7E
7E
6A
5E
52
5E
92
ENDCHAR
STARTCHAR uni5C53
ENCODING 23635
SWIDTH 1000 0
DWIDTH 8 0
BBX 7 7 0 -1
BITMAP
7E
7E
54
5C
54
5C
A2
ENDCHAR
STARTCHAR uni5C55
ENCODING 23637
SWIDTH 1000 0
DWIDTH 8 0
BBX 7 7 0 -1
BITMAP
7E
42
7E
54
7E
68
B6
ENDCHAR
STARTCHAR uni5C5E
ENCODING 23646
SWIDTH 1000 0
DWIDTH 8 0
BBX 7 7 0 -1
BITMAP
7E
7E
4C
5C
7E
6E
BA
ENDCHAR
STARTCHAR uni5C60
ENCODING 23648
SWIDTH 1000 0
DWIDTH 8 0
BBX 7 7 0 -1
BITMAP
7E
7E
5C
48
7E
5C
AC
ENDCHAR
STARTCHAR uni5C61
ENCODING 23649
SWIDTH 1000 0
DWIDTH 8 0
BBX 7 7 0 -1
BITMAP
7E
7E
6A
5C
7E
54
BA
ENDCHAR
STARTCHAR uni5C64
ENCODING 23652
SWIDTH 1000 0
DWIDTH 8 0
BBX 7 7 0 -1
BITMAP
7E
7E
54
6A
7E
54
9C
ENDCHAR
STARTCHAR uni5C65
ENCODING 23653
SWIDTH 1000 0
DWIDTH 8 0
BBX 7 7 0 -1
BITMAP
7E
7E
58
6E
5A
74
9A
ENDCHAR
STARTCHAR uni5C6C
ENCODING 23660
SWIDTH 1000 0
DWIDTH 8 0
BBX 7 7 0 -1
BITMAP
7E
7E
6A
5E
7A
5A
B6
ENDCHAR
STARTCHAR uni5C6E
ENCODING 23662
SWIDTH 1000 0
DWIDTH 8 0
BBX 7 7 0 -1
BITMAP
10
92
92
92
FE
20
C0
ENDCHAR
STARTCHAR uni5C6F
ENCODING 23663
SWIDTH 1000 0
DWIDTH 8 0
BBX 7 7 0 -1
BITMAP
16
F8
10
52
7E
10
1E
ENDCHAR
STARTCHAR uni5C71
ENCODING 23665
SWIDTH 1000 0
DWIDTH 8 0
BBX 7 7 0 -1
BITMAP
10
10
92
92
92
92
FE
ENDCHAR
STARTCHAR uni5C76
ENCODING 23670
SWIDTH 1000 0
DWIDTH 8 0
BBX 7 7 0 -1
BITMAP
4A
4A
7E
FE
12
22
C6
ENDCHAR
STARTCHAR uni5C79
ENCODING 23673
SWIDTH 1000 0
DWIDTH 8 0
BBX 7 7 0 -1
BITMAP
48
4E
50
EE
E4
E8
06
ENDCHAR
STARTCHAR uni5C8C
ENCODING 23692
SWIDTH 1000 0
DWIDTH 8 0
BBX 7 7 0 -1
BITMAP
4A
7E
2C
24
34
48
B6
ENDCHAR
STARTCHAR uni5C90
ENCODING 23696
SWIDTH 1000 0
DWIDTH 8 0
BBX 7 7 0 -1
BITMAP
48
7E
48
FC
D4
C8
36
ENDCHAR
STARTCHAR uni5C91
ENCODING 23697
SWIDTH 1000 0
DWIDTH 8 0
BBX 7 7 0 -1
BITMAP
4A
7E
24
DA
3C
04
18
ENDCHAR
ENDFONT
